<?xml version="1.0" encoding="UTF-8"?>
<svg width="1421px" height="980px" viewBox="0 0 1421 980" version="1.1" xmlns="http://www.w3.org/2000/svg" xmlns:xlink="http://www.w3.org/1999/xlink">
    <!-- Generator: Sketch 50.2 (55047) - http://www.bohemiancoding.com/sketch -->
    <title>Asset 1</title>
    <desc>Created with Sketch.</desc>
    <defs></defs>
    <g id="Page-1" stroke="none" stroke-width="1" fill="none" fill-rule="evenodd">
        <g id="Asset-1" fill-rule="nonzero">
            <g id="Group" opacity="0.3" transform="translate(0.000000, 525.000000)" fill="#A7A9AC">
                <polygon id="Shape" points="259.88 128.9 102.14 128.9 102.14 102.19 252.8 102.19 431.23 0.41 444.46 23.61"></polygon>
                <path d="M103.59,90.66 C79.78,76.91 41.31,76.91 17.66,90.66 C-5.99,104.41 -5.87,126.66 17.94,140.43 C41.75,154.2 80.22,154.18 103.87,140.43 C127.52,126.68 127.4,104.4 103.59,90.66 Z M78.34,125.66 C68.7,131.26 53.01,131.26 43.34,125.66 C33.67,120.06 33.58,110.96 43.22,105.35 C52.86,99.74 68.56,99.75 78.27,105.35 C87.98,110.95 88,120.09 78.34,125.7 L78.34,125.66 Z" id="Shape"></path>
            </g>
            <g id="Group" opacity="0.3" transform="translate(171.000000, 259.000000)" fill="#A7A9AC">
                <polygon id="Shape" points="1250.07 431.17 743.96 720.51 0.11 289.8 506.22 0.46"></polygon>
            </g>
            <polygon id="Shape" fill="#F15A29" points="1421.07 637.09 914.96 926.43 171.11 495.72 677.22 206.38"></polygon>
            <polygon id="Shape" fill="#414042" points="1059.27 789.49 914.96 873.35 171.11 442.64 315.42 358.78"></polygon>
            <g id="Group" transform="translate(0.000000, 485.000000)">
                <polygon id="Shape" fill="#414042" points="259.88 128.93 102.14 128.93 102.14 102.22 252.8 102.22 431.23 0.44 444.46 23.64"></polygon>
                <g transform="translate(0.000000, 80.000000)" id="Shape">
                    <path d="M103.59,10.43 C127.4,24.18 127.52,46.43 103.87,60.21 C80.22,73.99 41.74,73.95 17.94,60.21 C-5.86,46.47 -5.99,24.21 17.66,10.43 C41.31,-3.35 79.78,-3.31 103.59,10.43 Z" fill="#414042"></path>
                    <path d="M78.23,25.17 C87.94,30.77 87.99,39.86 78.34,45.47 C68.69,51.08 53.01,51.08 43.34,45.47 C33.67,39.86 33.58,30.77 43.22,25.17 C52.86,19.57 68.52,19.56 78.23,25.17 Z" fill="#FFFFFF"></path>
                </g>
            </g>
            <g id="Group" transform="translate(170.000000, 0.000000)">
                <g transform="translate(0.000000, 60.000000)" id="Shape">
                    <polygon fill="#414042" points="718.29 269.24 316.23 502.89 1.01 320.89 403.06 87.24"></polygon>
                    <polygon fill="#51BFBF" points="1.01 233.81 0.9 271.71 316.13 453.71 718.18 220.06 718.29 182.15 403.06 0.16"></polygon>
                    <polygon fill="#5ADBCC" points="718.29 182.15 316.23 415.8 1.01 233.81 403.06 0.16"></polygon>
                </g>
                <g transform="translate(513.000000, 46.000000)" id="Shape">
                    <polygon fill="#ABABAB" points="0.26 57.38 0.04 133.2 72.49 174.96 169.95 118.25 170.16 42.44 97.84 0.68"></polygon>
                    <g>
                        <polygon fill="#C6C6C6" points="170.16 42.44 72.59 99.14 0.26 57.38 97.84 0.68"></polygon>
                        <polygon fill="#ABABAB" points="170.16 42.44 169.95 118.25 72.37 174.96 72.59 99.14"></polygon>
                        <polygon fill="#A7A9AC" points="72.59 99.14 72.37 174.96 0.04 133.2 0.26 57.38"></polygon>
                    </g>
                    <polygon fill="#D6D6D6" points="99.77 83.44 72.59 99.14 0.26 57.38 27.45 41.69"></polygon>
                    <polygon fill="#BCBCBC" points="99.77 83.44 99.56 159.26 72.49 174.96 72.71 99.14"></polygon>
                    <polygon fill="#8E8E8E" points="46.27 160.05 21.77 145.81 21.69 120.11 46.19 134.35"></polygon>
                </g>
                <g transform="translate(195.000000, 235.000000)" id="Shape">
                    <polygon fill="#707070" points="97.39 28.31 49.34 56.24 0.97 28.31 49.02 0.39"></polygon>
                    <polygon fill="#565656" points="97.39 28.31 97.36 39.68 49.3 67.61 49.34 56.24"></polygon>
                    <polygon fill="#505050" points="49.34 56.24 49.3 67.61 0.94 39.69 0.97 28.31"></polygon>
                </g>
                <g transform="translate(623.000000, 182.000000)" id="Shape">
                    <polygon fill="#4F4F4F" points="0.4 30.88 0.36 59.66 47.95 87.13 95.23 59.65 95.27 30.88 47.68 3.4"></polygon>
                    <g transform="translate(0.000000, 13.000000)">
                        <polygon fill="#585858" points="95.29 27.94 48 55.41 0.41 27.94 47.69 0.46"></polygon>
                        <polygon fill="#4F4F4F" points="95.29 27.94 95.23 46.65 47.95 74.13 48 55.41"></polygon>
                        <polygon fill="#373737" points="48 55.41 47.95 74.13 0.36 46.66 0.41 27.94"></polygon>
                    </g>
                    <g transform="translate(0.000000, 3.000000)">
                        <polygon fill="#DCDCDC" points="95.27 27.88 47.99 55.36 0.4 27.88 47.68 0.4"></polygon>
                        <polygon fill="#C5C5C5" points="95.27 27.88 95.25 37.24 47.96 64.72 47.99 55.36"></polygon>
                        <polygon fill="#898989" points="47.99 55.36 47.96 64.72 0.37 37.24 0.4 27.88"></polygon>
                    </g>
                    <path d="M62.22,22.36 C70.22,26.97 70.22,34.45 62.31,39.07 C54.4,43.69 41.46,43.68 33.47,39.07 C25.48,34.46 25.47,26.97 33.37,22.36 C41.27,17.75 54.21,17.74 62.22,22.36 Z" fill="#FFFFFF"></path>
                    <g transform="translate(71.000000, 23.000000)">
                        <path d="M14.92,4.8 L14.92,8.71 C14.7889335,10.024558 13.9651119,11.1687546 12.76,11.71 C9.45801025,13.3897306 5.55198975,13.3897306 2.25,11.71 C1.01167199,11.1644539 0.168586598,9.98796661 0.05,8.64 L0.05,4.73 C0.172750067,6.07642053 1.01447421,7.25100832 2.25,7.8 C5.55198975,9.47973056 9.45801025,9.47973056 12.76,7.8 C13.9637595,7.25709875 14.7869341,6.11380065 14.92,4.8 Z" fill="#727272"></path>
                        <path d="M12.73,1.73 C15.64,3.41 15.66,6.14 12.73,7.83 C9.42801025,9.50973056 5.52198975,9.50973056 2.22,7.83 C-0.7,6.14 -0.72,3.41 2.22,1.73 C5.52276703,0.0535148503 9.42723297,0.0535148503 12.73,1.73 Z" fill="#9B9B9B"></path>
                    </g>
                    <g transform="translate(40.000000, 41.000000)">
                        <path d="M15.3,4.94 L15.3,8.86 C15.1630162,10.1752707 14.3362976,11.3181997 13.13,11.86 C9.82801025,13.5397306 5.92198975,13.5397306 2.62,11.86 C1.38447421,11.3110083 0.542750067,10.1364205 0.42,8.79 L0.42,4.87 C0.542750067,6.21642053 1.38447421,7.39100832 2.62,7.94 C5.92548079,9.61987118 9.83451921,9.61987118 13.14,7.94 C14.3464724,7.40042318 15.1709474,6.25531902 15.3,4.94 Z" fill="#727272"></path>
                        <path d="M13.11,1.88 C16.02,3.56 16.03,6.29 13.11,7.97 C9.80451921,9.64987118 5.89548079,9.64987118 2.59,7.97 C-0.33,6.29 -0.34,3.56 2.59,1.88 C5.89625598,0.203368281 9.80374402,0.203368281 13.11,1.88 Z" fill="#9B9B9B"></path>
                    </g>
                    <g transform="translate(10.000000, 23.000000)">
                        <path d="M14.94,4.8 L14.94,8.71 C14.8089335,10.024558 13.9851119,11.1687546 12.78,11.71 C9.47801025,13.3897306 5.57198975,13.3897306 2.27,11.71 C1.03167199,11.1644539 0.188586598,9.98796661 0.07,8.64 L0.07,4.73 C0.19685384,6.07488927 1.03724322,7.24761446 2.27,7.8 C5.57198975,9.47973056 9.47801025,9.47973056 12.78,7.8 C13.9784298,7.25059853 14.7990791,6.11080789 14.94,4.8 Z" fill="#727272"></path>
                        <path d="M12.74,1.73 C15.66,3.41 15.67,6.14 12.74,7.83 C9.43801025,9.50973056 5.53198975,9.50973056 2.23,7.83 C-0.69,6.14 -0.7,3.41 2.23,1.73 C5.53276703,0.0535148503 9.43723297,0.0535148503 12.74,1.73 Z" fill="#9B9B9B"></path>
                    </g>
                    <g transform="translate(40.000000, 7.000000)">
                        <path d="M15.3,4.92 L15.3,8.84 C15.1670141,10.1567947 14.3389965,11.3015196 13.13,11.84 C9.83037053,13.5295473 5.91962947,13.5295473 2.62,11.84 C1.38307729,11.2927246 0.54067588,10.1171917 0.42,8.77 L0.42,4.86 C0.542750067,6.20642053 1.38447421,7.38100832 2.62,7.93 C5.92548079,9.60987118 9.83451921,9.60987118 13.14,7.93 C14.3480062,7.3870113 15.1723557,6.23826497 15.3,4.92 Z" fill="#727272"></path>
                        <path d="M13.11,1.86 C16.02,3.54 16.03,6.27 13.11,7.95 C9.80451921,9.62987118 5.89548079,9.62987118 2.59,7.95 C-0.33,6.27 -0.34,3.54 2.59,1.86 C5.89391632,0.173609895 9.80608368,0.173609895 13.11,1.86 Z" fill="#9B9B9B"></path>
                    </g>
                    <g transform="translate(30.000000, 0.000000)">
                        <path d="M35.64,10.81 L35.64,29.53 C35.64,32.15 33.91,34.77 30.46,36.77 C23.54,40.77 12.29,40.77 5.32,36.77 C1.81,34.77 0.06,32.08 0.06,29.43 L0.12,10.71 C0.12,13.36 1.86,16.02 5.38,18.05 C12.38,22.05 23.59,22.05 30.51,18.05 C33.91,16.05 35.63,13.43 35.64,10.81 Z" fill="#373737"></path>
                        <path d="M30.4,3.48 C37.4,7.48 37.4,14.02 30.46,18.05 C23.52,22.08 12.29,22.05 5.33,18.05 C-1.63,14.05 -1.67,7.51 5.23,3.48 C12.13,-0.55 23.42,-0.54 30.4,3.48 Z" fill="#7A7A7A"></path>
                    </g>
                </g>
                <g transform="translate(276.000000, 84.000000)" id="Shape">
                    <g transform="translate(0.000000, 23.000000)">
                        <polygon fill="#505050" points="0.09 47.79 0.06 59.16 40.46 82.49 121.49 35.4 121.53 24.03 81.12 0.7"></polygon>
                        <g>
                            <polygon fill="#696969" points="121.53 24.03 40.5 71.12 0.09 47.79 81.12 0.7"></polygon>
                            <polygon fill="#515151" points="121.53 24.03 121.49 35.4 40.46 82.49 40.5 71.12"></polygon>
                            <polygon fill="#4C4C4C" points="40.5 71.12 40.46 82.49 0.06 59.16 0.09 47.79"></polygon>
                        </g>
                    </g>
                    <g transform="translate(15.000000, 0.000000)">
                        <g transform="translate(41.000000, 0.000000)">
                            <path d="M50.4,14.5 L50.31,46 C50.31,49.64 47.91,53.27 43.12,56 C33.52,61.58 17.88,61.58 8.19,56 C3.32,53.19 0.89,49.5 0.9,45.81 L1,14.35 C1,18.04 3.42,21.73 8.29,24.54 C17.98,30.13 33.62,30.13 43.22,24.54 C48,21.77 50.39,18.13 50.4,14.5 Z" fill="#AFAFAF"></path>
                            <path d="M43.1,4.3 C52.79,9.9 52.84,18.95 43.21,24.55 C33.58,30.15 17.97,30.13 8.28,24.55 C-1.41,18.97 -1.44,9.91 8.16,4.32 C17.76,-1.27 33.43,-1.28 43.1,4.3 Z" fill="#DBDBDB"></path>
                        </g>
                        <g transform="translate(0.000000, 24.000000)">
                            <path d="M49.64,14.46 L49.56,46 C49.56,49.64 47.15,53.28 42.37,56.06 C32.76,61.64 17.12,61.64 7.43,56.06 C2.57,53.25 0.14,49.56 0.15,45.88 L0.24,14.39 C0.24,18.07 2.66,21.76 7.52,24.57 C17.21,30.17 32.85,30.17 42.46,24.57 C47.24,21.74 49.63,18.1 49.64,14.46 Z" fill="#AFAFAF"></path>
                            <path d="M42.34,4.27 C52.03,9.86 52.09,18.92 42.46,24.52 C32.83,30.12 17.21,30.1 7.52,24.52 C-2.17,18.94 -2.2,9.88 7.41,4.3 C17.02,-1.28 32.67,-1.32 42.34,4.27 Z" fill="#DBDBDB"></path>
                        </g>
                    </g>
                </g>
                <g transform="translate(120.000000, 156.000000)" id="Shape">
                    <polygon fill="#3E3E3E" points="0.2 122.7 0.08 167.13 57.03 200 266.72 78.14 266.85 33.72 209.9 0.84"></polygon>
                    <g>
                        <polygon fill="#545454" points="266.85 33.72 57.15 155.58 0.2 122.7 209.9 0.84"></polygon>
                        <polygon fill="#424242" points="266.85 33.72 266.72 78.14 57.03 200 57.15 155.58"></polygon>
                        <polygon fill="#383838" points="57.15 155.58 57.03 200 0.08 167.13 0.2 122.7"></polygon>
                    </g>
                </g>
                <g transform="translate(369.000000, 386.000000)" id="Shape">
                    <path d="M7.64,26.14 C17.64,31.92 33.82,31.92 43.76,26.14 C53.7,20.36 53.61,11.02 43.6,5.24 C33.59,-0.54 17.46,-0.52 7.6,5.24 C-2.26,11 -2.33,20.38 7.64,26.14 Z" fill="#7ACCC2"></path>
                    <path d="M13.78,22.58 C20.37,26.38 31.03,26.38 37.58,22.58 C44.13,18.78 44.07,12.58 37.47,8.81 C30.87,5.04 20.25,5.02 13.73,8.81 C7.21,12.6 7.21,18.78 13.78,22.58 Z" fill="#AFAB95"></path>
                    <path d="M13.75,22.58 C20.35,26.38 30.98,26.38 37.53,22.58 C30.96,18.78 20.28,18.78 13.75,22.58" fill="#FFFFFF"></path>
                </g>
                <g transform="translate(189.000000, 313.000000)" id="Shape">
                    <polygon fill="#3E3E3E" points="0.71 45.79 0.69 52.92 58.12 85.72 102.58 59.88 102.6 52.75 45.18 19.95"></polygon>
                    <g>
                        <g transform="translate(0.000000, 19.000000)">
                            <polygon fill="#707070" points="64.32 12 19.85 37.84 0.71 26.79 45.18 0.95"></polygon>
                            <polygon fill="#565656" points="64.32 12 64.3 19.13 19.83 44.97 19.85 37.84"></polygon>
                            <polygon fill="#505050" points="19.85 37.84 19.83 44.97 0.69 33.92 0.71 26.79"></polygon>
                        </g>
                        <g transform="translate(15.000000, 0.000000)">
                            <g transform="translate(0.000000, 11.000000)">
                                <path d="M14.45,4.1 L14.36,33.69 C14.2385643,34.9004644 13.4741616,35.9515181 12.36,36.44 C9.35583363,37.9798822 5.79416637,37.9798822 2.79,36.44 C1.66832262,35.9395248 0.903777354,34.8729842 0.79,33.65 L0.88,4.06 C0.985443198,5.28607945 1.75271501,6.35642363 2.88,6.85 C5.88066681,8.38976561 9.43933319,8.38976561 12.44,6.85 C13.5594254,6.36604268 14.3287268,5.31351585 14.45,4.1 Z" fill="#E2A966"></path>
                                <path d="M12.45,1.31 C15.11,2.85 15.1,5.31 12.45,6.85 C9.44933319,8.38976561 5.89066681,8.38976561 2.89,6.85 C0.24,5.32 0.21,2.85 2.89,1.31 C5.89381927,-0.21666135 9.44618073,-0.21666135 12.45,1.31 Z" fill="#FFE180"></path>
                            </g>
                            <g transform="translate(19.000000, 0.000000)">
                                <path d="M14.13,4.22 L14.05,33.81 C13.9326808,35.0220304 13.1669198,36.0749518 12.05,36.56 C9.04933319,38.0997656 5.49066681,38.0997656 2.49,36.56 C1.36271501,36.0664236 0.595443198,34.9960795 0.49,33.77 L0.57,4.18 C0.683777354,5.40298416 1.44832262,6.46952481 2.57,6.97 C5.57066681,8.50976561 9.12933319,8.50976561 12.13,6.97 C13.2469198,6.48495178 14.0126808,5.43203041 14.13,4.22 Z" fill="#E2A966"></path>
                                <path d="M12.13,1.43 C14.8,2.97 14.79,5.43 12.13,6.97 C9.12933319,8.50976561 5.57066681,8.50976561 2.57,6.97 C-0.07,5.45 -0.11,2.97 2.57,1.43 C5.57536432,-0.0901975324 9.12463568,-0.0901975324 12.13,1.43 Z" fill="#FFE180"></path>
                            </g>
                        </g>
                    </g>
                    <g transform="translate(19.000000, 11.000000)">
                        <g transform="translate(0.000000, 19.000000)">
                            <polygon fill="#707070" points="64.46 11.88 20 37.72 0.85 26.67 45.32 0.83"></polygon>
                            <polygon fill="#565656" points="64.46 11.88 64.44 19 19.98 44.84 20 37.72"></polygon>
                            <polygon fill="#505050" points="20 37.72 19.98 44.84 0.83 33.79 0.85 26.67"></polygon>
                        </g>
                        <g transform="translate(15.000000, 0.000000)">
                            <g transform="translate(0.000000, 11.000000)">
                                <path d="M14.59,4 L14.51,33.59 C14.3865306,34.7996877 13.6227961,35.8498226 12.51,36.34 C9.50583363,37.8798822 5.94416637,37.8798822 2.94,36.34 C1.81693452,35.841228 1.05171866,34.7737518 0.94,33.55 L1.03,3.96 C1.14171866,5.18375184 1.90693452,6.25122796 3.03,6.75 C6.03066681,8.28976561 9.58933319,8.28976561 12.59,6.75 C13.7069198,6.26495178 14.4726808,5.21203041 14.59,4 Z" fill="#E2A966"></path>
                                <path d="M12.59,1.18 C15.26,2.72 15.25,5.18 12.59,6.72 C9.58933319,8.25976561 6.03066681,8.25976561 3.03,6.72 C0.39,5.2 0.35,2.72 3.03,1.18 C6.03536432,-0.340197532 9.58463568,-0.340197532 12.59,1.18 Z" fill="#FFE180"></path>
                            </g>
                            <g transform="translate(19.000000, 0.000000)">
                                <path d="M14.27,4.1 L14.19,33.69 C14.0706143,34.9012453 13.3055361,35.9532277 12.19,36.44 C9.18933319,37.9797656 5.63066681,37.9797656 2.63,36.44 C1.50832262,35.9395248 0.743777354,34.8729842 0.63,33.65 L0.71,4.06 C0.823777354,5.28298416 1.58832262,6.34952481 2.71,6.85 C5.71416637,8.38988216 9.27583363,8.38988216 12.28,6.85 C13.3902745,6.35872662 14.1504667,5.30820975 14.27,4.1 Z" fill="#E2A966"></path>
                                <path d="M12.27,1.31 C14.94,2.85 14.93,5.31 12.27,6.85 C9.26583363,8.38988216 5.70416637,8.38988216 2.7,6.85 C0.06,5.32 0.02,2.85 2.7,1.31 C5.70574834,-0.223313788 9.26425166,-0.223313788 12.27,1.31 Z" fill="#FFE180"></path>
                            </g>
                        </g>
                    </g>
                    <g transform="translate(38.000000, 22.000000)">
                        <g transform="translate(0.000000, 19.000000)">
                            <polygon fill="#707070" points="64.6 11.75 20.14 37.59 1 26.54 45.46 0.7"></polygon>
                            <polygon fill="#565656" points="64.6 11.75 64.58 18.88 20.12 44.72 20.14 37.59"></polygon>
                            <polygon fill="#505050" points="20.14 37.59 20.12 44.72 0.98 33.67 1 26.54"></polygon>
                        </g>
                        <g transform="translate(16.000000, 0.000000)">
                            <g transform="translate(0.000000, 10.000000)">
                                <path d="M13.73,4.85 L13.65,34.44 C13.5285643,35.6504644 12.7641616,36.7015181 11.65,37.19 C8.64933319,38.7297656 5.09066681,38.7297656 2.09,37.19 C0.962715007,36.6964236 0.195443198,35.6260795 0.09,34.4 L0.17,4.81 C0.283777354,6.03298416 1.04832262,7.09952481 2.17,7.6 C5.17066681,9.13976561 8.72933319,9.13976561 11.73,7.6 C12.8469198,7.11495178 13.6126808,6.06203041 13.73,4.85 Z" fill="#E2A966"></path>
                                <path d="M11.73,2.06 C14.4,3.6 14.39,6.06 11.73,7.6 C8.72933319,9.13976561 5.17066681,9.13976561 2.17,7.6 C-0.47,6.08 -0.51,3.6 2.17,2.06 C5.17536432,0.539802468 8.72463568,0.539802468 11.73,2.06 Z" fill="#FFE180"></path>
                            </g>
                            <g transform="translate(18.000000, 0.000000)">
                                <path d="M14.42,4 L14.33,33.59 C14.214764,34.8028198 13.4483126,35.8566904 12.33,36.34 C9.32933319,37.8797656 5.77066681,37.8797656 2.77,36.34 C1.64693452,35.841228 0.881718659,34.7737518 0.77,33.55 L0.85,3.96 C0.961718659,5.18375184 1.72693452,6.25122796 2.85,6.75 C5.85416637,8.28988216 9.41583363,8.28988216 12.42,6.75 C13.5314395,6.25814123 14.294513,5.20891515 14.42,4 Z" fill="#E2A966"></path>
                                <path d="M12.42,1.18 C15.08,2.72 15.07,5.18 12.42,6.72 C9.41583363,8.25988216 5.85416637,8.25988216 2.85,6.72 C0.21,5.2 0.17,2.72 2.85,1.18 C5.85884988,-0.340353754 9.41115012,-0.340353754 12.42,1.18 Z" fill="#FFE180"></path>
                            </g>
                        </g>
                    </g>
                </g>
                <g transform="translate(164.000000, 165.000000)" fill="#9AB2AF" id="Shape">
                    <polygon points="27.06 64.62 16 71.04 0.02 61.82 11.08 55.39"></polygon>
                    <polygon points="40.59 56.79 29.53 63.22 13.54 53.99 24.6 47.56"></polygon>
                    <polygon points="54.11 48.96 43.05 55.39 27.06 46.16 38.13 39.73"></polygon>
                    <polygon points="67.63 41.13 56.57 47.56 40.59 38.33 51.65 31.91"></polygon>
                    <polygon points="81.15 33.31 70.09 39.73 54.11 30.5 65.17 24.08"></polygon>
                    <polygon points="94.68 25.48 83.62 31.91 67.63 22.68 78.69 16.25"></polygon>
                    <polygon points="108.2 17.65 97.14 24.08 81.15 14.85 92.21 8.42"></polygon>
                    <polygon points="121.72 9.82 110.66 16.25 94.68 7.02 105.74 0.59"></polygon>
                </g>
                <g transform="translate(378.000000, 246.000000)" id="Shape">
                    <polygon fill="#444444" points="61.55 31.51 53.06 36.44 38.12 27.82 46.62 22.88"></polygon>
                    <g transform="translate(16.000000, 10.000000)">
                        <polygon fill="#C1C1C1" points="34.65 6.75 10.59 20.73 0.24 14.75 24.29 0.77"></polygon>
                        <g transform="translate(7.000000, 0.000000)" fill="#FFE000">
                            <polygon points="21.12 6.77 10.83 12.75 0.49 6.78 10.78 0.8"></polygon>
                            <polygon points="21.12 6.77 21.11 10.62 10.82 16.6 10.83 12.75"></polygon>
                            <polygon points="10.83 12.75 10.82 16.6 0.48 10.63 0.49 6.78"></polygon>
                        </g>
                    </g>
                    <g>
                        <polygon fill="#C1C1C1" points="34.46 6.89 10.41 20.87 0.05 14.89 24.11 0.91"></polygon>
                        <g transform="translate(7.000000, 0.000000)" fill="#FFE000">
                            <polygon points="20.94 6.91 10.65 12.88 0.3 6.91 10.59 0.93"></polygon>
                            <polygon points="20.94 6.91 20.92 10.76 10.64 16.74 10.65 12.88"></polygon>
                            <polygon points="10.65 12.88 10.64 16.74 0.29 10.77 0.3 6.91"></polygon>
                        </g>
                    </g>
                    <g transform="translate(49.000000, 29.000000)">
                        <polygon fill="#C1C1C1" points="35.25 6.61 11.19 20.59 0.84 14.61 24.89 0.63"></polygon>
                        <g transform="translate(8.000000, 0.000000)" fill="#FFE000">
                            <polygon points="20.72 6.63 10.43 12.61 0.09 6.64 10.37 0.66"></polygon>
                            <polygon points="20.72 6.63 20.71 10.49 10.42 16.46 10.43 12.61"></polygon>
                            <polygon points="10.43 12.61 10.42 16.46 0.08 10.49 0.09 6.64"></polygon>
                        </g>
                    </g>
                </g>
                <g transform="translate(462.000000, 123.000000)" id="Shape">
                    <polygon fill="#E2A966" points="48.7 17.63 30.65 28.12 0.96 10.97 19.01 0.48"></polygon>
                    <polygon fill="#D39C66" points="48.7 17.63 48.69 21.42 30.64 31.91 30.65 28.12"></polygon>
                    <polygon fill="#D39C66" points="30.65 28.12 30.64 31.91 0.95 14.77 0.96 10.97"></polygon>
                </g>
                <g transform="translate(53.000000, 290.000000)" id="Shape">
                    <path d="M8.22,25.82 C18.22,31.6 34.4,31.6 44.35,25.82 C54.3,20.04 54.2,10.7 44.19,4.92 C34.18,-0.86 18.05,-0.84 8.14,4.92 C-1.77,10.68 -1.75,20.07 8.22,25.82 Z" fill="#51BFBF"></path>
                    <path d="M14.37,22.26 C20.96,26.07 31.61,26.07 38.16,22.26 C44.71,18.45 44.65,12.26 38.06,8.49 C31.47,4.72 20.84,4.7 14.31,8.49 C7.78,12.28 7.8,18.47 14.37,22.26 Z" fill="#FFFFFF"></path>
                </g>
                <g transform="translate(265.000000, 412.000000)" id="Shape">
                    <path d="M8.14,25.46 C18.14,31.24 34.32,31.24 44.27,25.46 C54.22,19.68 54.12,10.34 44.11,4.56 C34.1,-1.22 17.97,-1.19 8.06,4.56 C-1.85,10.31 -1.83,19.71 8.14,25.46 Z" fill="#51BFBF"></path>
                    <path d="M14.29,21.9 C20.88,25.71 31.53,25.71 38.08,21.9 C44.63,18.09 44.57,11.9 37.98,8.13 C31.39,4.36 20.76,4.34 14.23,8.13 C7.7,11.92 7.72,18.11 14.29,21.9 Z" fill="#FFFFFF"></path>
                </g>
                <g transform="translate(432.000000, 195.000000)" id="Shape">
                    <polygon fill="#505050" points="0.93 28.82 0.9 40.19 49.27 68.11 97.35 40.17 97.38 28.8 49.02 0.88"></polygon>
                    <g>
                        <polygon fill="#707070" points="97.38 28.8 49.3 56.74 0.93 28.82 49.02 0.88"></polygon>
                        <polygon fill="#565656" points="97.38 28.8 97.35 40.17 49.27 68.11 49.3 56.74"></polygon>
                        <polygon fill="#505050" points="49.3 56.74 49.27 68.11 0.9 40.19 0.93 28.82"></polygon>
                    </g>
                </g>
                <g transform="translate(399.000000, 169.000000)" id="Shape">
                    <path d="M60.86,9.46 L60.81,28.53 C60.81,30.82 59.3,33.1 56.3,34.84 L56.36,15.76 C59.35,14 60.86,11.74 60.86,9.46 Z" fill="#AAAAAA"></path>
                    <polygon fill="#AAAAAA" points="56.36 15.76 56.3 34.84 27.08 51.82 27.13 32.75"></polygon>
                    <path d="M0.62,45.43 L0.68,26.35 C0.68,28.66 2.2,30.98 5.26,32.75 C11.33,36.25 21.11,36.25 27.13,32.75 L27.13,51.82 C21.13,55.32 11.32,55.32 5.26,51.82 C2.15,50.05 0.62,47.74 0.62,45.43 Z" fill="#AAAAAA"></path>
                    <path d="M56.31,3.08 C62.37,6.58 62.38,12.26 56.36,15.76 L27.13,32.76 C21.13,36.26 11.33,36.26 5.26,32.76 C-0.81,29.26 -0.85,23.57 5.17,20.07 L34.39,3.07 C40.41,-0.42 50.22,-0.43 56.31,3.08 Z" fill="#C9C9C9"></path>
                </g>
                <g transform="translate(373.000000, 159.000000)" id="Shape">
                    <polygon fill="#505050" points="0.76 11.19 0.73 22.56 18.55 32.85 36.24 22.56 36.28 11.19 18.46 0.9"></polygon>
                    <g>
                        <polygon fill="#707070" points="36.28 11.19 18.58 21.47 0.76 11.19 18.46 0.9"></polygon>
                        <polygon fill="#565656" points="36.28 11.19 36.24 22.56 18.55 32.85 18.58 21.47"></polygon>
                        <polygon fill="#505050" points="18.58 21.47 18.55 32.85 0.73 22.56 0.76 11.19"></polygon>
                    </g>
                </g>
                <g transform="translate(492.000000, 210.000000)" id="Shape">
                    <g transform="translate(37.000000, 0.000000)">
                        <g transform="translate(0.000000, 20.000000)">
                            <polygon fill="#707070" points="0.66 10.96 44.34 36.35 63.14 25.49 19.46 0.11"></polygon>
                            <polygon fill="#565656" points="0.66 10.96 0.68 17.96 44.36 43.35 44.34 36.35"></polygon>
                            <polygon fill="#505050" points="44.34 36.35 44.36 43.35 63.16 32.49 63.14 25.49"></polygon>
                        </g>
                        <g transform="translate(16.000000, 0.000000)">
                            <g transform="translate(18.000000, 11.000000)">
                                <path d="M0.91,4.34 L1,33.41 C1.1110336,34.5915665 1.84797112,35.6225153 2.93,36.11 C5.87795212,37.619715 9.37204788,37.619715 12.32,36.11 C13.4340022,35.6266615 14.1992176,34.5783165 14.32,33.37 L14.24,4.3 C14.1212861,5.50910603 13.3553847,6.55839092 12.24,7.04 C9.29204788,8.54971503 5.79795212,8.54971503 2.85,7.04 C1.76408535,6.55528842 1.02294683,5.52380698 0.91,4.34 Z" fill="#E2A966"></path>
                                <path d="M2.88,1.6 C0.26,3.11 0.27,5.54 2.88,7.04 C5.82795212,8.54971503 9.32204788,8.54971503 12.27,7.04 C14.87,5.54 14.9,3.11 12.27,1.6 C9.31968911,0.100097455 5.83031089,0.100097455 2.88,1.6 Z" fill="#FFE180"></path>
                            </g>
                            <g>
                                <path d="M0.56,4.66 L0.64,33.72 C0.755578553,34.9052367 1.49528421,35.9385368 2.58,36.43 C5.52795212,37.939715 9.02204788,37.939715 11.97,36.43 C13.0869198,35.9449518 13.8526808,34.8920304 13.97,33.68 L13.88,4.62 C13.7675933,5.83150069 12.9995879,6.88366803 11.88,7.36 C8.92855031,8.86983719 5.43144969,8.86983719 2.48,7.36 C1.40185583,6.86975425 0.669112976,5.8393346 0.56,4.66 Z" fill="#E2A966"></path>
                                <path d="M2.53,1.92 C-0.09,3.43 -0.08,5.86 2.53,7.36 C5.48144969,8.86983719 8.97855031,8.86983719 11.93,7.36 C14.52,5.86 14.56,3.43 11.93,1.92 C8.97697728,0.41670593 5.48302272,0.41670593 2.53,1.92 Z" fill="#FFE180"></path>
                            </g>
                        </g>
                    </g>
                    <g transform="translate(18.000000, 11.000000)">
                        <g transform="translate(0.000000, 19.000000)">
                            <polygon fill="#707070" points="0.86 11.65 44.54 37.03 63.34 26.17 19.66 0.79"></polygon>
                            <polygon fill="#565656" points="0.86 11.65 0.88 18.64 44.55 44.03 44.54 37.03"></polygon>
                            <polygon fill="#505050" points="44.54 37.03 44.55 44.03 63.36 33.17 63.34 26.17"></polygon>
                        </g>
                        <g transform="translate(16.000000, 0.000000)">
                            <g transform="translate(19.000000, 11.000000)">
                                <path d="M0.11,4 L0.19,33.07 C0.302946832,34.253807 1.04408535,35.2852884 2.13,35.77 C5.07554463,37.2896648 8.57445537,37.2896648 11.52,35.77 C12.6353847,35.2883909 13.4012861,34.239106 13.52,33.03 L13.4,4 C13.2875933,5.21150069 12.5195879,6.26366803 11.4,6.74 C8.44855031,8.24983719 4.95144969,8.24983719 2,6.74 C0.924581795,6.23126362 0.203574382,5.18599361 0.11,4 Z" fill="#E2A966"></path>
                                <path d="M2.08,1.28 C-0.54,2.8 -0.53,5.23 2.08,6.73 C5.03144969,8.23983719 8.52855031,8.23983719 11.48,6.73 C14.07,5.23 14.11,2.8 11.48,1.28 C8.52465725,-0.213591401 5.03534275,-0.213591401 2.08,1.28 Z" fill="#FFE180"></path>
                            </g>
                            <g>
                                <path d="M0.76,4.34 L0.84,33.41 C0.951033601,34.5915665 1.68797112,35.6225153 2.77,36.11 C5.72144969,37.6198372 9.21855031,37.6198372 12.17,36.11 C13.2895879,35.633668 14.0575933,34.5815007 14.17,33.37 L14.09,4.3 C13.9712861,5.50910603 13.2053847,6.55839092 12.09,7.04 C9.13855031,8.54983719 5.64144969,8.54983719 2.69,7.04 C1.60659259,6.55419825 0.868995099,5.52232611 0.76,4.34 Z" fill="#E2A966"></path>
                                <path d="M2.72,1.6 C0.1,3.11 0.11,5.54 2.72,7.04 C5.67144969,8.54983719 9.16855031,8.54983719 12.12,7.04 C14.71,5.54 14.75,3.11 12.12,1.6 C9.16619872,0.0999549792 5.67380128,0.0999549792 2.72,1.6 Z" fill="#FFE180"></path>
                            </g>
                        </g>
                    </g>
                    <g transform="translate(0.000000, 22.000000)">
                        <g transform="translate(0.000000, 19.000000)">
                            <polygon fill="#707070" points="0.05 11.33 43.73 36.71 62.54 25.86 18.86 0.47"></polygon>
                            <polygon fill="#565656" points="0.05 11.33 0.07 18.33 43.75 43.71 43.73 36.71"></polygon>
                            <polygon fill="#505050" points="43.73 36.71 43.75 43.71 62.55 32.86 62.54 25.86"></polygon>
                        </g>
                        <g transform="translate(15.000000, 0.000000)">
                            <g transform="translate(19.000000, 10.000000)">
                                <path d="M0.31,4.71 L0.39,33.77 C0.501642577,34.9537625 1.2378057,35.9874423 2.32,36.48 C5.27144969,37.9898372 8.76855031,37.9898372 11.72,36.48 C12.8395879,36.003668 13.6075933,34.9515007 13.72,33.74 L13.64,4.67 C13.5233714,5.8798999 12.7567764,6.93013501 11.64,7.41 C8.68855031,8.91983719 5.19144969,8.91983719 2.24,7.41 C1.15797112,6.92251534 0.421033601,5.89156647 0.31,4.71 Z" fill="#E2A966"></path>
                                <path d="M2.27,2 C-0.35,3.51 -0.34,5.94 2.27,7.44 C5.22144969,8.94983719 8.71855031,8.94983719 11.67,7.44 C14.26,5.94 14.3,3.51 11.67,2 C8.71619872,0.499954979 5.22380128,0.499954979 2.27,2 Z" fill="#FFE180"></path>
                            </g>
                            <g>
                                <path d="M1,4 L1.08,33.07 C1.1889951,34.2523261 1.92659259,35.2841982 3.01,35.77 C5.95904964,37.2897661 9.46095036,37.2897661 12.41,35.77 C13.5253847,35.2883909 14.2912861,34.239106 14.41,33.03 L14.25,4 C14.1292176,5.20831646 13.3640022,6.25666152 12.25,6.74 C9.30204788,8.24971503 5.80795212,8.24971503 2.86,6.74 C1.79201145,6.22803305 1.08162148,5.1815446 1,4 Z" fill="#E2A966"></path>
                                <path d="M2.92,1.28 C0.3,2.8 0.31,5.23 2.92,6.73 C5.86795212,8.23971503 9.36204788,8.23971503 12.31,6.73 C14.91,5.23 14.94,2.8 12.31,1.28 C9.3573777,-0.210224404 5.8726223,-0.210224404 2.92,1.28 Z" fill="#FFE180"></path>
                            </g>
                        </g>
                    </g>
                </g>
                <g transform="translate(37.000000, 66.000000)" id="Shape">
                    <g transform="translate(429.000000, 134.000000)">
                        <polygon fill="#191919" points="160.28 9.63 153.09 13.81 145.87 9.65 153.07 5.46"></polygon>
                        <polygon fill="#363636" points="1.07 88.84 0.86 164.66 16.47 173.67 168.36 85.41 168.57 9.59 152.95 0.51"></polygon>
                        <path d="M153,0.51 L168.62,9.51 L16.69,97.79 L1.07,88.79 L153,0.51 Z M61.5,67 L68.69,62.82 L61.48,58.65 L54.28,62.83 L61.5,67 Z M122.56,31.51 L129.75,27.33 L122.54,23.17 L115.34,27.35 L122.56,31.51 Z M153.09,13.77 L160.28,9.59 L153.07,5.42 L145.87,9.61 L153.09,13.77 Z M16.6,93.13 L23.8,88.95 L16.58,84.78 L9.39,89 L16.6,93.17 L16.6,93.13 Z M92,49.3 L99.19,45.11 L92,41 L84.8,45.18 L92,49.3 Z M46.22,75.9 L53.38,71.73 L46.17,67.57 L39,71.74 L46.22,75.9 Z M137.81,22.67 L144.97,18.51 L137.76,14.34 L130.59,18.51 L137.81,22.67 Z M76.75,58.16 L83.91,53.99 L76.7,49.83 L69.56,54 L76.78,58.17 L76.75,58.16 Z M31.88,84.26 L39.05,80.09 L31.83,75.93 L24.67,80.09 L31.88,84.26 Z M107.31,40.43 L114.47,36.26 L107.26,32.1 L100.09,36.26 L107.31,40.43 Z" fill="#7A7A7A"></path>
                        <polygon fill="#191919" points="145 18.51 137.84 22.67 130.62 18.51 137.79 14.34"></polygon>
                        <polygon fill="#191919" points="129.75 27.37 122.56 31.55 115.34 27.39 122.54 23.21"></polygon>
                        <polygon fill="#191919" points="114.47 36.25 107.31 40.42 100.09 36.25 107.26 32.09"></polygon>
                        <polygon fill="#191919" points="99.22 45.11 92.03 49.3 84.81 45.13 92.01 40.95"></polygon>
                        <polygon fill="#191919" points="83.94 53.99 76.77 58.16 69.56 53.99 76.73 49.83"></polygon>
                        <polygon fill="#191919" points="68.69 62.86 61.5 67.04 54.28 62.87 61.48 58.69"></polygon>
                        <polygon fill="#191919" points="53.41 71.74 46.25 75.9 39.03 71.74 46.2 67.57"></polygon>
                        <polygon fill="#191919" points="39.05 80.08 31.88 84.25 24.66 80.08 31.83 75.92"></polygon>
                        <polygon fill="#191919" points="23.8 88.95 16.6 93.13 9.38 88.96 16.58 84.78"></polygon>
                        <polygon fill="#3E3E3E" points="168.57 9.59 168.36 85.41 16.47 173.67 16.69 97.86"></polygon>
                        <polygon fill="#363636" points="16.69 97.86 16.47 173.67 0.86 164.66 1.07 88.84"></polygon>
                    </g>
                    <g transform="translate(292.000000, 231.000000)">
                        <polygon fill="#363636" points="0.55 71.76 0.34 147.57 15.96 156.59 138.08 85.62 138.29 9.74 122.67 0.72"></polygon>
                        <polygon fill="#191919" points="130 9.84 122.8 14.02 115.59 9.86 122.79 5.68"></polygon>
                        <polygon fill="#191919" points="114.72 18.72 107.55 22.89 100.34 18.72 107.51 14.56"></polygon>
                        <polygon fill="#191919" points="99.47 27.58 92.27 31.77 85.06 27.6 92.26 23.42"></polygon>
                        <polygon fill="#191919" points="84.19 36.46 77.02 40.63 69.81 36.46 76.98 32.3"></polygon>
                        <polygon fill="#191919" points="68.94 45.33 61.75 49.51 54.53 45.34 61.73 41.16"></polygon>
                        <polygon fill="#191919" points="53.66 54.21 46.49 58.37 39.28 54.21 46.45 50.04"></polygon>
                        <polygon fill="#191919" points="38.41 63.07 31.24 67.23 24.03 63.07 31.2 58.9"></polygon>
                        <polygon fill="#191919" points="23.16 71.93 15.96 76.11 8.75 71.95 15.95 67.77"></polygon>
                        <polygon fill="#3E3E3E" points="138.29 9.81 138.08 85.62 15.96 156.59 16.17 80.77"></polygon>
                        <path d="M122.67,0.72 L138.29,9.72 L16.17,80.72 L0.55,71.72 L122.67,0.72 Z M92.27,31.72 L99.47,27.53 L92.26,23.37 L85.06,27.55 L92.27,31.72 Z M122.8,14 L130,9.81 L122.79,5.65 L115.59,9.83 L122.8,14 Z M61.74,49.48 L68.94,45.3 L61.73,41.13 L54.53,45.31 L61.74,49.48 Z M16,76.11 L23.2,71.93 L16,67.77 L8.8,71.95 L16.01,76.11 L16,76.11 Z M46.54,58.37 L53.71,54.21 L46.45,50 L39.28,54.17 L46.49,58.33 L46.54,58.37 Z M77,40.63 L84.17,36.46 L77,32.3 L69.83,36.46 L77.04,40.63 L77,40.63 Z M31.26,67.23 L38.43,63.07 L31.22,58.9 L24,63.07 L31.21,67.23 L31.26,67.23 Z M107.52,22.89 L114.69,18.72 L107.48,14.56 L100.31,18.72 L107.52,22.89 Z" fill="#7A7A7A"></path>
                        <polygon fill="#363636" points="16.17 80.77 15.96 156.59 0.34 147.57 0.55 71.76"></polygon>
                    </g>
                    <g transform="translate(107.000000, 0.000000)">
                        <polygon fill="#3E3E3E" points="0.65 71.89 0.44 147.71 16.06 156.72 138.14 85.77 138.36 9.95 122.74 0.87"></polygon>
                        <g transform="translate(8.000000, 67.000000)" fill="#3E3E3E">
                            <path d="M7.77,76.71 L0.57,80.9"></path>
                            <path d="M0.79,5.08 L7.99,0.9"></path>
                        </g>
                        <path d="M122.74,0.87 L138.36,9.87 L16.27,80.87 L0.65,71.87 L122.74,0.87 Z M122.87,14.17 L130.07,9.99 L122.83,5.81 L115.63,10 L122.87,14.18 L122.87,14.17 Z M92.34,31.92 L99.54,27.73 L92.3,23.55 L85.1,27.73 L92.34,31.92 Z M16,76.26 L23.2,72.08 L16,67.9 L8.8,72.08 L16.04,76.26 L16,76.26 Z M77.1,40.78 L84.3,36.6 L77.06,32.41 L69.86,36.6 L77.1,40.78 Z M46.57,58.52 L53.77,54.34 L46.53,50.16 L39.33,54.34 L46.57,58.52 Z M61.85,49.64 L69.02,45.48 L61.78,41.29 L54.61,45.46 L61.85,49.64 Z M31.32,67.38 L38.49,63.22 L31.24,59 L24.07,63.16 L31.31,67.34 L31.32,67.38 Z M107.62,23 L114.79,18.83 L107.55,14.65 L100.38,18.81 L107.62,23 Z" fill="#7A7A7A"></path>
                        <polygon fill="#191919" points="130.07 9.99 122.87 14.17 115.63 9.99 122.83 5.81"></polygon>
                        <polygon fill="#191919" points="114.79 18.87 107.62 23.04 100.38 18.85 107.55 14.69"></polygon>
                        <polygon fill="#191919" points="99.54 27.73 92.34 31.92 85.1 27.73 92.3 23.55"></polygon>
                        <polygon fill="#191919" points="84.29 36.6 77.09 40.78 69.85 36.6 77.05 32.41"></polygon>
                        <polygon fill="#191919" points="69.01 45.47 61.84 49.64 54.6 45.46 61.77 41.29"></polygon>
                        <polygon fill="#191919" points="53.76 54.34 46.56 58.52 39.32 54.34 46.52 50.16"></polygon>
                        <polygon fill="#191919" points="38.48 63.22 31.31 67.38 24.07 63.2 31.24 59.03"></polygon>
                        <polygon fill="#191919" points="23.23 72.08 16.03 76.26 8.79 72.08 15.99 67.9"></polygon>
                        <polygon fill="#3E3E3E" points="138.36 9.95 138.14 85.77 16.06 156.72 16.27 80.91"></polygon>
                        <polygon fill="#363636" points="16.27 80.91 16.06 156.72 0.44 147.71 0.65 71.89"></polygon>
                    </g>
                    <g transform="translate(0.000000, 81.000000)">
                        <polygon fill="#363636" points="0.4 53.22 0.18 129.04 15.8 138.05 107.01 85.05 107.22 9.23 91.6 0.15"></polygon>
                        <polygon fill="#191919" points="83.65 18.15 76.49 22.31 69.24 18.13 76.41 13.97"></polygon>
                        <path d="M91.6,0.15 L107.22,9.15 L16.01,62.15 L0.39,53.15 L91.6,0.15 Z M30.68,48.93 L37.87,44.75 L30.63,40.57 L23.43,44.75 L30.68,48.93 Z M91.74,13.45 L98.93,9.27 L91.69,5.09 L84.49,9.27 L91.74,13.45 Z M61.21,31.19 L68.4,27 L61.16,22.82 L54,27 L61.25,31.18 L61.21,31.19 Z M15.43,57.8 L22.59,53.63 L15.35,49.45 L8.18,53.61 L15.43,57.8 Z M76.49,22.31 L83.65,18.15 L76.41,14 L69.24,18.17 L76.49,22.35 L76.49,22.31 Z M46,40.06 L53.16,35.89 L45.92,31.71 L38.75,35.87 L46,40.06 Z" fill="#7A7A7A"></path>
                        <polygon fill="#191919" points="98.93 9.27 91.74 13.45 84.49 9.27 91.69 5.09"></polygon>
                        <polygon fill="#191919" points="68.4 27.01 61.21 31.19 53.96 27.01 61.16 22.83"></polygon>
                        <polygon fill="#191919" points="53.12 35.89 45.96 40.06 38.71 35.87 45.88 31.71"></polygon>
                        <polygon fill="#191919" points="37.87 44.75 30.68 48.94 23.43 44.75 30.63 40.57"></polygon>
                        <polygon fill="#191919" points="22.59 53.63 15.43 57.8 8.18 53.62 15.35 49.45"></polygon>
                        <polygon fill="#363636" points="16.02 62.24 15.8 138.05 0.18 129.04 0.4 53.22"></polygon>
                        <polygon fill="#3E3E3E" points="107.22 9.23 107.01 85.05 15.8 138.05 16.02 62.24"></polygon>
                    </g>
                </g>
                <g transform="translate(384.000000, 0.000000)" id="Shape">
                    <polygon fill="#595959" points="0.37 48.76 0.53 107.2 56.25 139.58 119.9 102.83 119.91 105.8 136.57 96.18 136.39 32.38 80.67 0 64.01 9.62 64.02 12.01"></polygon>
                    <g>
                        <polygon fill="#383838" points="119.91 105.8 64.2 73.42 64.19 70.45 119.9 102.83"></polygon>
                        <polygon fill="#383838" points="119.74 44.38 64.02 12.01 64.01 9.62 119.73 42"></polygon>
                        <polygon fill="#595959" points="119.73 42 64.01 9.62 80.67 0 136.39 32.38"></polygon>
                        <polygon fill="#505050" points="136.39 32.38 136.57 96.18 119.91 105.8 119.9 102.83 56.25 139.58 56.08 81.14 119.74 44.38 119.73 42"></polygon>
                        <polygon fill="#383838" points="56.25 139.58 0.53 107.2 0.37 48.76 56.08 81.14"></polygon>
                        <polygon fill="#7F7F7F" points="40.59 130.62 16.09 116.38 16.02 90.68 40.52 104.92"></polygon>
                        <polygon fill="#595959" points="56.08 81.14 0.37 48.76 64.02 12.01 119.74 44.38"></polygon>
                    </g>
                </g>
            </g>
            <g id="Group" transform="translate(601.000000, 257.000000)">
                <g transform="translate(0.000000, 53.000000)" id="Shape">
                    <polygon fill="#414042" points="717.24 267.67 315.37 501.21 0.3 319.31 402.18 85.76"></polygon>
                    <polyline fill="#F98732" points="0.2 271.53 315.26 453.43 717.13 219.88 717.24 182 402.18 0.1 0.3 233.64"></polyline>
                    <polygon fill="#FFA33E" points="717.24 182 315.37 415.54 0.3 233.64 402.18 0.1"></polygon>
                </g>
                <g transform="translate(429.000000, 73.000000)" id="Shape">
                    <g>
                        <g transform="translate(0.000000, 20.000000)">
                            <polygon fill="#707070" points="63.78 11.43 19.34 37.26 0.21 26.21 44.65 0.39"></polygon>
                            <polygon fill="#565656" points="63.78 11.43 63.76 18.55 19.32 44.38 19.34 37.26"></polygon>
                            <polygon fill="#505050" points="19.34 37.26 19.32 44.38 0.19 33.33 0.21 26.21"></polygon>
                        </g>
                        <g transform="translate(15.000000, 0.000000)">
                            <g transform="translate(0.000000, 11.000000)">
                                <path d="M13.93,4.53 L13.84,34.11 C13.7206143,35.3212453 12.9555361,36.3732277 11.84,36.86 C8.83933319,38.3997656 5.28066681,38.3997656 2.28,36.86 C1.15553728,36.3629454 0.389643541,35.2945236 0.28,34.07 L0.36,4.5 C0.473777354,5.72298416 1.23832262,6.78952481 2.36,7.29 C5.36303902,8.81991518 8.91696098,8.81991518 11.92,7.29 C13.0395826,6.80089004 13.8080663,5.74565861 13.93,4.53 Z" fill="#E2A966"></path>
                                <path d="M11.93,1.75 C14.59,3.29 14.58,5.75 11.93,7.29 C8.92696098,8.81991518 5.37303902,8.81991518 2.37,7.29 C-0.27,5.76 -0.31,3.29 2.37,1.75 C5.37303902,0.220084821 8.92696098,0.220084821 11.93,1.75 Z" fill="#FFE180"></path>
                            </g>
                            <g transform="translate(18.000000, 0.000000)">
                                <path d="M14.6,4.66 L14.52,34.24 C14.3985643,35.4504644 13.6341616,36.5015181 12.52,36.99 C9.51933319,38.5297656 5.96066681,38.5297656 2.96,36.99 C1.83832262,36.4895248 1.07377735,35.4229842 0.96,34.2 L1.05,4.63 C1.15755179,5.85529945 1.92413081,6.92467718 3.05,7.42 C6.05185886,8.95482362 9.60814114,8.95482362 12.61,7.42 C13.727361,6.93216507 14.4901318,5.8742518 14.6,4.66 Z" fill="#E2A966"></path>
                                <path d="M12.6,1.88 C15.27,3.42 15.26,5.88 12.6,7.41 C9.59814114,8.94482362 6.04185886,8.94482362 3.04,7.41 C0.4,5.88 0.37,3.41 3.04,1.87 C6.04463912,0.343225135 9.59856154,0.346942627 12.6,1.88 Z" fill="#FFE180"></path>
                            </g>
                        </g>
                    </g>
                    <g transform="translate(19.000000, 11.000000)">
                        <g transform="translate(0.000000, 20.000000)">
                            <polygon fill="#707070" points="63.91 11.3 19.47 37.13 0.34 26.08 44.78 0.26"></polygon>
                            <polygon fill="#565656" points="63.91 11.3 63.89 18.42 19.45 44.25 19.47 37.13"></polygon>
                            <polygon fill="#505050" points="19.47 37.13 19.45 44.25 0.32 33.2 0.34 26.08"></polygon>
                        </g>
                        <g transform="translate(15.000000, 0.000000)">
                            <g transform="translate(0.000000, 11.000000)">
                                <path d="M14.06,4.41 L14,34 C13.8806143,35.2112453 13.1155361,36.2632277 12,36.75 C8.99933319,38.2897656 5.44066681,38.2897656 2.44,36.75 C1.31832262,36.2495248 0.553777354,35.1829842 0.44,33.96 L0.52,4.39 C0.633777354,5.61298416 1.39832262,6.67952481 2.52,7.18 C5.52303902,8.70991518 9.07696098,8.70991518 12.08,7.18 C13.1936078,6.68419489 13.9513362,5.62414055 14.06,4.41 Z" fill="#E2A966"></path>
                                <path d="M12.06,1.62 C14.72,3.16 14.71,5.62 12.06,7.16 C9.05696098,8.68991518 5.50303902,8.68991518 2.5,7.16 C-0.14,5.63 -0.18,3.16 2.5,1.62 C5.50303902,0.0900848207 9.05696098,0.0900848207 12.06,1.62 Z" fill="#FFE180"></path>
                            </g>
                            <g transform="translate(19.000000, 0.000000)">
                                <path d="M13.73,4.53 L13.65,34.11 C13.5326808,35.3220304 12.7669198,36.3749518 11.65,36.86 C8.64933319,38.3997656 5.09066681,38.3997656 2.09,36.86 C0.968322625,36.3595248 0.203777354,35.2929842 0.09,34.07 L0.18,4.5 C0.289643541,5.72452359 1.05553728,6.79294536 2.18,7.29 C5.18303902,8.81991518 8.73696098,8.81991518 11.74,7.29 C12.8531827,6.79700022 13.6139115,5.74191913 13.73,4.53 Z" fill="#E2A966"></path>
                                <path d="M11.73,1.75 C14.4,3.29 14.39,5.75 11.73,7.29 C8.72696098,8.81991518 5.17303902,8.81991518 2.17,7.29 C-0.47,5.76 -0.51,3.29 2.17,1.75 C5.17225356,0.216816238 8.72774644,0.216816238 11.73,1.75 Z" fill="#FFE180"></path>
                            </g>
                        </g>
                    </g>
                    <g transform="translate(38.000000, 22.000000)">
                        <g transform="translate(0.000000, 20.000000)">
                            <polygon fill="#707070" points="64.04 11.17 19.6 37 0.47 25.95 44.91 0.13"></polygon>
                            <polygon fill="#565656" points="64.04 11.17 64.02 18.29 19.58 44.12 19.6 37"></polygon>
                            <polygon fill="#505050" points="19.6 37 19.58 44.12 0.45 33.07 0.47 25.95"></polygon>
                        </g>
                        <g transform="translate(15.000000, 0.000000)">
                            <g transform="translate(0.000000, 11.000000)">
                                <path d="M14.19,4.28 L14.11,33.85 C13.984513,35.0589151 13.2214395,36.1081412 12.11,36.6 C9.10933319,38.1397656 5.55066681,38.1397656 2.55,36.6 C1.42832262,36.0995248 0.663777354,35.0329842 0.55,33.81 L0.64,4.24 C0.747551791,5.46529945 1.51413081,6.53467718 2.64,7.03 C5.64303902,8.55991518 9.19696098,8.55991518 12.2,7.03 C13.3116478,6.5404247 14.072509,5.48898334 14.19,4.28 Z" fill="#E2A966"></path>
                                <path d="M12.19,1.49 C14.86,3.03 14.85,5.49 12.19,7.03 C9.18696098,8.55991518 5.63303902,8.55991518 2.63,7.03 C-0.01,5.5 -0.04,3.03 2.63,1.49 C5.63536432,-0.0301975324 9.18463568,-0.0301975324 12.19,1.49 Z" fill="#FFE180"></path>
                            </g>
                            <g transform="translate(19.000000, 0.000000)">
                                <path d="M13.86,4.41 L13.78,33.98 C13.6626808,35.1920304 12.8969198,36.2449518 11.78,36.73 C8.77933319,38.2697656 5.22066681,38.2697656 2.22,36.73 C1.09413081,36.2346772 0.327551791,35.1652994 0.22,33.94 L0.3,4.37 C0.413777354,5.59298416 1.17832262,6.65952481 2.3,7.16 C5.30303902,8.68991518 8.85696098,8.68991518 11.86,7.16 C12.9741616,6.67151807 13.7385643,5.6204644 13.86,4.41 Z" fill="#E2A966"></path>
                                <path d="M11.87,1.62 C14.53,3.16 14.52,5.62 11.87,7.16 C8.86696098,8.68991518 5.31303902,8.68991518 2.31,7.16 C-0.33,5.63 -0.37,3.16 2.31,1.62 C5.31303902,0.0900848207 8.86696098,0.0900848207 11.87,1.62 Z" fill="#FFE180"></path>
                            </g>
                        </g>
                    </g>
                </g>
                <g transform="translate(185.000000, 231.000000)" id="Shape">
                    <polygon fill="#707070" points="0.96 28.82 0.93 40.19 49.3 68.11 97.36 40.19 97.39 28.82 49.02 0.89"></polygon>
                    <polygon fill="#707070" points="97.39 28.82 49.33 56.75 0.96 28.82 49.02 0.89"></polygon>
                    <polygon fill="#565656" points="97.39 28.82 97.36 40.19 49.3 68.11 49.33 56.75"></polygon>
                    <polygon fill="#505050" points="49.33 56.75 49.3 68.11 0.93 40.19 0.96 28.82"></polygon>
                </g>
                <g transform="translate(0.000000, 227.000000)" id="Shape">
                    <g transform="translate(0.000000, 13.000000)">
                        <polygon fill="#585858" points="95.08 27.88 47.82 55.35 0.25 27.88 47.51 0.42"></polygon>
                        <polygon fill="#4F4F4F" points="95.08 27.88 95.02 46.59 47.76 74.06 47.82 55.35"></polygon>
                        <polygon fill="#373737" points="47.82 55.35 47.76 74.06 0.2 46.59 0.25 27.88"></polygon>
                    </g>
                    <g transform="translate(0.000000, 3.000000)">
                        <polygon fill="#DCDCDC" points="95.06 27.83 47.8 55.3 0.24 27.83 47.5 0.37"></polygon>
                        <polygon fill="#C5C5C5" points="95.06 27.83 95.04 37.19 47.78 64.65 47.8 55.3"></polygon>
                        <polygon fill="#898989" points="47.8 55.3 47.78 64.65 0.21 37.19 0.24 27.83"></polygon>
                    </g>
                    <path d="M62,22.32 C70,26.93 70,34.4 62.09,39.02 C54.18,43.64 41.24,43.63 33.26,39.02 C25.28,34.41 25.26,26.93 33.16,22.32 C41.06,17.71 54,17.7 62,22.32 Z" fill="#FFFFFF"></path>
                    <g transform="translate(70.000000, 23.000000)">
                        <path d="M15.72,4.75 L15.72,8.66 C15.5850079,9.97603083 14.757643,11.1198533 13.55,11.66 C10.2515022,13.3395926 6.34849776,13.3395926 3.05,11.66 C1.81447421,11.1110083 0.972750067,9.93642053 0.85,8.59 L0.85,4.68 C0.972750067,6.02642053 1.81447421,7.20100832 3.05,7.75 C6.35198975,9.42973056 10.2580103,9.42973056 13.56,7.75 C14.7651119,7.20875465 15.5889335,6.06455798 15.72,4.75 Z" fill="#727272"></path>
                        <path d="M13.53,1.69 C16.44,3.37 16.45,6.09 13.53,7.78 C10.2280103,9.45973056 6.32198975,9.45973056 3.02,7.78 C0.1,6.09 0.09,3.37 3.02,1.69 C6.32276703,0.0135148503 10.227233,0.0135148503 13.53,1.69 Z" fill="#9B9B9B"></path>
                    </g>
                    <g transform="translate(40.000000, 41.000000)">
                        <path d="M15.11,4.89 L15.11,8.8 C14.9789335,10.114558 14.1551119,11.2587546 12.95,11.8 C9.64801025,13.4797306 5.74198975,13.4797306 2.44,11.8 C1.20447421,11.2510083 0.362750067,10.0764205 0.24,8.73 L0.24,4.82 C0.362750067,6.16642053 1.20447421,7.34100832 2.44,7.89 C5.74198975,9.56973056 9.64801025,9.56973056 12.95,7.89 C14.1551119,7.34875465 14.9789335,6.20455798 15.11,4.89 Z" fill="#727272"></path>
                        <path d="M12.92,1.83 C15.83,3.51 15.85,6.23 12.92,7.92 C9.61801025,9.59973056 5.71198975,9.59973056 2.41,7.92 C-0.51,6.23 -0.52,3.51 2.41,1.83 C5.71042101,0.143738448 9.61957899,0.143738448 12.92,1.83 Z" fill="#9B9B9B"></path>
                    </g>
                    <g transform="translate(9.000000, 23.000000)">
                        <path d="M15.76,4.75 L15.76,8.66 C15.6289335,9.97455798 14.8051119,11.1187546 13.6,11.66 C10.2980103,13.3397306 6.39198975,13.3397306 3.09,11.66 C1.85447421,11.1110083 1.01275007,9.93642053 0.89,8.59 L0.89,4.68 C1.01275007,6.02642053 1.85447421,7.20100832 3.09,7.75 C6.39198975,9.42973056 10.2980103,9.42973056 13.6,7.75 C14.8051119,7.20875465 15.6289335,6.06455798 15.76,4.75 Z" fill="#727272"></path>
                        <path d="M13.57,1.69 C16.48,3.37 16.5,6.09 13.57,7.78 C10.2680103,9.45973056 6.36198975,9.45973056 3.06,7.78 C0.15,6.09 0.13,3.37 3.06,1.69 C6.36276703,0.0135148503 10.267233,0.0135148503 13.57,1.69 Z" fill="#9B9B9B"></path>
                    </g>
                    <g transform="translate(40.000000, 7.000000)">
                        <path d="M15.11,4.89 L15.11,8.8 C14.982976,10.1160838 14.1578411,11.2621045 12.95,11.8 C9.64801025,13.4797306 5.74198975,13.4797306 2.44,11.8 C1.20601157,11.254434 0.364153766,10.0834863 0.24,8.74 L0.24,4.82 C0.362750067,6.16642053 1.20447421,7.34100832 2.44,7.89 C5.74198975,9.56973056 9.64801025,9.56973056 12.95,7.89 C14.1551119,7.34875465 14.9789335,6.20455798 15.11,4.89 Z" fill="#727272"></path>
                        <path d="M12.92,1.82 C15.83,3.5 15.85,6.23 12.92,7.91 C9.61801025,9.58973056 5.71198975,9.58973056 2.41,7.91 C-0.51,6.23 -0.52,3.5 2.41,1.82 C5.71276703,0.14351485 9.61723297,0.14351485 12.92,1.82 Z" fill="#9B9B9B"></path>
                    </g>
                    <g transform="translate(29.000000, 0.000000)">
                        <path d="M36.45,10.78 L36.39,29.49 C36.39,32.11 34.66,34.72 31.22,36.72 C24.3,40.72 13.06,40.72 6.1,36.72 C2.58,34.72 0.83,32.04 0.84,29.38 L0.839957387,10.67 C0.84,13.33 2.59,15.99 6.1,18.01 C13.1,22.01 24.31,22.01 31.22,18.01 C34.72,16 36.44,13.39 36.45,10.78 Z" fill="#373737"></path>
                        <path d="M31.2,3.45 C38.2,7.45 38.2,13.99 31.27,18.01 C24.34,22.03 13.11,22.01 6.15,18.01 C-0.81,14.01 -0.85,7.47 6.05,3.45 C12.95,-0.57 24.23,-0.58 31.2,3.45 Z" fill="#7A7A7A"></path>
                    </g>
                </g>
                <g transform="translate(329.000000, 111.000000)" id="Shape">
                    <polygon fill="#383838" points="0.44 122.47 0.32 166.87 57.23 199.73 266.82 77.94 266.94 33.53 210.03 0.67"></polygon>
                    <g>
                        <polygon fill="#545454" points="266.94 33.53 57.36 155.33 0.44 122.47 210.03 0.67"></polygon>
                        <polygon fill="#424242" points="266.94 33.53 266.82 77.94 57.23 199.73 57.36 155.33"></polygon>
                        <polygon fill="#383838" points="57.36 155.33 57.23 199.73 0.32 166.87 0.44 122.47"></polygon>
                    </g>
                </g>
                <g transform="translate(316.000000, 287.000000)" id="Shape">
                    <g transform="translate(0.000000, 24.000000)">
                        <polygon fill="#515151" points="0.62 47.36 0.59 58.73 40.98 82.05 121.96 34.98 122 23.62 81.61 0.3"></polygon>
                        <g>
                            <polygon fill="#696969" points="122 23.62 41.01 70.68 0.62 47.36 81.61 0.3"></polygon>
                            <polygon fill="#515151" points="122 23.62 121.96 34.98 40.98 82.05 41.01 70.68"></polygon>
                            <polygon fill="#4C4C4C" points="41.01 70.68 40.98 82.05 0.59 58.73 0.62 47.36"></polygon>
                        </g>
                    </g>
                    <g transform="translate(15.000000, 0.000000)">
                        <g transform="translate(42.000000, 0.000000)">
                            <path d="M49.9,15.08 L49.81,46.55 C49.81,50.19 47.4,53.82 42.62,56.6 C33.02,62.18 17.39,62.18 7.7,56.6 C2.84,53.8 0.41,50.11 0.42,46.43 L0.51,14.95 C0.51,18.64 2.93,22.32 7.79,25.13 C17.48,30.72 33.11,30.72 42.71,25.13 C47.49,22.35 49.89,18.71 49.9,15.08 Z" fill="#AFAFAF"></path>
                            <path d="M42.6,4.89 C52.28,10.48 52.34,19.53 42.71,25.12 C33.08,30.71 17.48,30.7 7.79,25.12 C-1.9,19.54 -1.92,10.49 7.68,4.91 C17.28,-0.67 32.93,-0.69 42.6,4.89 Z" fill="#DBDBDB"></path>
                        </g>
                        <g transform="translate(0.000000, 24.000000)">
                            <path d="M50.16,15 L50.07,46.47 C50.07,50.11 47.67,53.74 42.89,56.47 C33.29,62.05 17.66,62.05 7.97,56.47 C3.11,53.66 0.68,49.97 0.69,46.29 L0.78,14.82 C0.78,18.5 3.2,22.19 8.06,24.99 C17.75,30.59 33.37,30.59 42.98,24.99 C47.76,22.3 50.15,18.67 50.16,15 Z" fill="#AFAFAF"></path>
                            <path d="M42.86,4.84 C52.55,10.43 52.6,19.48 42.98,25.08 C33.36,30.68 17.75,30.66 8.06,25.08 C-1.63,19.5 -1.66,10.45 7.95,4.87 C17.56,-0.71 33.2,-0.74 42.86,4.84 Z" fill="#DBDBDB"></path>
                        </g>
                    </g>
                </g>
                <g transform="translate(640.000000, 220.000000)" id="Shape">
                    <path d="M8.14,25.67 C18.14,31.45 34.31,31.45 44.25,25.67 C54.19,19.89 54.09,10.56 44.09,4.78 C34.09,-1 17.96,-0.97 8.09,4.78 C-1.78,10.53 -1.83,19.92 8.14,25.67 Z" fill="#F98732"></path>
                    <path d="M14.28,22.11 C20.87,25.92 31.52,25.92 38.06,22.11 C44.6,18.3 44.55,12.11 37.96,8.35 C31.37,4.59 20.75,4.56 14.23,8.35 C7.71,12.14 7.72,18.32 14.28,22.11 Z" fill="#FFFFFF"></path>
                </g>
                <g transform="translate(368.000000, 379.000000)" id="Shape">
                    <path d="M7.73,25.9 C17.73,31.68 33.9,31.68 43.83,25.9 C53.76,20.12 53.68,10.79 43.68,5.01 C33.68,-0.77 17.55,-0.74 7.68,5.01 C-2.19,10.76 -2.24,20.15 7.73,25.9 Z" fill="#F98732"></path>
                    <path d="M13.87,22.34 C20.46,26.14 31.11,26.14 37.65,22.34 C44.19,18.54 44.14,12.34 37.55,8.58 C30.96,4.82 20.34,4.79 13.82,8.58 C7.3,12.37 7.3,18.55 13.87,22.34 Z" fill="#FFFFFF"></path>
                </g>
                <polyline id="Shape" fill="#363636" points="430.62 377.96 446.23 386.97 568.27 316.04 568.49 240.25 552.88 231.24"></polyline>
                <g transform="translate(78.000000, 0.000000)" id="Shape">
                    <g transform="translate(167.000000, 0.000000)">
                        <polygon fill="#363636" points="1.01 71.43 0.8 147.21 16.41 156.22 138.44 85.31 138.65 9.53 123.04 0.51"></polygon>
                        <polygon fill="#191919" points="130.49 9.25 123.29 13.43 116.08 9.26 123.28 5.08"></polygon>
                        <polygon fill="#191919" points="115.22 18.12 108.05 22.28 100.84 18.12 108 13.96"></polygon>
                        <polygon fill="#191919" points="99.97 26.98 92.78 31.16 85.57 27 92.76 22.82"></polygon>
                        <polygon fill="#191919" points="84.7 35.85 77.54 40.02 70.33 35.85 77.49 31.69"></polygon>
                        <polygon fill="#191919" points="69.46 44.71 62.26 48.89 55.05 44.73 62.25 40.55"></polygon>
                        <polygon fill="#191919" points="54.22 53.57 47.02 57.75 39.81 53.59 47 49.41"></polygon>
                        <polygon fill="#191919" points="23.7 71.3 16.51 75.48 9.3 71.32 16.49 67.14"></polygon>
                        <path d="M123,0.51 L138.61,9.51 L16.61,80.42 L1.01,71.42 L123,0.51 Z M16.47,75.51 L23.66,71.33 L16.45,67.17 L9.26,71.35 L16.47,75.51 Z M123.25,13.46 L130.45,9.28 L123.24,5.11 L116.04,9.29 L123.25,13.46 Z M92.74,31.19 L100,27 L92.79,22.84 L85.57,27 L92.78,31.16 L92.74,31.19 Z M62.26,48.89 L69.46,44.71 L62.25,40.55 L55.05,44.73 L62.26,48.89 Z M47,57.75 L54.2,53.57 L47,49.41 L39.81,53.59 L47.02,57.75 L47,57.75 Z M31.75,66.63 L38.94,62.45 L31.73,58.28 L24.54,62.46 L31.75,66.63 Z M108.05,22.28 L115.22,18.12 L108,14 L100.84,18.16 L108.05,22.32 L108.05,22.28 Z M77.54,40 L84.7,35.83 L77.49,31.67 L70.33,35.83 L77.54,40 Z" fill="#7A7A7A"></path>
                        <polygon fill="#191919" points="38.94 62.44 31.75 66.63 24.54 62.46 31.73 58.28"></polygon>
                        <polygon fill="#363636" points="16.62 80.44 16.41 156.22 0.8 147.21 1.01 71.43"></polygon>
                        <polygon fill="#3E3E3E" points="138.65 9.53 138.44 85.31 16.41 156.22 16.62 80.44"></polygon>
                    </g>
                    <g transform="translate(0.000000, 80.000000)">
                        <polygon fill="#363636" points="168.02 85.16 16.22 173.38 0.61 164.36 0.82 88.59 152.63 0.37 168.24 9.38"></polygon>
                        <polygon fill="#191919" points="159.92 9.19 152.73 13.37 145.52 9.21 152.71 5.03"></polygon>
                        <path d="M152.63,0.37 L168.23,9.37 L16.43,97.6 L0.82,88.6 L152.63,0.37 Z M16.31,92.65 L23.51,88.47 L16.3,84.3 L9.1,88.48 L16.31,92.65 Z M107.86,39.45 L115.05,35.27 L107.84,31.1 L100.64,35.28 L107.86,39.45 Z M77.34,57.18 L84.54,53 L77.32,48.84 L70.13,53 L77.34,57.16 L77.34,57.18 Z M46.83,74.89 L54.02,70.71 L46.81,66.55 L39.62,70.73 L46.83,74.89 Z M152.73,13.35 L159.92,9.17 L152.71,5 L145.52,9.18 L152.73,13.34 L152.73,13.35 Z M62.1,66 L69.26,61.83 L62.05,57.67 L54.89,61.84 L62.1,66 Z M31.58,83.73 L38.75,79.57 L31.54,75.4 L24.37,79.57 L31.58,83.73 Z M137.49,22.19 L144.65,18.03 L137.44,13.86 L130.27,18.03 L137.49,22.19 Z M92.61,48.27 L99.78,44.1 L92.57,40 L85.4,44.16 L92.61,48.33 L92.61,48.27 Z M123.13,30.59 L130.29,26.43 L123.08,22.27 L115.92,26.43 L123.13,30.59 Z" fill="#7A7A7A"></path>
                        <polygon fill="#191919" points="144.65 18.06 137.49 22.23 130.27 18.06 137.44 13.9"></polygon>
                        <polygon fill="#191919" points="130.29 26.41 123.13 30.57 115.92 26.41 123.08 22.25"></polygon>
                        <polygon fill="#191919" points="115.05 35.27 107.86 39.45 100.64 35.28 107.84 31.1"></polygon>
                        <polygon fill="#191919" points="99.78 44.14 92.61 48.31 85.4 44.14 92.57 39.98"></polygon>
                        <polygon fill="#191919" points="84.53 53 77.34 57.18 70.13 53.02 77.32 48.84"></polygon>
                        <polygon fill="#191919" points="69.26 61.88 62.1 66.04 54.89 61.88 62.05 57.71"></polygon>
                        <polygon fill="#191919" points="54.02 70.73 46.83 74.91 39.62 70.75 46.81 66.57"></polygon>
                        <polygon fill="#191919" points="38.75 79.61 31.59 83.77 24.37 79.61 31.54 75.44"></polygon>
                        <polygon fill="#191919" points="23.51 88.47 16.31 92.65 9.1 88.48 16.3 84.3"></polygon>
                        <polygon fill="#363636" points="16.43 97.6 16.22 173.38 0.61 164.36 0.82 88.59"></polygon>
                        <polygon fill="#3E3E3E" points="168.24 9.38 168.02 85.16 16.22 173.38 16.43 97.6"></polygon>
                    </g>
                    <g transform="translate(352.000000, 231.000000)">
                        <polygon fill="#363636" points="0.83 71.18 0.62 146.96 16.23 155.97 138.27 85.04 138.48 9.26 122.88 0.24"></polygon>
                        <polygon fill="#191919" points="115.05 17.85 107.89 22.02 100.67 17.85 107.84 13.69"></polygon>
                        <polygon fill="#191919" points="99.81 26.71 92.61 30.89 85.4 26.73 92.6 22.55"></polygon>
                        <polygon fill="#191919" points="84.54 35.59 77.37 39.75 70.16 35.59 77.33 31.42"></polygon>
                        <polygon fill="#191919" points="69.29 44.44 62.1 48.62 54.89 44.46 62.08 40.28"></polygon>
                        <polygon fill="#191919" points="54.02 53.32 46.86 57.48 39.65 53.32 46.81 49.15"></polygon>
                        <path d="M122.88,0.24 L138.49,9.24 L16.43,80.17 L0.82,71.17 L122.88,0.24 Z M62.1,48.62 L69.29,44.44 L62.08,40.28 L54.89,44.46 L62.1,48.62 Z M31.59,66.36 L38.78,62.18 L31.57,58.01 L24.37,62.19 L31.59,66.36 Z M123.13,13.16 L130.32,8.98 L123.11,4.81 L115.92,8.99 L123.13,13.16 Z M92.61,30.89 L99.81,26.71 L92.6,22.55 L85.4,26.73 L92.61,30.89 Z M16.34,75.22 L23.51,71.05 L16.3,66.89 L9.13,71.05 L16.34,75.22 Z M46.86,57.48 L54.02,53.32 L46.81,49.16 L39.65,53.32 L46.86,57.48 Z M107.86,22.02 L115.02,17.85 L107.81,13.69 L100.65,17.85 L107.86,22.02 Z M77.34,39.75 L84.51,35.59 L77.3,31.42 L70.13,35.59 L77.34,39.75 Z" fill="#7A7A7A"></path>
                        <polygon fill="#191919" points="130.32 8.98 123.13 13.16 115.92 9 123.11 4.81"></polygon>
                        <polygon fill="#191919" points="38.78 62.18 31.59 66.36 24.38 62.19 31.57 58.01"></polygon>
                        <polygon fill="#191919" points="23.51 71.05 16.34 75.22 9.13 71.05 16.3 66.89"></polygon>
                        <polygon fill="#3E3E3E" points="138.48 9.26 138.27 85.04 16.21 155.97 16.43 80.2"></polygon>
                        <polygon fill="#363636" points="16.44 80.19 16.23 155.97 0.62 146.96 0.83 71.18"></polygon>
                    </g>
                    <g transform="translate(490.000000, 168.000000)">
                        <polygon fill="#363636" points="0.92 53.93 0.7 129.7 16.31 138.72 107.47 85.74 107.69 9.96 92.08 0.94"></polygon>
                        <polygon fill="#191919" points="99.87 9.48 92.71 13.64 85.5 9.48 92.66 5.31"></polygon>
                        <polygon fill="#191919" points="84.63 18.33 77.44 22.51 70.23 18.35 77.42 14.17"></polygon>
                        <polygon fill="#191919" points="54.12 36.07 46.92 40.25 39.71 36.08 46.91 31.9"></polygon>
                        <path d="M92.08,0.94 L107.69,9.94 L16.53,62.94 L0.92,53.94 L92.08,0.94 Z M16.41,57.94 L23.6,53.76 L16.39,49.6 L9.2,53.78 L16.41,57.94 Z M77.41,22.47 L84.6,18.29 L77.39,14.13 L70.2,18.31 L77.41,22.47 Z M46.89,40.21 L54.09,36.03 L46.88,31.86 L39.68,36.04 L46.89,40.21 Z M62.17,31.33 L69.33,27.17 L62.12,23.01 L54.95,27.17 L62.17,31.33 Z M92.68,13.6 L99.84,9.44 L92.63,5.27 L85.47,9.44 L92.68,13.6 Z M31.68,49.06 L38.85,44.9 L31.63,40.74 L24.47,44.9 L31.68,49.06 Z" fill="#7A7A7A"></path>
                        <polygon fill="#191919" points="69.36 27.21 62.2 31.37 54.98 27.21 62.15 23.05"></polygon>
                        <polygon fill="#191919" points="38.85 44.94 31.68 49.11 24.47 44.94 31.63 40.78"></polygon>
                        <polygon fill="#191919" points="23.6 53.8 16.41 57.98 9.2 53.82 16.39 49.64"></polygon>
                        <polygon fill="#363636" points="16.53 62.94 16.31 138.72 0.7 129.7 0.92 53.93"></polygon>
                        <polygon fill="#3E3E3E" points="107.69 9.96 107.47 85.74 16.31 138.72 16.53 62.94"></polygon>
                    </g>
                </g>
                <g transform="translate(127.000000, 176.000000)" id="Shape">
                    <g transform="translate(38.000000, 0.000000)">
                        <g transform="translate(0.000000, 20.000000)">
                            <polygon fill="#707070" points="0.98 11.12 45.42 36.95 64.55 25.9 20.11 0.08"></polygon>
                            <polygon fill="#565656" points="0.98 11.12 1 18.25 45.44 44.07 45.42 36.95"></polygon>
                            <polygon fill="#505050" points="45.42 36.95 45.44 44.07 64.57 33.03 64.55 25.9"></polygon>
                        </g>
                        <g transform="translate(17.000000, 0.000000)">
                            <g transform="translate(18.000000, 11.000000)">
                                <path d="M0.83,4.23 L0.92,33.8 C1.03938574,35.0112453 1.80446387,36.0632277 2.92,36.55 C5.92066681,38.0897656 9.47933319,38.0897656 12.48,36.55 C13.6016774,36.0495248 14.3662226,34.9829842 14.48,33.76 L14.4,4.19 C14.2862226,5.41298416 13.5216774,6.47952481 12.4,6.98 C9.39933319,8.51976561 5.84066681,8.51976561 2.84,6.98 C1.72331703,6.49261444 0.955372185,5.44194363 0.83,4.23 Z" fill="#E2A966"></path>
                                <path d="M2.83,1.44 C0.17,2.98 0.18,5.44 2.83,6.98 C5.83066681,8.51976561 9.38933319,8.51976561 12.39,6.98 C15.03,5.45 15.07,2.98 12.39,1.44 C9.38463568,-0.0801975324 5.83536432,-0.0801975324 2.83,1.44 Z" fill="#FFE180"></path>
                            </g>
                            <g>
                                <path d="M0.16,4.36 L0.24,33.93 C0.361435717,35.1404644 1.12583839,36.1915181 2.24,36.68 C5.24066681,38.2197656 8.79933319,38.2197656 11.8,36.68 C12.9216774,36.1795248 13.6862226,35.1129842 13.8,33.89 L13.71,4.32 C13.6045568,5.54607945 12.837285,6.61642363 11.71,7.11 C8.71283384,8.64965215 5.15716616,8.64965215 2.16,7.11 C1.04446387,6.62322772 0.279385736,5.57124529 0.16,4.36 Z" fill="#E2A966"></path>
                                <path d="M2.16,1.57 C-0.51,3.11 -0.5,5.57 2.16,7.11 C5.15716616,8.64965215 8.71283384,8.64965215 11.71,7.11 C14.36,5.58 14.39,3.11 11.71,1.57 C8.70735508,0.0531724401 5.16264492,0.0531724401 2.16,1.57 Z" fill="#FFE180"></path>
                            </g>
                        </g>
                    </g>
                    <g transform="translate(19.000000, 11.000000)">
                        <g transform="translate(0.000000, 19.000000)">
                            <polygon fill="#707070" points="0.85 12 45.29 37.82 64.42 26.78 19.98 0.95"></polygon>
                            <polygon fill="#565656" points="0.85 12 0.87 19.12 45.31 44.94 45.29 37.82"></polygon>
                            <polygon fill="#505050" points="45.29 37.82 45.31 44.94 64.44 33.9 64.42 26.78"></polygon>
                        </g>
                        <g transform="translate(17.000000, 0.000000)">
                            <g transform="translate(18.000000, 11.000000)">
                                <path d="M0.7,4.1 L0.79,33.67 C0.909385736,34.8812453 1.67446387,35.9332277 2.79,36.42 C5.79066681,37.9597656 9.34933319,37.9597656 12.35,36.42 C13.4730655,35.921228 14.2382813,34.8537518 14.35,33.63 L14.27,4.06 C14.1562226,5.28298416 13.3916774,6.34952481 12.27,6.85 C9.26933319,8.38976561 5.71066681,8.38976561 2.71,6.85 C1.58918977,6.36777848 0.819198883,5.31430836 0.7,4.1 Z" fill="#E2A966"></path>
                                <path d="M2.7,1.31 C0.04,2.85 0.04,5.31 2.7,6.85 C5.70066681,8.38976561 9.25933319,8.38976561 12.26,6.85 C14.9,5.32 14.93,2.85 12.26,1.31 C9.25463568,-0.210197532 5.70536432,-0.210197532 2.7,1.31 Z" fill="#FFE180"></path>
                            </g>
                            <g>
                                <path d="M0,4.23 L0.08,33.8 C0.197319247,35.0120304 0.963080245,36.0649518 2.08,36.55 C5.08066681,38.0897656 8.63933319,38.0897656 11.64,36.55 C12.7616774,36.0495248 13.5262226,34.9829842 13.64,33.76 L13.55,4.19 C13.4362226,5.41298416 12.6716774,6.47952481 11.55,6.98 C8.54933319,8.51976561 4.99066681,8.51976561 1.99,6.98 C0.879725499,6.48872662 0.119533293,5.43820975 0,4.23 Z" fill="#E2A966"></path>
                                <path d="M2,1.44 C-0.67,2.98 -0.66,5.44 2,6.98 C5.00066681,8.51976561 8.55933319,8.51976561 11.56,6.98 C14.2,5.45 14.24,2.98 11.56,1.44 C8.55540565,-0.0834221695 5.00459435,-0.0834221695 2,1.44 Z" fill="#FFE180"></path>
                            </g>
                        </g>
                    </g>
                    <g transform="translate(0.000000, 22.000000)">
                        <g transform="translate(0.000000, 19.000000)">
                            <polygon fill="#707070" points="0.72 11.87 45.16 37.69 64.29 26.65 19.85 0.82"></polygon>
                            <polygon fill="#565656" points="0.72 11.87 0.74 18.99 45.18 44.81 45.16 37.69"></polygon>
                            <polygon fill="#505050" points="45.16 37.69 45.18 44.81 64.31 33.77 64.29 26.65"></polygon>
                        </g>
                        <g transform="translate(16.000000, 0.000000)">
                            <g transform="translate(19.000000, 11.000000)">
                                <path d="M0.57,4 L0.65,33.57 C0.769385736,34.7812453 1.53446387,35.8332277 2.65,36.32 C5.65066681,37.8597656 9.20933319,37.8597656 12.21,36.32 C13.3315282,35.8246541 14.0968779,34.760818 14.21,33.54 L14.12,3.96 C14.0124482,5.18529945 13.2458692,6.25467718 12.12,6.75 C9.11933319,8.28976561 5.56066681,8.28976561 2.56,6.75 C1.44696977,6.26213709 0.685432234,5.20976109 0.57,4 Z" fill="#E2A966"></path>
                                <path d="M2.57,1.18 C-0.1,2.72 -0.09,5.18 2.57,6.72 C5.57066681,8.25976561 9.12933319,8.25976561 12.13,6.72 C14.77,5.19 14.8,2.72 12.13,1.18 C9.12463568,-0.340197532 5.57536432,-0.340197532 2.57,1.18 Z" fill="#FFE180"></path>
                            </g>
                            <g>
                                <path d="M0.9,4.1 L0.98,33.67 C1.09731925,34.8820304 1.86308024,35.9349518 2.98,36.42 C5.98066681,37.9597656 9.53933319,37.9597656 12.54,36.42 C13.667285,35.9264236 14.4345568,34.8560795 14.54,33.63 L14.46,4.06 C14.3462226,5.28298416 13.5816774,6.34952481 12.46,6.85 C9.45933319,8.38976561 5.90066681,8.38976561 2.9,6.85 C1.78446387,6.36322772 1.01938574,5.31124529 0.9,4.1 Z" fill="#E2A966"></path>
                                <path d="M2.89,1.31 C0.23,2.85 0.24,5.31 2.89,6.85 C5.89066681,8.38976561 9.44933319,8.38976561 12.45,6.85 C15.09,5.32 15.13,2.85 12.45,1.31 C9.44463568,-0.210197532 5.89536432,-0.210197532 2.89,1.31 Z" fill="#FFE180"></path>
                            </g>
                        </g>
                    </g>
                </g>
                <g transform="translate(28.000000, 219.000000)" id="Shape">
                    <polygon fill="#C6C6C6" points="0.26 56.8 0.04 132.57 72.33 174.31 169.86 117.63 170.08 41.86 97.79 0.12"></polygon>
                    <g>
                        <polygon fill="#C6C6C6" points="170.08 41.86 72.55 98.53 0.26 56.8 97.79 0.12"></polygon>
                        <polygon fill="#D6D6D6" points="170.08 41.86 142.9 57.55 70.61 15.81 97.79 0.12"></polygon>
                        <polygon fill="#ABABAB" points="170.08 41.86 169.86 117.63 72.33 174.31 72.55 98.53"></polygon>
                        <polygon fill="#BCBCBC" points="170.08 41.86 169.86 117.63 142.81 133.32 143.02 57.55"></polygon>
                        <polygon fill="#777777" points="72.55 98.53 72.33 174.31 0.04 132.57 0.26 56.8"></polygon>
                    </g>
                    <g transform="translate(9.000000, 84.000000)">
                        <polygon fill="#5B5B5B" points="39.49 14.38 54.48 41.25 54.39 73.74 0.11 42.41 0.2 9.91 15.27 0.4"></polygon>
                        <g transform="translate(9.000000, 6.000000)">
                            <polygon fill="#8E8E8E" points="35.6 30.6 35.55 50.21 0.83 30.16 0.88 10.55"></polygon>
                            <polygon fill="#989898" points="35.55 50.21 45.45 44.45 45.48 35.25 41.1 27.4 35.6 30.6"></polygon>
                            <polygon fill="#C5C5C5" points="30.43 8.38 17.45 0.89 0.83 10.55 35.55 30.6 41.05 27.4"></polygon>
                        </g>
                    </g>
                </g>
                <g transform="translate(214.000000, 334.000000)" id="Shape">
                    <polygon fill="#383838" points="133.29 94.62 133.48 30.21 82.61 0.84 19.4 37.57 16.82 36.08 0.28 45.7 0.1 110.11 55.59 142.14 72.13 132.53 72.32 130.05"></polygon>
                    <g>
                        <polygon fill="#585858" points="133.48 30.21 133.29 94.62 70.08 131.35 70.27 66.94"></polygon>
                        <polygon fill="#626262" points="133.48 30.21 70.27 66.94 72.32 68.12 55.77 77.73 0.28 45.7 16.82 36.08 19.4 37.57 82.61 0.84"></polygon>
                        <polygon fill="#585858" points="72.32 68.12 72.13 132.53 55.59 142.14 55.77 77.73"></polygon>
                        <polygon fill="#3D3D3D" points="55.77 77.73 55.59 142.14 0.1 110.11 0.28 45.7"></polygon>
                    </g>
                </g>
                <g transform="translate(222.000000, 404.000000)" id="Shape">
                    <path d="M0.41,13.76 C0.47,25.24 8.59,39.1 18.53,44.76 C28.47,50.42 36.47,45.64 36.41,34.16 C36.35,22.68 28.23,8.82 18.29,3.16 C8.35,-2.5 0.34,2.28 0.41,13.76 Z" fill="#626262"></path>
                    <path d="M36.17,37.27 C36.3311049,36.180874 36.4079994,35.0809479 36.4,33.98 C36.33,22.5 28.22,8.64 18.28,2.98 C17.4349303,2.49413171 16.555994,2.06970238 15.65,1.71 L15.71,1.71 C15.557687,2.78989159 15.4841595,3.87943547 15.49,4.97 C15.56,16.45 23.67,30.32 33.61,35.97 C34.508741,36.4856195 35.4446674,36.9335272 36.41,37.31" fill="#373737"></path>
                </g>
                <g transform="translate(273.000000, 96.000000)" fill="#9AB2AF" id="Shape">
                    <polygon points="27.28 64.56 16.23 70.98 0.25 61.76 11.3 55.34"></polygon>
                    <polygon points="40.8 56.74 29.74 63.16 13.77 53.94 24.82 47.51"></polygon>
                    <polygon points="54.31 48.91 43.26 55.34 27.28 46.11 38.34 39.69"></polygon>
                    <polygon points="67.83 41.09 56.77 47.51 40.8 38.29 51.85 31.86"></polygon>
                    <polygon points="81.34 33.26 70.29 39.69 54.31 30.46 65.37 24.04"></polygon>
                    <polygon points="94.86 25.44 83.8 31.86 67.83 22.64 78.88 16.22"></polygon>
                    <polygon points="108.37 17.62 97.32 24.04 81.34 14.82 92.4 8.39"></polygon>
                    <polygon points="121.89 9.79 110.83 16.22 94.86 6.99 105.91 0.57"></polygon>
                </g>
                <g transform="translate(241.000000, 184.000000)" id="Shape">
                    <polygon fill="#444444" points="46.29 21.74 37.77 26.69 22.81 18.06 31.33 13.11"></polygon>
                    <g transform="translate(35.000000, 20.000000)">
                        <polygon fill="#C1C1C1" points="34.45 6.67 10.41 20.65 0.06 14.67 24.1 0.7"></polygon>
                        <g transform="translate(7.000000, 0.000000)" fill="#FFE000">
                            <polygon points="20.93 6.69 10.64 12.67 0.3 6.7 10.59 0.72"></polygon>
                            <polygon points="20.93 6.69 20.92 10.55 10.63 16.52 10.64 12.67"></polygon>
                            <polygon points="10.64 12.67 10.63 16.52 0.29 10.55 0.3 6.7"></polygon>
                        </g>
                    </g>
                    <g>
                        <polygon fill="#C1C1C1" points="35.11 6.84 11.07 20.81 0.72 14.84 24.76 0.87"></polygon>
                        <g transform="translate(7.000000, 0.000000)" fill="#FFE000">
                            <polygon points="21.58 6.86 11.3 12.84 0.96 6.87 11.24 0.89"></polygon>
                            <polygon points="21.58 6.86 21.57 10.71 11.29 16.69 11.3 12.84"></polygon>
                            <polygon points="11.3 12.84 11.29 16.69 0.95 10.72 0.96 6.87"></polygon>
                        </g>
                    </g>
                    <g transform="translate(50.000000, 29.000000)">
                        <polygon fill="#C1C1C1" points="34.87 6.55 10.82 20.52 0.47 14.55 24.52 0.58"></polygon>
                        <g transform="translate(7.000000, 0.000000)" fill="#FFE000">
                            <polygon points="21.34 6.57 11.06 12.55 0.72 6.58 11 0.6"></polygon>
                            <polygon points="21.34 6.57 21.33 10.43 11.05 16.4 11.06 12.55"></polygon>
                            <polygon points="11.06 12.55 11.05 16.4 0.71 10.43 0.72 6.58"></polygon>
                        </g>
                    </g>
                </g>
                <g transform="translate(172.000000, 351.000000)" id="Shape">
                    <polygon fill="#E2A966" points="48.17 17.26 30.13 27.75 0.46 10.62 18.5 0.13"></polygon>
                    <polygon fill="#D39C66" points="48.17 17.26 48.16 21.05 30.12 31.54 30.13 27.75"></polygon>
                    <polyline fill="#D39C66" points="0.45 14.4 0.46 10.62 30.13 27.75 30.12 31.54"></polyline>
                </g>
                <g transform="translate(390.000000, 77.000000)" id="Shape">
                    <path d="M7.85,25.88 C17.85,31.65 34.02,31.65 43.96,25.88 C53.9,20.11 53.8,10.76 43.8,4.98 C33.8,-0.8 17.67,-0.77 7.8,4.98 C-2.07,10.73 -2.11,20.12 7.85,25.88 Z" fill="#F98732"></path>
                    <path d="M14,22.31 C20.59,26.12 31.24,26.12 37.78,22.31 C44.32,18.5 44.27,12.36 37.68,8.55 C31.09,4.74 20.47,4.76 13.95,8.55 C7.43,12.34 7.43,18.52 14,22.31 Z" fill="#FFFFFF"></path>
                </g>
                <g transform="translate(247.000000, 265.000000)" id="Shape">
                    <path d="M56.14,15.81 L26.94,32.81 C20.94,36.31 11.14,36.31 5.08,32.81 C2.02,31.05 0.49,28.73 0.49,26.42 L0.49,45.49 C0.49,47.8 2.01,50.11 5.07,51.88 C11.13,55.38 20.91,55.38 26.93,51.88 L56.14,34.88 C59.14,33.14 60.64,30.88 60.64,28.57 L60.7,9.51 C60.64,11.79 59.14,14.07 56.14,15.81 Z" fill="#AAAAAA"></path>
                    <path d="M56.09,3.14 C62.15,6.64 62.16,12.31 56.09,15.81 L26.89,32.81 C20.89,36.31 11.09,36.31 5.03,32.81 C-1.03,29.31 -1.08,23.63 4.94,20.13 L34.14,3.13 C40.21,-0.36 50,-0.37 56.09,3.14 Z" fill="#C9C9C9"></path>
                </g>
                <g transform="translate(292.000000, 300.000000)" id="Shape">
                    <polygon fill="#707070" points="0.56 10.48 0.53 21.85 18.34 32.12 36.02 21.84 36.06 10.48 18.25 0.2"></polygon>
                    <g>
                        <polygon fill="#707070" points="36.06 10.48 18.37 20.76 0.56 10.48 18.25 0.2"></polygon>
                        <polygon fill="#565656" points="36.06 10.48 36.02 21.84 18.34 32.12 18.37 20.76"></polygon>
                        <polygon fill="#505050" points="18.37 20.76 18.34 32.12 0.53 21.85 0.56 10.48"></polygon>
                    </g>
                </g>
            </g>
        </g>
    </g>
</svg>