<svg xmlns="http://www.w3.org/2000/svg" xmlns:xlink="http://www.w3.org/1999/xlink" width="1244" height="100" viewBox="0 0 1244 100">
  <defs>
    <clipPath id="clip-path">
      <rect id="Rectangle_34" data-name="Rectangle 34" width="1244" height="100" transform="translate(676 980)" fill="#fff"/>
    </clipPath>
  </defs>
  <g id="Mask_Group_2" data-name="Mask Group 2" transform="translate(-676 -980)" clip-path="url(#clip-path)">
    <g id="Layer_2" data-name="Layer 2" transform="translate(1920.02 1216.204) rotate(180)">
      <g id="Layer_3" data-name="Layer 3" transform="translate(0.02)">
        <g id="_Group_" data-name="&lt;Group&gt;">
          <g id="_Group_2" data-name="&lt;Group&gt;">
            <g id="_Group_3" data-name="&lt;Group&gt;" transform="translate(430.657)">
              <path id="_Path_" data-name="&lt;Path&gt;" d="M605.247,142.66a2.664,2.664,0,1,0,2.012,0V81.914L596.215,70.87V0H594.19V71.71l11.057,11.044Z" transform="translate(-233.324)" fill="#babbbd"/>
              <path id="_Path_2" data-name="&lt;Path&gt;" d="M574.728,216.261a2.731,2.731,0,0,0,1-5.329v-41.75l14.654-14.654V97.62l-9.845-9.831V0h-2.012V88.628l9.845,9.831V153.73l-14.654,14.654v42.629a2.731,2.731,0,0,0,1.012,5.329Z" transform="translate(-240.759)" fill="#babbbd"/>
              <path id="_Path_3" data-name="&lt;Path&gt;" d="M556.1,163.028a2.744,2.744,0,1,0,2.012,0v-7.58l-12.429-12.429V54.445L560.538,39.6V0H558.5V38.765l-14.84,14.84v90.266L556.089,156.3Z" transform="translate(-250.108)" fill="#babbbd"/>
              <path id="_Path_4" data-name="&lt;Path&gt;" d="M532.17,209.294a2.664,2.664,0,1,0,2.012,0v-48.1l-18.57-18.517V47.544l20.715-20.715V0h-2.012V25.99L513.6,46.705v96.807l18.57,18.57Z" transform="translate(-260.092)" fill="#babbbd"/>
              <path id="_Path_5" data-name="&lt;Path&gt;" d="M498.9,193.548a2.664,2.664,0,1,0,2.012,0V41L484.5,24.6V0h-2V25.444l16.4,16.4Z" transform="translate(-270.422)" fill="#babbbd"/>
              <path id="_Path_6" data-name="&lt;Path&gt;" d="M323.3,145.2a2.731,2.731,0,1,0,3.73-2.544V82.713L338.087,71.67V0h-2.025V70.87L325.018,81.914V142.66A2.731,2.731,0,0,0,323.3,145.2Z" transform="translate(-323.3)" fill="#babbbd"/>
              <path id="_Path_7" data-name="&lt;Path&gt;" d="M357.5,210.986a2.664,2.664,0,1,0,2.012,0V168.357L344.862,153.7V98.459l9.845-9.831V0h-2.012V87.789L342.85,97.62v56.909L357.5,169.183Z" transform="translate(-316.806)" fill="#babbbd"/>
              <path id="_Path_8" data-name="&lt;Path&gt;" d="M387.123,143.019l-12.429,12.429v7.58a2.664,2.664,0,1,0,2.012,0v-6.741l12.429-12.429V53.606l-14.84-14.84V0H372.27V39.6l14.853,14.84Z" transform="translate(-307.035)" fill="#babbbd"/>
              <path id="_Path_9" data-name="&lt;Path&gt;" d="M418.645,142.673l-18.57,18.517V209.24a2.664,2.664,0,1,0,2.012,0V162.082l18.583-18.57V46.705L399.942,25.99V0H397.93V26.829l20.715,20.715Z" transform="translate(-298.512)" fill="#babbbd"/>
              <path id="_Path_10" data-name="&lt;Path&gt;" d="M433.794,198.81a2.712,2.712,0,0,0,1.012-5.329V41.843l16.425-16.4V0H449.22V24.6L432.821,41V193.548a2.711,2.711,0,1,0,1,5.329Z" transform="translate(-287.657)" fill="#babbbd"/>
            </g>
            <g id="_Group_4" data-name="&lt;Group&gt;" transform="translate(416.856)">
              <path id="_Path_11" data-name="&lt;Path&gt;" d="M615.1,121.971a4.09,4.09,0,1,0,2.425,0V73.548l-13.814-13.8V0H601.3V60.746L615.1,74.6Z" transform="translate(-217.162)" fill="#babbbd"/>
              <path id="_Path_12" data-name="&lt;Path&gt;" d="M586.184,207.136a4.09,4.09,0,0,0,1.212-7.993V182.091l11.47-11.47V89.6l-9.152-9.152V0H587.29V81.461l9.165,9.125v79.023l-11.47,11.47v18.037a4.09,4.09,0,0,0,1.2,7.993Z" transform="translate(-223.534)" fill="#babbbd"/>
              <path id="_Path_13" data-name="&lt;Path&gt;" d="M563.134,234.311a4.09,4.09,0,0,0,1.212-7.993V165.28l18.237-18.224V108.424L571.86,97.7V0h-2.424V98.712l10.657,10.724v36.607L561.855,164.28v62.025a4.09,4.09,0,0,0,1.212,7.993Z" transform="translate(-231.216)" fill="#babbbd"/>
              <path id="_Path_14" data-name="&lt;Path&gt;" d="M533.634,108.13a4.09,4.09,0,0,0,1.212-7.993V46.412l15.706-15.706V0h-2.411V29.707L532.435,45.413v54.711a4.09,4.09,0,0,0,1.2,7.993Z" transform="translate(-240.988)" fill="#babbbd"/>
              <path id="_Path_15" data-name="&lt;Path&gt;" d="M503.7,179.427a4.09,4.09,0,0,0,1.212-7.993V44.174l18.65-18.65V0h-2.411V24.525l-18.65,18.65V171.421a4.09,4.09,0,0,0,1.212,7.993Z" transform="translate(-250.929)" fill="#babbbd"/>
              <path id="_Path_16" data-name="&lt;Path&gt;" d="M472.152,168.53v59.507a4.1,4.1,0,1,0,2.411,0V169.542l16.279-16.279V46.279l-18.29-18.3V0h-2.424V28.988l18.29,18.29V152.264Z" transform="translate(-261.02)" fill="#babbbd"/>
              <path id="_Path_17" data-name="&lt;Path&gt;" d="M312.94,125.888a4.1,4.1,0,1,0,5.329-3.917V74.6l13.788-13.854V0h-2.411V59.747l-13.814,13.8v48.424A4.116,4.116,0,0,0,312.94,125.888Z" transform="translate(-312.94)" fill="#babbbd"/>
              <path id="_Path_18" data-name="&lt;Path&gt;" d="M345.37,199.129a4.1,4.1,0,1,0,2.411,0V181.092l-11.47-11.47V90.586l9.152-9.139V0h-2.425V80.448L333.9,89.6v81.021l11.47,11.47Z" transform="translate(-305.978)" fill="#babbbd"/>
              <path id="_Path_19" data-name="&lt;Path&gt;" d="M370.127,226.305a4.09,4.09,0,1,0,2.424,0V164.28l-18.237-18.237V109.436l10.724-10.724V0h-2.424V97.713L351.89,108.437v38.632l18.237,18.224Z" transform="translate(-300.003)" fill="#babbbd"/>
              <path id="_Path_20" data-name="&lt;Path&gt;" d="M398.976,100.124a4.1,4.1,0,1,0,2.411,0V45.413L385.681,29.707V0H383.27V30.706l15.706,15.706Z" transform="translate(-289.58)" fill="#babbbd"/>
              <path id="_Path_21" data-name="&lt;Path&gt;" d="M429.65,171.421a4.1,4.1,0,1,0,2.411,0V43.175l-18.65-18.65V0H411V25.524l18.65,18.65Z" transform="translate(-280.37)" fill="#babbbd"/>
              <path id="_Path_22" data-name="&lt;Path&gt;" d="M459.409,228.037a4.1,4.1,0,1,0,2.411,0V168.53l-16.2-16.266V47.278l18.29-18.29V0h-2.424V27.975l-18.357,18.3V153.264l16.279,16.279Z" transform="translate(-269.698)" fill="#babbbd"/>
            </g>
            <g id="_Group_5" data-name="&lt;Group&gt;" transform="translate(847.539)">
              <path id="_Path_23" data-name="&lt;Path&gt;" d="M918.183,142.66a2.744,2.744,0,1,0,2.012,0V81.914L909.151,70.87V0H907.14V71.71l11.043,11.044Z" transform="translate(-546.261)" fill="#babbbd"/>
              <path id="_Path_24" data-name="&lt;Path&gt;" d="M887.655,216.261a2.731,2.731,0,0,0,1.013-5.329V169.183l14.654-14.654V97.62l-9.831-9.831V0h-2.025V88.628l9.845,9.831V153.73l-14.654,14.654v42.629a2.731,2.731,0,0,0,1.012,5.329Z" transform="translate(-553.699)" fill="#babbbd"/>
              <path id="_Path_25" data-name="&lt;Path&gt;" d="M869.029,163.028a2.731,2.731,0,1,0,2.025,0v-7.58l-12.429-12.429V54.445l14.84-14.84V0h-2.012V38.765L856.6,53.606v90.266L869.029,156.3Z" transform="translate(-563.048)" fill="#babbbd"/>
              <path id="_Path_26" data-name="&lt;Path&gt;" d="M845.11,209.294a2.731,2.731,0,1,0,2.025,0v-48.1l-18.57-18.517V47.544l20.7-20.715V0h-2.012V25.99L826.54,46.705v96.807l18.57,18.57Z" transform="translate(-573.032)" fill="#babbbd"/>
              <path id="_Path_27" data-name="&lt;Path&gt;" d="M811.825,193.548a2.731,2.731,0,1,0,2.025,0V41L797.5,24.6V0H795.48V25.444l16.4,16.4Z" transform="translate(-583.349)" fill="#babbbd"/>
              <path id="_Path_28" data-name="&lt;Path&gt;" d="M636.24,145.2a2.731,2.731,0,1,0,3.743-2.544V82.713L651.027,71.67V0h-2.012V70.87L637.958,81.914V142.66a2.758,2.758,0,0,0-1.718,2.544Z" transform="translate(-636.24)" fill="#babbbd"/>
              <path id="_Path_29" data-name="&lt;Path&gt;" d="M670.447,210.986a2.664,2.664,0,1,0,2.012,0V168.357L657.8,153.7V98.459l9.831-9.831V0h-2.012V87.789L655.78,97.62v56.909l14.654,14.654Z" transform="translate(-629.75)" fill="#babbbd"/>
              <path id="_Path_30" data-name="&lt;Path&gt;" d="M700.06,143.019l-12.469,12.429v7.58a2.744,2.744,0,1,0,2.012,0v-6.741l12.429-12.429V53.606l-14.8-14.84V0H685.22V39.6l14.84,14.84Z" transform="translate(-619.971)" fill="#babbbd"/>
              <path id="_Path_31" data-name="&lt;Path&gt;" d="M731.585,142.673l-18.57,18.517V209.24a2.731,2.731,0,1,0,2.025,0V162.082l18.57-18.57V46.705L712.895,25.99V0H710.87V26.829l20.715,20.715Z" transform="translate(-611.452)" fill="#babbbd"/>
              <path id="_Path_32" data-name="&lt;Path&gt;" d="M746.813,198.81a2.711,2.711,0,1,0,1-5.329V41.843l16.319-16.4V0h-2.012V24.6L745.76,41V193.548a2.712,2.712,0,1,0,1.012,5.329Z" transform="translate(-600.596)" fill="#babbbd"/>
            </g>
            <g id="_Group_6" data-name="&lt;Group&gt;" transform="translate(833.752)">
              <path id="_Path_33" data-name="&lt;Path&gt;" d="M928.054,121.971a4.1,4.1,0,1,0,2.411,0V73.548l-13.8-13.8V0H914.24V60.746L928.054,74.6Z" transform="translate(-530.115)" fill="#babbbd"/>
              <path id="_Path_34" data-name="&lt;Path&gt;" d="M899.138,207.136a4.09,4.09,0,0,0,1.212-7.993V182.091l11.47-11.47V89.6l-9.152-9.152V0H900.31V81.461l9.085,9.125v79.023l-11.47,11.47v18.037a4.09,4.09,0,0,0,1.212,7.993Z" transform="translate(-536.487)" fill="#babbbd"/>
              <path id="_Path_35" data-name="&lt;Path&gt;" d="M876.011,234.311a4.09,4.09,0,0,0,1.212-7.993V165.28l18.237-18.224V108.424L884.8,97.7V0h-2.411V98.712l10.657,10.724v36.607L874.825,164.28v62.025a4.09,4.09,0,0,0,1.2,7.993Z" transform="translate(-544.16)" fill="#babbbd"/>
              <path id="_Path_36" data-name="&lt;Path&gt;" d="M846.588,108.13a4.09,4.09,0,0,0,1.212-7.993V46.412l15.706-15.706V0h-2.425V29.707L845.375,45.413v54.711a4.09,4.09,0,0,0,1.212,7.993Z" transform="translate(-553.941)" fill="#babbbd"/>
              <path id="_Path_37" data-name="&lt;Path&gt;" d="M816.658,179.427a4.09,4.09,0,0,0,1.212-7.993V44.174l18.65-18.65V0H834.1V24.525l-18.65,18.65V171.421a4.09,4.09,0,0,0,1.212,7.993Z" transform="translate(-563.882)" fill="#babbbd"/>
              <path id="_Path_38" data-name="&lt;Path&gt;" d="M785.088,168.53v59.507a4.09,4.09,0,1,0,2.424,0V169.542l16.266-16.279V46.279l-18.29-18.3V0h-2.425V28.988l18.3,18.29V152.264Z" transform="translate(-573.969)" fill="#babbbd"/>
              <path id="_Path_39" data-name="&lt;Path&gt;" d="M625.89,125.888a4.09,4.09,0,1,0,5.329-3.917V74.6l13.788-13.854V0h-2.424V59.747l-13.814,13.8v48.424a4.1,4.1,0,0,0-2.877,3.917Z" transform="translate(-625.89)" fill="#babbbd"/>
              <path id="_Path_40" data-name="&lt;Path&gt;" d="M658.31,199.129a4.09,4.09,0,1,0,2.424,0V181.092l-11.47-11.47V90.586l9.152-9.139V0h-2.425V80.448L646.84,89.6v81.021l11.47,11.47Z" transform="translate(-618.931)" fill="#babbbd"/>
              <path id="_Path_41" data-name="&lt;Path&gt;" d="M683.06,226.305a4.1,4.1,0,1,0,2.411,0V164.28l-18.237-18.237V109.436l10.724-10.724V0h-2.411V97.713L664.89,108.437v38.632l18.237,18.224Z" transform="translate(-612.936)" fill="#babbbd"/>
              <path id="_Path_42" data-name="&lt;Path&gt;" d="M711.926,100.124a4.09,4.09,0,1,0,2.424,0V45.413L698.6,29.707V0H696.18V30.706l15.746,15.706Z" transform="translate(-602.543)" fill="#babbbd"/>
              <path id="_Path_43" data-name="&lt;Path&gt;" d="M742.58,171.421a4.09,4.09,0,1,0,2.425,0V43.175l-18.65-18.65V0H723.93V25.524l18.65,18.65Z" transform="translate(-593.326)" fill="#babbbd"/>
              <path id="_Path_44" data-name="&lt;Path&gt;" d="M772.349,228.037a4.09,4.09,0,1,0,2.424,0V168.53l-16.279-16.266V47.278l18.29-18.29V0h-2.411V27.975l-18.3,18.3V153.264l16.279,16.279Z" transform="translate(-582.651)" fill="#babbbd"/>
            </g>
            <g id="_Group_7" data-name="&lt;Group&gt;" transform="translate(13.755)">
              <path id="_Path_45" data-name="&lt;Path&gt;" d="M14.1,142.66a2.744,2.744,0,1,1-2.012,0V81.914L23.127,70.87V0h2.012V71.71L14.1,82.753Z" transform="translate(-10.345)" fill="#babbbd"/>
              <path id="_Path_46" data-name="&lt;Path&gt;" d="M45.566,216.261a2.731,2.731,0,0,1-1.012-5.329v-41.75L29.9,154.529V97.62l9.858-9.831V0h2.025V88.628l-9.845,9.831V153.73l14.654,14.654v42.629a2.731,2.731,0,0,1-1,5.329Z" transform="translate(-3.85)" fill="#babbbd"/>
              <path id="_Path_47" data-name="&lt;Path&gt;" d="M63.753,163.028a2.664,2.664,0,1,1-2.012,0v-7.58L74.17,143.019V54.445L59.33,39.6V0h2.012V38.765l14.867,14.84v90.266L63.766,156.3Z" transform="translate(5.926)" fill="#babbbd"/>
              <path id="_Path_48" data-name="&lt;Path&gt;" d="M89.143,209.294a2.731,2.731,0,1,1-2.025,0v-48.1l18.57-18.57V47.544L85,26.829V0h2V25.99l20.715,20.715v96.807l-18.57,18.57Z" transform="translate(14.452)" fill="#babbbd"/>
              <path id="_Path_49" data-name="&lt;Path&gt;" d="M121.773,193.548a2.731,2.731,0,1,1-2.025,0V41l16.4-16.4V0h2.025V25.444l-16.4,16.4Z" transform="translate(25.423)" fill="#babbbd"/>
              <path id="_Path_50" data-name="&lt;Path&gt;" d="M296.037,145.2a2.731,2.731,0,1,1-3.743-2.544V82.713L281.25,71.67V0h2.012V70.87l11.044,11.044V142.66a2.744,2.744,0,0,1,1.732,2.544Z" transform="translate(79.636)" fill="#babbbd"/>
              <path id="_Path_51" data-name="&lt;Path&gt;" d="M262.735,210.986a2.744,2.744,0,1,1-2.012,0V168.357L275.377,153.7V98.459l-9.831-9.831V0h2.012V87.789l9.831,9.831v56.909l-14.654,14.654Z" transform="translate(72.24)" fill="#babbbd"/>
              <path id="_Path_52" data-name="&lt;Path&gt;" d="M232.735,143.019l12.429,12.429v7.58a2.744,2.744,0,1,1-2.012,0v-6.741L230.71,143.872V53.606l14.853-14.84V0h2.012V39.6l-14.84,14.84Z" transform="translate(62.849)" fill="#babbbd"/>
              <path id="_Path_53" data-name="&lt;Path&gt;" d="M202.675,142.673l18.57,18.517V209.24a2.731,2.731,0,1,1-2.025,0V162.082l-18.57-18.57V46.705L221.365,25.99V0h2.025V26.829L202.675,47.544Z" transform="translate(52.865)" fill="#babbbd"/>
              <path id="_Path_54" data-name="&lt;Path&gt;" d="M186.958,198.81a2.712,2.712,0,0,1-1.012-5.329V41.843l-16.385-16.4V0h2.012V24.6L187.97,41V193.548a2.712,2.712,0,1,1-1.012,5.329Z" transform="translate(42.538)" fill="#babbbd"/>
            </g>
            <g id="_Group_8" data-name="&lt;Group&gt;">
              <path id="_Path_55" data-name="&lt;Path&gt;" d="M5.322,121.971a4.09,4.09,0,1,1-2.425,0V73.548l13.788-13.8V0H19.11V60.746L5.322,74.6Z" transform="translate(-0.02)" fill="#babbbd"/>
              <path id="_Path_56" data-name="&lt;Path&gt;" d="M33.615,207.136a4.09,4.09,0,0,1-1.212-7.993V182.091L21,170.621V89.6l9.152-9.152V0h2.425V81.461l-9.218,9.125v79.023l11.47,11.47v18.037a4.09,4.09,0,0,1-1.212,7.993Z" transform="translate(6.949)" fill="#babbbd"/>
              <path id="_Path_57" data-name="&lt;Path&gt;" d="M58.383,234.311a4.09,4.09,0,0,1-1.212-7.993V165.28L39,147.056V108.424L49.657,97.7V0h2.411V98.712L41.411,109.436v36.607L59.635,164.28v62.025a4.09,4.09,0,0,1-1.2,7.993Z" transform="translate(12.927)" fill="#babbbd"/>
              <path id="_Path_58" data-name="&lt;Path&gt;" d="M87.212,108.13A4.09,4.09,0,0,1,86,100.138V46.412L70.32,30.706V0h2.425V29.707L88.451,45.413v54.711a4.09,4.09,0,0,1-1.212,7.993Z" transform="translate(23.33)" fill="#babbbd"/>
              <path id="_Path_59" data-name="&lt;Path&gt;" d="M117.952,179.427a4.09,4.09,0,0,1-1.212-7.993V44.174L98.09,25.524V0h2.425V24.525l18.65,18.65V171.421a4.09,4.09,0,0,1-1.212,7.993Z" transform="translate(32.554)" fill="#babbbd"/>
              <path id="_Path_60" data-name="&lt;Path&gt;" d="M148.883,168.53v59.507a4.09,4.09,0,1,1-2.425,0V169.542L130.18,153.264V46.279l18.3-18.3V0h2.425V28.988l-18.3,18.29V152.264Z" transform="translate(43.213)" fill="#babbbd"/>
              <path id="_Path_61" data-name="&lt;Path&gt;" d="M307.466,125.888a4.1,4.1,0,1,1-5.329-3.917V74.6L288.35,60.746V0h2.424V59.747l13.814,13.8v48.424a4.1,4.1,0,0,1,2.877,3.917Z" transform="translate(95.749)" fill="#babbbd"/>
              <path id="_Path_62" data-name="&lt;Path&gt;" d="M274.462,199.129a4.09,4.09,0,1,1-2.424,0V181.092l11.47-11.47V90.586l-9.152-9.139V0h2.425V80.448l9.152,9.152v81.021l-11.47,11.47Z" transform="translate(89.375)" fill="#babbbd"/>
              <path id="_Path_63" data-name="&lt;Path&gt;" d="M251.384,226.305a4.1,4.1,0,1,1-2.411,0V164.28L267.2,146.043V109.436L256.539,98.712V0h2.411V97.713l10.724,10.724v38.632l-18.237,18.224Z" transform="translate(81.707)" fill="#babbbd"/>
              <path id="_Path_64" data-name="&lt;Path&gt;" d="M221.912,100.124a4.09,4.09,0,1,1-2.424,0V45.413l15.706-15.706V0h2.424V30.706L221.912,46.412Z" transform="translate(71.92)" fill="#babbbd"/>
              <path id="_Path_65" data-name="&lt;Path&gt;" d="M191.982,171.421a4.09,4.09,0,1,1-2.425,0V43.175l18.65-18.65V0h2.425V25.524l-18.65,18.65Z" transform="translate(61.979)" fill="#babbbd"/>
              <path id="_Path_66" data-name="&lt;Path&gt;" d="M161.622,228.037a4.09,4.09,0,1,1-2.425,0V168.53l16.279-16.266V47.278l-18.25-18.29V0h2.425V27.975l18.3,18.3V153.264l-16.332,16.279Z" transform="translate(51.895)" fill="#babbbd"/>
            </g>
          </g>
        </g>
      </g>
    </g>
  </g>
</svg>
