<svg xmlns="http://www.w3.org/2000/svg" width="407" height="355.181" viewBox="0 0 407 355.181">
  <g id="icon" transform="translate(-0.001)">
    <g id="Layer_1" data-name="Layer 1" transform="translate(0.001)">
      <path id="Path_1205" data-name="Path 1205" d="M1199.015,1194.65h-.286l-.225.029a1.71,1.71,0,0,0-.218.029l-.215.048-.193.038h-.032l-.064.032c-.1.029-.193.061-.286.1l-.2.08c-.071.029-.138.061-.2.093s-.131.067-.193.1-.129.07-.193.106l-.18.122c-.064.042-.122.087-.18.128s-.116.09-.17.138-.112.1-.164.148-.106.1-.157.154l-.148.16c-.048.058-.1.112-.141.17l-.131.177-.122.183c-.042.061-.08.122-.116.186s-.071.131-.1.2-.064.128-.093.2-.061.135-.087.205-.051.135-.074.206-.045.138-.064.208-.035.141-.051.212-.029.145-.042.218-.022.145-.032.218-.022.145-.029.219,0,.144,0,.215v.372l.029.218a1.327,1.327,0,0,0,.032.221c.013.074.029.145.045.215s.026.131.042.2v.032l.029.064c.029.1.061.192.1.286s.055.138.083.205.058.135.087.2a2.171,2.171,0,0,0,.1.193c.035.061.071.129.109.193s.08.122.119.186a1.765,1.765,0,0,0,.129.177c.045.058.09.115.138.17l.144.164.157.157c.051.051.106.1.161.147s.112.1.17.142.116.09.177.131l.18.125.189.113c.064.038.128.071.193.1l.2.1.205.083.206.077.212.061.215.054.212.042.218.032.215.029h.594a.6.6,0,0,0,.225-.029c.074-.029.144,0,.215-.029l.215-.045.2-.042h.029l.064-.029q.147-.042.289-.1l.205-.083.2-.09.193-.1.189-.109c.064-.039.125-.08.186-.122l.18-.128c.058-.045.116-.09.17-.138l.164-.145.154-.154c.051-.052.1-.1.151-.157s.093-.112.138-.17.093-.119.135-.176l.122-.183c.042-.061.077-.122.116-.186l.1-.2c.032-.068.064-.132.093-.2a1.891,1.891,0,0,0,.08-.2c.029-.067.055-.138.077-.208s.042-.138.061-.209.042-.141.058-.212.029-.144.039-.215.026-.144.035-.218l.029-.222v-.587a1.8,1.8,0,0,0-.029-.225c-.01-.074-.019-.145-.029-.218a1.713,1.713,0,0,0-.048-.215c-.019-.074-.026-.132-.042-.2v-.029l-.029-.064q-.042-.145-.1-.289c-.026-.067-.051-.138-.08-.206s-.058-.135-.09-.2-.067-.132-.1-.193-.071-.128-.109-.19-.077-.125-.119-.183-.083-.122-.129-.18-.09-.115-.138-.17-.1-.112-.148-.167l-.154-.157c-.051-.052-.106-.1-.164-.148s-.112-.093-.17-.138l-.173-.132c-.061-.042-.122-.083-.186-.122s-.122-.08-.186-.115l-.193-.1-.2-.1c-.068-.029-.132-.058-.2-.083l-.205-.077-.212-.061-.212-.055-.215-.042-.218-.032-.218-.029h-.3Z" transform="translate(-991.273 -1049.835)" fill="#fff"/>
      <path id="Path_1206" data-name="Path 1206" d="M1199.015,1194.65h-.286l-.225.029a1.71,1.71,0,0,0-.218.029l-.215.048-.193.038h-.032l-.064.032c-.1.029-.193.061-.286.1l-.2.08c-.071.029-.138.061-.2.093s-.131.067-.193.1-.129.07-.193.106l-.18.122c-.064.042-.122.087-.18.128s-.116.09-.17.138-.112.1-.164.148-.106.1-.157.154l-.148.16c-.048.058-.1.112-.141.17l-.131.177-.122.183c-.042.061-.08.122-.116.186s-.071.131-.1.2-.064.128-.093.2-.061.135-.087.205-.051.135-.074.206-.045.138-.064.208-.035.141-.051.212-.029.145-.042.218-.022.145-.032.218-.022.145-.029.219,0,.144,0,.215v.372l.029.218a1.317,1.317,0,0,0,.032.225c.013.074.029.145.045.215s.026.128.042.193v.032l.029.064c.029.1.061.192.1.286s.055.138.083.205.058.135.087.2a2.171,2.171,0,0,0,.1.193c.035.061.071.129.109.193s.08.122.119.186a1.765,1.765,0,0,0,.129.177c.045.058.09.115.138.17l.144.164.157.157c.051.051.106.1.161.147s.112.1.17.142.116.09.177.131l.18.125.189.113c.064.038.128.071.193.1l.2.1.205.083.206.077.212.061c.071.019.141.038.215.051s.141.032.212.042l.218.032.215.029h.594a.6.6,0,0,0,.225-.029c.074-.029.144,0,.215-.029l.215-.045.2-.042h.029l.064-.029q.147-.042.289-.1l.205-.083.2-.09.193-.1c.064-.035.128-.07.189-.109l.186-.119.18-.132c.058-.045.116-.09.17-.138l.164-.145c.052-.048.106-.1.154-.154s.1-.1.151-.157.093-.112.138-.17.093-.116.135-.177.083-.119.122-.183.077-.122.116-.186.071-.129.1-.2.064-.132.093-.2.058-.135.08-.2.055-.138.077-.208.042-.141.061-.209.042-.144.058-.215.029-.145.039-.215.026-.145.035-.219l.029-.218v-.594a1.8,1.8,0,0,0-.029-.225c-.01-.074-.019-.144-.029-.215a1.919,1.919,0,0,0-.048-.218c-.019-.074-.026-.128-.042-.193v-.029l-.029-.064q-.042-.144-.1-.289c-.026-.067-.051-.138-.08-.205s-.058-.132-.09-.2-.067-.128-.1-.193-.071-.128-.109-.189-.077-.125-.119-.183-.083-.122-.129-.18l-.138-.17c-.048-.058-.1-.112-.148-.167l-.154-.154c-.051-.052-.106-.1-.164-.151l-.17-.141-.173-.131c-.061-.042-.122-.083-.186-.122s-.122-.08-.186-.116l-.193-.1-.2-.1c-.068-.029-.132-.058-.2-.08s-.135-.055-.205-.077a2.137,2.137,0,0,0-.212-.061,2.018,2.018,0,0,0-.212-.058,1.7,1.7,0,0,1-.215-.038l-.218-.035-.218-.029H1199Z" transform="translate(-991.273 -1049.835)" fill="#fff"/>
      <path id="Path_1207" data-name="Path 1207" d="M1199.015,1194.65h-.286l-.225.029a1.71,1.71,0,0,0-.218.029l-.215.048-.193.038h-.032l-.064.032c-.1.029-.193.061-.286.1l-.2.08c-.071.029-.138.061-.2.093s-.131.067-.193.1-.129.07-.193.106l-.18.122c-.064.042-.122.087-.18.128s-.116.09-.17.138-.112.1-.164.148-.106.1-.157.154l-.148.16c-.048.058-.1.112-.141.17l-.131.177-.122.183c-.042.061-.08.122-.116.186s-.071.131-.1.2-.064.128-.093.2-.061.135-.087.205-.051.135-.074.206-.045.138-.064.208-.035.141-.051.212-.029.145-.042.218-.022.145-.032.218-.022.145-.029.219,0,.144,0,.215v.372l.029.218a1.317,1.317,0,0,0,.032.225c.013.074.029.145.045.215s.026.128.042.193v.032l.029.064c.029.1.061.192.1.286s.055.138.083.205.058.135.087.2a2.171,2.171,0,0,0,.1.193c.035.061.071.129.109.193s.08.122.119.186a1.765,1.765,0,0,0,.129.177c.045.058.09.115.138.17l.144.164.157.157c.051.051.106.1.161.147s.112.1.17.142.116.09.177.131l.18.125.189.113c.064.038.128.071.193.1l.2.1.205.083.206.077.212.061c.071.019.141.038.215.051s.141.032.212.042l.218.032.215.029h.594a.6.6,0,0,0,.225-.029c.074-.029.144,0,.215-.029l.215-.045.2-.042h.029l.064-.029q.147-.042.289-.1l.205-.083.2-.09.193-.1c.064-.035.128-.07.189-.109l.186-.119.18-.132c.058-.045.116-.09.17-.138l.164-.145c.052-.048.106-.1.154-.154s.1-.1.151-.157.093-.112.138-.17.093-.116.135-.177.083-.119.122-.183.077-.122.116-.186.071-.129.1-.2.064-.132.093-.2.058-.135.08-.2.055-.138.077-.208.042-.141.061-.209.042-.144.058-.215.029-.145.039-.215.026-.145.035-.219l.029-.218v-.594a1.8,1.8,0,0,0-.029-.225c-.01-.074-.019-.144-.029-.215a1.919,1.919,0,0,0-.048-.218c-.019-.074-.026-.128-.042-.193v-.029l-.029-.064q-.042-.144-.1-.289c-.026-.067-.051-.138-.08-.205s-.058-.132-.09-.2-.067-.128-.1-.193-.071-.128-.109-.189-.077-.125-.119-.183-.083-.122-.129-.18l-.138-.17c-.048-.058-.1-.112-.148-.167l-.154-.154c-.051-.052-.106-.1-.164-.151l-.17-.141-.173-.131c-.061-.042-.122-.083-.186-.122s-.122-.08-.186-.116l-.193-.1-.2-.1c-.068-.029-.132-.058-.2-.08s-.135-.055-.205-.077a2.137,2.137,0,0,0-.212-.061,2.018,2.018,0,0,0-.212-.058,1.7,1.7,0,0,1-.215-.038l-.218-.035-.218-.029H1199Z" transform="translate(-991.273 -1049.835)" fill="#fff"/>
      <path id="Path_1208" data-name="Path 1208" d="M1199.015,1194.65h-.286l-.225.029a1.71,1.71,0,0,0-.218.029l-.215.048-.193.038h-.032l-.064.032c-.1.029-.193.061-.286.1l-.2.08c-.071.029-.138.061-.2.093s-.131.067-.193.1-.129.07-.193.106l-.18.122c-.064.042-.122.087-.18.128s-.116.09-.17.138-.112.1-.164.148-.106.1-.157.154l-.148.16c-.048.058-.1.112-.141.17l-.131.177-.122.183c-.042.061-.08.122-.116.186s-.071.131-.1.2-.064.128-.093.2-.061.135-.087.205-.051.135-.074.206-.045.138-.064.208-.035.141-.051.212-.029.145-.042.218-.022.145-.032.218-.022.145-.029.219,0,.144,0,.215v.372l.029.218a1.317,1.317,0,0,0,.032.225c.013.074.029.145.045.215s.026.128.042.193v.032l.029.064c.029.1.061.192.1.286s.055.138.083.205.058.135.087.2a2.171,2.171,0,0,0,.1.193c.035.061.071.129.109.193s.08.122.119.186a1.765,1.765,0,0,0,.129.177c.045.058.09.115.138.17l.144.164.157.157c.051.051.106.1.161.147s.112.1.17.142.116.09.177.131l.18.125.189.113c.064.038.128.071.193.1l.2.1.205.083.206.077.212.061c.071.019.141.038.215.051s.141.032.212.042l.218.032.215.029h.594a.6.6,0,0,0,.225-.029c.074-.029.144,0,.215-.029l.215-.045.2-.042h.029l.064-.029q.147-.042.289-.1l.205-.083.2-.09.193-.1c.064-.035.128-.07.189-.109l.186-.119.18-.132c.058-.045.116-.09.17-.138l.164-.145c.052-.048.106-.1.154-.154s.1-.1.151-.157.093-.112.138-.17.093-.116.135-.177.083-.119.122-.183.077-.122.116-.186.071-.129.1-.2.064-.132.093-.2.058-.135.08-.2.055-.138.077-.208.042-.141.061-.209.042-.144.058-.215.029-.145.039-.215.026-.145.035-.219l.029-.218v-.594a1.8,1.8,0,0,0-.029-.225c-.01-.074-.019-.144-.029-.215a1.919,1.919,0,0,0-.048-.218c-.019-.074-.026-.128-.042-.193v-.029l-.029-.064q-.042-.144-.1-.289c-.026-.067-.051-.138-.08-.205s-.058-.132-.09-.2-.067-.128-.1-.193-.071-.128-.109-.189-.077-.125-.119-.183-.083-.122-.129-.18l-.138-.17c-.048-.058-.1-.112-.148-.167l-.154-.154c-.051-.052-.106-.1-.164-.151l-.17-.141-.173-.131c-.061-.042-.122-.083-.186-.122s-.122-.08-.186-.116l-.193-.1-.2-.1c-.068-.029-.132-.058-.2-.08s-.135-.055-.205-.077a2.137,2.137,0,0,0-.212-.061,2.018,2.018,0,0,0-.212-.058,1.7,1.7,0,0,1-.215-.038l-.218-.035-.218-.029H1199Z" transform="translate(-991.273 -1049.835)" fill="#fff"/>
      <path id="Path_1209" data-name="Path 1209" d="M1199.015,1194.65h-.286l-.225.029a1.71,1.71,0,0,0-.218.029l-.215.048-.193.038h-.032l-.064.032c-.1.029-.193.061-.286.1l-.2.08c-.071.029-.138.061-.2.093s-.131.067-.193.1-.129.07-.193.106l-.18.122c-.064.042-.122.087-.18.128s-.116.09-.17.138-.112.1-.164.148-.106.1-.157.154l-.148.16c-.048.058-.1.112-.141.17l-.131.177-.122.183c-.042.061-.08.122-.116.186s-.071.131-.1.2-.064.128-.093.2-.061.135-.087.205-.051.135-.074.206-.045.138-.064.208-.035.141-.051.212-.029.145-.042.218-.022.145-.032.218-.022.145-.029.219,0,.144,0,.215v.372l.029.218a1.317,1.317,0,0,0,.032.225c.013.074.029.145.045.215s.026.128.042.193v.032l.029.064c.029.1.061.192.1.286s.055.138.083.205.058.135.087.2a2.171,2.171,0,0,0,.1.193c.035.061.071.129.109.193s.08.122.119.186a1.765,1.765,0,0,0,.129.177c.045.058.09.115.138.17l.144.164.157.157c.051.051.106.1.161.147s.112.1.17.142.116.09.177.131l.18.125.189.113c.064.038.128.071.193.1l.2.1.205.083.206.077.212.061c.071.019.141.038.215.051s.141.032.212.042l.218.032.215.029h.594a.6.6,0,0,0,.225-.029c.074-.029.144,0,.215-.029l.215-.045.2-.042h.029l.064-.029q.147-.042.289-.1l.205-.083.2-.09.193-.1c.064-.035.128-.07.189-.109l.186-.119.18-.132c.058-.045.116-.09.17-.138l.164-.145c.052-.048.106-.1.154-.154s.1-.1.151-.157.093-.112.138-.17.093-.116.135-.177.083-.119.122-.183.077-.122.116-.186.071-.129.1-.2.064-.132.093-.2.058-.135.08-.2.055-.138.077-.208.042-.141.061-.209.042-.144.058-.215.029-.145.039-.215.026-.145.035-.219l.029-.218v-.594a1.8,1.8,0,0,0-.029-.225c-.01-.074-.019-.144-.029-.215a1.919,1.919,0,0,0-.048-.218c-.019-.074-.026-.128-.042-.193v-.029l-.029-.064q-.042-.144-.1-.289c-.026-.067-.051-.138-.08-.205s-.058-.132-.09-.2-.067-.128-.1-.193-.071-.128-.109-.189-.077-.125-.119-.183-.083-.122-.129-.18l-.138-.17c-.048-.058-.1-.112-.148-.167l-.154-.154c-.051-.052-.106-.1-.164-.151l-.17-.141-.173-.131c-.061-.042-.122-.083-.186-.122s-.122-.08-.186-.116l-.193-.1-.2-.1c-.068-.029-.132-.058-.2-.08s-.135-.055-.205-.077a2.137,2.137,0,0,0-.212-.061,2.018,2.018,0,0,0-.212-.058,1.7,1.7,0,0,1-.215-.038l-.218-.035-.218-.029H1199Z" transform="translate(-991.273 -1049.835)" fill="#fff"/>
      <path id="Path_1210" data-name="Path 1210" d="M1199.015,1194.65h-.286l-.225.029a1.71,1.71,0,0,0-.218.029l-.215.048-.193.038h-.032l-.064.032c-.1.029-.193.061-.286.1l-.2.08c-.071.029-.138.061-.2.093s-.131.067-.193.1-.129.07-.193.106l-.18.122c-.064.042-.122.087-.18.128s-.116.09-.17.138-.112.1-.164.148-.106.1-.157.154l-.148.16c-.048.058-.1.112-.141.17l-.131.177-.122.183c-.042.061-.08.122-.116.186s-.071.131-.1.2-.064.128-.093.2-.061.135-.087.205-.051.135-.074.206-.045.138-.064.208-.035.141-.051.212-.029.145-.042.218-.022.145-.032.218-.022.145-.029.219,0,.144,0,.215v.372l.029.218a1.317,1.317,0,0,0,.032.225c.013.074.029.145.045.215s.026.128.042.193v.032l.029.064c.029.1.061.192.1.286s.055.138.083.205.058.135.087.2a2.171,2.171,0,0,0,.1.193c.035.061.071.129.109.193s.08.122.119.186a1.765,1.765,0,0,0,.129.177c.045.058.09.115.138.17l.144.164.157.157c.051.051.106.1.161.147s.112.1.17.142.116.09.177.131l.18.125.189.113c.064.038.128.071.193.1l.2.1.205.083.206.077.212.061c.071.019.141.038.215.051s.141.032.212.042l.218.032.215.029h.594a.6.6,0,0,0,.225-.029c.074-.029.144,0,.215-.029l.215-.045.2-.042h.029l.064-.029q.147-.042.289-.1l.205-.083.2-.09.193-.1c.064-.035.128-.07.189-.109l.186-.119.18-.132c.058-.045.116-.09.17-.138l.164-.145c.052-.048.106-.1.154-.154s.1-.1.151-.157.093-.112.138-.17.093-.116.135-.177.083-.119.122-.183.077-.122.116-.186.071-.129.1-.2.064-.132.093-.2.058-.135.08-.2.055-.138.077-.208.042-.141.061-.209.042-.144.058-.215.029-.145.039-.215.026-.145.035-.219l.029-.218v-.594a1.8,1.8,0,0,0-.029-.225c-.01-.074-.019-.144-.029-.215a1.919,1.919,0,0,0-.048-.218c-.019-.074-.026-.128-.042-.193v-.029l-.029-.064q-.042-.144-.1-.289c-.026-.067-.051-.138-.08-.205s-.058-.132-.09-.2-.067-.128-.1-.193-.071-.128-.109-.189-.077-.125-.119-.183-.083-.122-.129-.18l-.138-.17c-.048-.058-.1-.112-.148-.167l-.154-.154c-.051-.052-.106-.1-.164-.151l-.17-.141-.173-.131c-.061-.042-.122-.083-.186-.122s-.122-.08-.186-.116l-.193-.1-.2-.1c-.068-.029-.132-.058-.2-.08s-.135-.055-.205-.077a2.137,2.137,0,0,0-.212-.061,2.018,2.018,0,0,0-.212-.058,1.7,1.7,0,0,1-.215-.038l-.218-.035-.218-.029H1199Z" transform="translate(-991.273 -1049.835)" fill="#fff"/>
      <path id="Path_1211" data-name="Path 1211" d="M1199.015,1194.65h-.286l-.225.029a1.71,1.71,0,0,0-.218.029l-.215.048-.193.038h-.032l-.064.032c-.1.029-.193.061-.286.1l-.2.08c-.071.029-.138.061-.2.093s-.131.067-.193.1-.129.07-.193.106l-.18.122c-.064.042-.122.087-.18.128s-.116.09-.17.138-.112.1-.164.148-.106.1-.157.154l-.148.16c-.048.058-.1.112-.141.17l-.131.177-.122.183c-.042.061-.08.122-.116.186s-.071.131-.1.2-.064.128-.093.2-.061.135-.087.205-.051.135-.074.206-.045.138-.064.208-.035.141-.051.212-.029.145-.042.218-.022.145-.032.218-.022.145-.029.219,0,.144,0,.215v.372l.029.218a1.317,1.317,0,0,0,.032.225c.013.074.029.145.045.215s.026.128.042.193v.032l.029.064c.029.1.061.192.1.286s.055.138.083.205.058.135.087.2a2.171,2.171,0,0,0,.1.193c.035.061.071.129.109.193s.08.122.119.186a1.765,1.765,0,0,0,.129.177c.045.058.09.115.138.17l.144.164.157.157c.051.051.106.1.161.147s.112.1.17.142.116.09.177.131l.18.125.189.113c.064.038.128.071.193.1l.2.1.205.083.206.077.212.061c.071.019.141.038.215.051s.141.032.212.042l.218.032.215.029h.594a.6.6,0,0,0,.225-.029c.074-.029.144,0,.215-.029l.215-.045.2-.042h.029l.064-.029q.147-.042.289-.1l.205-.083.2-.09.193-.1c.064-.035.128-.07.189-.109l.186-.119.18-.132c.058-.045.116-.09.17-.138l.164-.145c.052-.048.106-.1.154-.154s.1-.1.151-.157.093-.112.138-.17.093-.116.135-.177.083-.119.122-.183.077-.122.116-.186.071-.129.1-.2.064-.132.093-.2.058-.135.08-.2.055-.138.077-.208.042-.141.061-.209.042-.144.058-.215.029-.145.039-.215.026-.145.035-.219l.029-.218v-.594a1.8,1.8,0,0,0-.029-.225c-.01-.074-.019-.144-.029-.215a1.919,1.919,0,0,0-.048-.218c-.019-.074-.026-.128-.042-.193v-.029l-.029-.064q-.042-.144-.1-.289c-.026-.067-.051-.138-.08-.205s-.058-.132-.09-.2-.067-.128-.1-.193-.071-.128-.109-.189-.077-.125-.119-.183-.083-.122-.129-.18l-.138-.17c-.048-.058-.1-.112-.148-.167l-.154-.154c-.051-.052-.106-.1-.164-.151l-.17-.141-.173-.131c-.061-.042-.122-.083-.186-.122s-.122-.08-.186-.116l-.193-.1-.2-.1c-.068-.029-.132-.058-.2-.08s-.135-.055-.205-.077a2.137,2.137,0,0,0-.212-.061,2.018,2.018,0,0,0-.212-.058,1.7,1.7,0,0,1-.215-.038l-.218-.035-.218-.029H1199Z" transform="translate(-991.273 -1049.835)" fill="#fff"/>
      <path id="Path_1212" data-name="Path 1212" d="M1199.015,1194.65h-.286l-.225.029a1.71,1.71,0,0,0-.218.029l-.215.048-.193.038h-.032l-.064.032c-.1.029-.193.061-.286.1l-.2.08c-.071.029-.138.061-.2.093s-.131.067-.193.1-.129.07-.193.106l-.18.122c-.064.042-.122.087-.18.128s-.116.09-.17.138-.112.1-.164.148-.106.1-.157.154l-.148.16c-.048.058-.1.112-.141.17l-.131.177-.122.183c-.042.061-.08.122-.116.186s-.071.131-.1.2-.064.128-.093.2-.061.135-.087.205-.051.135-.074.206-.045.138-.064.208-.035.141-.051.212-.029.145-.042.218-.022.145-.032.218-.022.145-.029.219,0,.144,0,.215v.372l.029.218a1.317,1.317,0,0,0,.032.225c.013.074.029.145.045.215s.026.128.042.193v.032l.029.064c.029.1.061.192.1.286s.055.138.083.205.058.135.087.2a2.171,2.171,0,0,0,.1.193c.035.061.071.129.109.193s.08.122.119.186a1.765,1.765,0,0,0,.129.177c.045.058.09.115.138.17l.144.164.157.157c.051.051.106.1.161.147s.112.1.17.142.116.09.177.131l.18.125.189.113c.064.038.128.071.193.1l.2.1.205.083.206.077.212.061c.071.019.141.038.215.051s.141.032.212.042l.218.032.215.029h.594a.6.6,0,0,0,.225-.029c.074-.029.144,0,.215-.029l.215-.045.2-.042h.029l.064-.029q.147-.042.289-.1l.205-.083.2-.09.193-.1c.064-.035.128-.07.189-.109l.186-.119.18-.132c.058-.045.116-.09.17-.138l.164-.145c.052-.048.106-.1.154-.154s.1-.1.151-.157.093-.112.138-.17.093-.116.135-.177.083-.119.122-.183.077-.122.116-.186.071-.129.1-.2.064-.132.093-.2.058-.135.08-.2.055-.138.077-.208.042-.141.061-.209.042-.144.058-.215.029-.145.039-.215.026-.145.035-.219l.029-.218v-.594a1.8,1.8,0,0,0-.029-.225c-.01-.074-.019-.144-.029-.215a1.919,1.919,0,0,0-.048-.218c-.019-.074-.026-.128-.042-.193v-.029l-.029-.064q-.042-.144-.1-.289c-.026-.067-.051-.138-.08-.205s-.058-.132-.09-.2-.067-.128-.1-.193-.071-.128-.109-.189-.077-.125-.119-.183-.083-.122-.129-.18l-.138-.17c-.048-.058-.1-.112-.148-.167l-.154-.154c-.051-.052-.106-.1-.164-.151l-.17-.141-.173-.131c-.061-.042-.122-.083-.186-.122s-.122-.08-.186-.116l-.193-.1-.2-.1c-.068-.029-.132-.058-.2-.08s-.135-.055-.205-.077a2.137,2.137,0,0,0-.212-.061,2.018,2.018,0,0,0-.212-.058,1.7,1.7,0,0,1-.215-.038l-.218-.035-.218-.029H1199Z" transform="translate(-991.273 -1049.835)" fill="#fff"/>
      <path id="Path_1213" data-name="Path 1213" d="M1199.015,1194.65h-.286l-.225.029a1.71,1.71,0,0,0-.218.029l-.215.048-.193.038h-.032l-.064.032c-.1.029-.193.061-.286.1l-.2.08c-.071.029-.138.061-.2.093s-.131.067-.193.1-.129.07-.193.106l-.18.122c-.064.042-.122.087-.18.128s-.116.09-.17.138-.112.1-.164.148-.106.1-.157.154l-.148.16c-.048.058-.1.112-.141.17l-.131.177-.122.183c-.042.061-.08.122-.116.186s-.071.131-.1.2-.064.128-.093.2-.061.135-.087.205-.051.135-.074.206-.045.138-.064.208-.035.141-.051.212-.029.145-.042.218-.022.145-.032.218-.022.145-.029.219,0,.144,0,.215v.372l.029.218a1.317,1.317,0,0,0,.032.225c.013.074.029.145.045.215s.026.128.042.193v.032l.029.064c.029.1.061.192.1.286s.055.138.083.205.058.135.087.2a2.171,2.171,0,0,0,.1.193c.035.061.071.129.109.193s.08.122.119.186a1.765,1.765,0,0,0,.129.177c.045.058.09.115.138.17l.144.164.157.157c.051.051.106.1.161.147s.112.1.17.142.116.09.177.131l.18.125.189.113c.064.038.128.071.193.1l.2.1.205.083.206.077.212.061c.071.019.141.038.215.051s.141.032.212.042l.218.032.215.029h.594a.6.6,0,0,0,.225-.029c.074-.029.144,0,.215-.029l.215-.045.2-.042h.029l.064-.029q.147-.042.289-.1l.205-.083.2-.09.193-.1c.064-.035.128-.07.189-.109l.186-.119.18-.132c.058-.045.116-.09.17-.138l.164-.145c.052-.048.106-.1.154-.154s.1-.1.151-.157.093-.112.138-.17.093-.116.135-.177.083-.119.122-.183.077-.122.116-.186.071-.129.1-.2.064-.132.093-.2.058-.135.08-.2.055-.138.077-.208.042-.141.061-.209.042-.144.058-.215.029-.145.039-.215.026-.145.035-.219l.029-.218v-.594a1.8,1.8,0,0,0-.029-.225c-.01-.074-.019-.144-.029-.215a1.919,1.919,0,0,0-.048-.218c-.019-.074-.026-.128-.042-.193v-.029l-.029-.064q-.042-.144-.1-.289c-.026-.067-.051-.138-.08-.205s-.058-.132-.09-.2-.067-.128-.1-.193-.071-.128-.109-.189-.077-.125-.119-.183-.083-.122-.129-.18l-.138-.17c-.048-.058-.1-.112-.148-.167l-.154-.154c-.051-.052-.106-.1-.164-.151l-.17-.141-.173-.131c-.061-.042-.122-.083-.186-.122s-.122-.08-.186-.116l-.193-.1-.2-.1c-.068-.029-.132-.058-.2-.08s-.135-.055-.205-.077a2.137,2.137,0,0,0-.212-.061,2.018,2.018,0,0,0-.212-.058,1.7,1.7,0,0,1-.215-.038l-.218-.035-.218-.029H1199Z" transform="translate(-991.273 -1049.835)" fill="#fff"/>
      <path id="Path_1214" data-name="Path 1214" d="M1199.015,1194.65h-.286l-.225.029a1.71,1.71,0,0,0-.218.029l-.215.048-.193.038h-.032l-.064.032c-.1.029-.193.061-.286.1l-.2.08c-.071.029-.138.061-.2.093s-.131.067-.193.1-.129.07-.193.106l-.18.122c-.064.042-.122.087-.18.128s-.116.09-.17.138-.112.1-.164.148-.106.1-.157.154l-.148.16c-.048.058-.1.112-.141.17l-.131.177-.122.183c-.042.061-.08.122-.116.186s-.071.131-.1.2-.064.128-.093.2-.061.135-.087.205-.051.135-.074.206-.045.138-.064.208-.035.141-.051.212-.029.145-.042.218-.022.145-.032.218-.022.145-.029.219,0,.144,0,.215v.372l.029.218a1.317,1.317,0,0,0,.032.225c.013.074.029.145.045.215s.026.128.042.193v.032l.029.064c.029.1.061.192.1.286s.055.138.083.205.058.135.087.2a2.171,2.171,0,0,0,.1.193c.035.061.071.129.109.193s.08.122.119.186a1.765,1.765,0,0,0,.129.177c.045.058.09.115.138.17l.144.164.157.157c.051.051.106.1.161.147s.112.1.17.142.116.09.177.131l.18.125.189.113c.064.038.128.071.193.1l.2.1.205.083.206.077.212.061c.071.019.141.038.215.051s.141.032.212.042l.218.032.215.029h.594a.6.6,0,0,0,.225-.029c.074-.029.144,0,.215-.029l.215-.045.2-.042h.029l.064-.029q.147-.042.289-.1l.205-.083.2-.09.193-.1c.064-.035.128-.07.189-.109l.186-.119.18-.132c.058-.045.116-.09.17-.138l.164-.145c.052-.048.106-.1.154-.154s.1-.1.151-.157.093-.112.138-.17.093-.116.135-.177.083-.119.122-.183.077-.122.116-.186.071-.129.1-.2.064-.132.093-.2.058-.135.08-.2.055-.138.077-.208.042-.141.061-.209.042-.144.058-.215.029-.145.039-.215.026-.145.035-.219l.029-.218v-.594a1.8,1.8,0,0,0-.029-.225c-.01-.074-.019-.144-.029-.215a1.919,1.919,0,0,0-.048-.218c-.019-.074-.026-.128-.042-.193v-.029l-.029-.064q-.042-.144-.1-.289c-.026-.067-.051-.138-.08-.205s-.058-.132-.09-.2-.067-.128-.1-.193-.071-.128-.109-.189-.077-.125-.119-.183-.083-.122-.129-.18l-.138-.17c-.048-.058-.1-.112-.148-.167l-.154-.154c-.051-.052-.106-.1-.164-.151l-.17-.141-.173-.131c-.061-.042-.122-.083-.186-.122s-.122-.08-.186-.116l-.193-.1-.2-.1c-.068-.029-.132-.058-.2-.08s-.135-.055-.205-.077a2.137,2.137,0,0,0-.212-.061,2.018,2.018,0,0,0-.212-.058,1.7,1.7,0,0,1-.215-.038l-.218-.035-.218-.029H1199Z" transform="translate(-991.273 -1049.835)" fill="#fff"/>
      <path id="Path_1215" data-name="Path 1215" d="M1026.147,1558.6c0,27.212-9.075,65.893-20.269,65.893s-20.268-38.681-20.268-65.893,11.98-32.646,20.268-32.646S1026.147,1531.385,1026.147,1558.6Z" transform="translate(-849.305 -1274.974)" fill="#3aa89a"/>
      <path id="Path_1216" data-name="Path 1216" d="M970.35,1674.43a173.428,173.428,0,0,0,5.386,29.664c1.926,6.84,4.173,12.879,7.036,17.655s6.69,9.222,12.747,9.222,9.884-4.452,12.738-9.222a73.636,73.636,0,0,0,7.036-17.655,174.429,174.429,0,0,0,5.387-29.661h-11.386a165.868,165.868,0,0,1-4.9,26.6,65.773,65.773,0,0,1-5.846,14.9,11.691,11.691,0,0,1-3.034,3.6,11.677,11.677,0,0,1-3.037-3.6,65.525,65.525,0,0,1-5.852-14.9,163.077,163.077,0,0,1-4.892-26.6Z" transform="translate(-838.942 -1375.791)" fill="#1a1a1a"/>
      <path id="Path_1217" data-name="Path 1217" d="M993.911,1508.33a22.971,22.971,0,0,0-17.562,8.118c-5.2,6.141-8.369,15.749-8.369,30.175a162.823,162.823,0,0,0,1.1,18.233h11.425a153.189,153.189,0,0,1-1.194-18.233c0-12.776,2.825-19.492,5.688-22.875a11.739,11.739,0,0,1,17.848,0c2.863,3.38,5.688,10.1,5.688,22.875a153.189,153.189,0,0,1-1.194,18.233h11.409a163.491,163.491,0,0,0,1.1-18.233c0-14.445-3.165-24.043-8.366-30.175a22.964,22.964,0,0,0-17.556-8.118Z" transform="translate(-837.332 -1262.952)" fill="#1a1a1a"/>
      <path id="Path_1218" data-name="Path 1218" d="M1345.317,1558.6c0,27.212-9.075,65.893-20.268,65.893s-20.268-38.681-20.268-65.893,11.98-32.646,20.268-32.646S1345.317,1531.385,1345.317,1558.6Z" transform="translate(-1066.123 -1274.974)" fill="#3aa89a"/>
      <path id="Path_1219" data-name="Path 1219" d="M1289.52,1674.43a173.107,173.107,0,0,0,5.39,29.664c1.926,6.84,4.173,12.879,7.033,17.655s6.69,9.222,12.747,9.222,9.884-4.452,12.738-9.222a73.656,73.656,0,0,0,7.036-17.655,174.441,174.441,0,0,0,5.386-29.661h-11.386a165.841,165.841,0,0,1-4.9,26.6,65.612,65.612,0,0,1-5.846,14.9,11.691,11.691,0,0,1-3.033,3.6,11.677,11.677,0,0,1-3.037-3.6,65.52,65.52,0,0,1-5.852-14.9,162.713,162.713,0,0,1-4.892-26.6Z" transform="translate(-1055.763 -1375.791)" fill="#1a1a1a"/>
      <path id="Path_1220" data-name="Path 1220" d="M1313.088,1508.33a22.978,22.978,0,0,0-17.562,8.118c-5.2,6.141-8.366,15.749-8.366,30.175a163.551,163.551,0,0,0,1.095,18.233h11.409a153.782,153.782,0,0,1-1.191-18.233c0-12.776,2.825-19.492,5.688-22.875a11.739,11.739,0,0,1,17.848,0c2.863,3.38,5.688,10.1,5.688,22.875a153.915,153.915,0,0,1-1.194,18.233h11.409a163.549,163.549,0,0,0,1.1-18.233c0-14.445-3.168-24.043-8.365-30.175A22.968,22.968,0,0,0,1313.088,1508.33Z" transform="translate(-1054.161 -1262.952)" fill="#1a1a1a"/>
      <path id="Path_1221" data-name="Path 1221" d="M626.054,1157.982c-23.565-13.614-52.53-40.807-46.931-50.5s43.631,1.788,67.2,15.408,22.281,26.7,18.137,33.876-14.84,14.834-38.405,1.23Z" transform="translate(-572.687 -988.198)" fill="#3aa89a"/>
      <path id="Path_1222" data-name="Path 1222" d="M623.638,1099.157a174.812,174.812,0,0,0-28.383-10.17,73.678,73.678,0,0,0-18.8-2.728c-5.56.087-11.331,1.181-14.359,6.42s-1.085,10.789,1.605,15.643,6.805,9.839,11.768,14.92a174.4,174.4,0,0,0,22.994,19.495l5.691-9.861a164.536,164.536,0,0,1-20.6-17.543,65.174,65.174,0,0,1-9.977-12.519,11.821,11.821,0,0,1-1.6-4.43,11.656,11.656,0,0,1,4.642-.828,65.486,65.486,0,0,1,15.826,2.382A164.628,164.628,0,0,1,617.931,1109Z" transform="translate(-560.561 -976.219)" fill="#1a1a1a"/>
      <path id="Path_1223" data-name="Path 1223" d="M731.849,1172.133a22.964,22.964,0,0,0,1.75-19.26c-2.716-7.573-9.454-15.119-21.954-22.336a163.546,163.546,0,0,0-16.339-8.166l-5.7,9.881a154.3,154.3,0,0,1,16.371,8.083c11.062,6.388,15.466,12.2,16.965,16.371a11.742,11.742,0,0,1-8.927,15.46c-4.362.793-11.592-.125-22.653-6.513a152.784,152.784,0,0,1-15.193-10.15l-5.7,9.88a163.245,163.245,0,0,0,15.261,10.051c12.5,7.216,22.4,9.28,30.319,7.845A22.958,22.958,0,0,0,731.849,1172.133Z" transform="translate(-635.182 -1000.756)" fill="#1a1a1a"/>
      <path id="Path_1224" data-name="Path 1224" d="M1615.988,1121.138c19.241,19.241,40.177,53.011,32.261,60.927s-41.683-13.02-60.924-32.261-14.612-31.555-8.754-37.417S1596.747,1101.9,1615.988,1121.138Z" transform="translate(-1248.691 -990.515)" fill="#3aa89a"/>
      <path id="Path_1225" data-name="Path 1225" d="M1638.92,1208.327a174.124,174.124,0,0,0,24.785,17.167,73.549,73.549,0,0,0,17.453,7.505c5.393,1.354,11.235,1.791,15.533-2.491s3.852-10.141,2.488-15.53a74.048,74.048,0,0,0-7.509-17.456,173.864,173.864,0,0,0-17.164-24.782l-8.051,8.051a165.65,165.65,0,0,1,15.354,22.275,65.651,65.651,0,0,1,6.4,14.667,11.678,11.678,0,0,1,.4,4.7,11.448,11.448,0,0,1-4.7-.4,64.687,64.687,0,0,1-14.67-6.395,164.631,164.631,0,0,1-22.275-15.354Z" transform="translate(-1293.131 -1034.975)" fill="#1a1a1a"/>
      <path id="Path_1226" data-name="Path 1226" d="M1562.622,1096.437a22.974,22.974,0,0,0-6.677,18.159c.665,8.025,5.22,17.049,15.424,27.257a163.733,163.733,0,0,0,13.672,12.115l8.067-8.067a152.913,152.913,0,0,1-13.736-12.051c-9.033-9.033-11.787-15.778-12.153-20.195a11.735,11.735,0,0,1,12.619-12.619c4.4.366,11.165,3.117,20.2,12.15a153.873,153.873,0,0,1,12.051,13.736l8.064-8.063a162.619,162.619,0,0,0-12.115-13.669c-10.208-10.208-19.241-14.766-27.257-15.427a22.945,22.945,0,0,0-18.156,6.674Z" transform="translate(-1236.739 -978.552)" fill="#1a1a1a"/>
      <path id="Path_1227" data-name="Path 1227" d="M789.461,743.1a46.527,46.527,0,0,0-46.411,46.466V995.347a46.538,46.538,0,0,0,46.411,46.466H994.986a46.537,46.537,0,0,0,46.408-46.466V789.566A46.525,46.525,0,0,0,994.986,743.1Zm0,18.1H994.986a28.086,28.086,0,0,1,28.329,28.364V995.347a28.091,28.091,0,0,1-28.329,28.367H789.477a28.093,28.093,0,0,1-28.332-28.367V789.566A28.089,28.089,0,0,1,789.477,761.2Z" transform="translate(-684.47 -743.1)" fill="#1a1a1a"/>
      <path id="Path_1228" data-name="Path 1228" d="M808.666,771.29h205.782a37.333,37.333,0,0,1,37.413,37.417v205.782a37.333,37.333,0,0,1-37.413,37.417H808.682a37.333,37.333,0,0,1-37.433-37.417V808.706a37.333,37.333,0,0,1,37.417-37.417Z" transform="translate(-703.989 -762.241)" fill="#3aa89a"/>
      <path id="Path_1229" data-name="Path 1229" d="M803.88,764.24a39.641,39.641,0,0,0-39.68,39.68V1009.7a39.641,39.641,0,0,0,39.68,39.68h205.782a39.641,39.641,0,0,0,39.68-39.68V803.92a39.641,39.641,0,0,0-39.68-39.68Zm0,4.526h205.782a35.025,35.025,0,0,1,35.15,35.153V1009.7a35.025,35.025,0,0,1-35.15,35.153H803.9a35.028,35.028,0,0,1-35.17-35.153V803.92a35.028,35.028,0,0,1,35.153-35.154Z" transform="translate(-699.202 -757.454)" fill="#1a1a1a"/>
      <path id="Path_1230" data-name="Path 1230" d="M835.235,808.66h203.393a26.553,26.553,0,0,1,26.612,26.615v203.393a26.551,26.551,0,0,1-26.612,26.611H835.235a26.554,26.554,0,0,1-26.615-26.611V835.275a26.557,26.557,0,0,1,26.615-26.615Z" transform="translate(-729.188 -787.615)" fill="#326e79"/>
      <path id="Path_1231" data-name="Path 1231" d="M879.738,889.39a9.9,9.9,0,0,0-9.916,9.916v54.436h-3.666a5.556,5.556,0,0,0-5.566,5.566v64.953a5.553,5.553,0,0,0,5.566,5.566h3.666v54.437a9.893,9.893,0,0,0,9.916,9.916H1064.7a9.893,9.893,0,0,0,9.916-9.916v-54.437h3.663a5.553,5.553,0,0,0,5.566-5.566V959.308a5.554,5.554,0,0,0-5.567-5.566h-3.663V899.306a9.9,9.9,0,0,0-9.916-9.916Z" transform="translate(-764.473 -842.43)" fill="#b4afa9"/>
      <path id="Path_1232" data-name="Path 1232" d="M899.266,889.39h184.958a9.9,9.9,0,0,1,9.916,9.919v184.955a9.893,9.893,0,0,1-9.916,9.916H899.266a9.893,9.893,0,0,1-9.916-9.916V899.309a9.9,9.9,0,0,1,9.916-9.919Z" transform="translate(-784 -842.43)" fill="#b4afa9"/>
      <path id="Path_1233" data-name="Path 1233" d="M874.951,882.34a12.2,12.2,0,0,0-12.179,12.182v52.17h-1.4a7.865,7.865,0,0,0-7.833,7.829v64.953a7.865,7.865,0,0,0,7.833,7.829h1.4v52.173a12.2,12.2,0,0,0,12.179,12.179h184.958a12.2,12.2,0,0,0,12.179-12.179V1027.3h1.4a7.862,7.862,0,0,0,7.829-7.829V954.522a7.862,7.862,0,0,0-7.83-7.829h-1.4v-52.17a12.2,12.2,0,0,0-12.179-12.182Zm0,4.526h184.958a7.588,7.588,0,0,1,7.653,7.656v56.7h5.926a3.252,3.252,0,0,1,3.306,3.3v64.953a3.249,3.249,0,0,1-3.306,3.306h-5.926v56.7a7.585,7.585,0,0,1-7.653,7.653H874.951a7.585,7.585,0,0,1-7.653-7.653v-56.7h-5.926a3.249,3.249,0,0,1-3.3-3.306V954.522a3.246,3.246,0,0,1,3.3-3.3H867.3v-56.7a7.589,7.589,0,0,1,7.653-7.656Z" transform="translate(-759.686 -837.643)" fill="#8b8b8b"/>
      <path id="Path_1234" data-name="Path 1234" d="M940.5,936.83h166.9a3.708,3.708,0,0,1,3.717,3.714v166.9a3.711,3.711,0,0,1-3.717,3.717H940.5a3.711,3.711,0,0,1-3.717-3.717v-166.9a3.708,3.708,0,0,1,3.717-3.714Z" transform="translate(-816.204 -874.753)" fill="#d7d4d1"/>
      <path id="Path_1235" data-name="Path 1235" d="M1447.31,936.83a3.711,3.711,0,0,1,3.72,3.714v166.908a3.711,3.711,0,0,1-3.72,3.714h6.741a3.71,3.71,0,0,0,3.72-3.714V940.544a3.711,3.711,0,0,0-3.72-3.714Z" transform="translate(-1162.924 -874.753)" fill="#c1bcb7"/>
      <path id="Path_1236" data-name="Path 1236" d="M1111.119,1242.47,936.78,1289.186v25.8a3.708,3.708,0,0,0,3.717,3.714h166.9a3.708,3.708,0,0,0,3.717-3.714Z" transform="translate(-816.204 -1082.355)" fill="#c1bcb7"/>
      <path id="Path_1237" data-name="Path 1237" d="M947.218,936.83a3.707,3.707,0,0,0-3.717,3.714v166.908a3.707,3.707,0,0,0,3.717,3.714h-6.741a3.707,3.707,0,0,1-3.717-3.714V940.544a3.708,3.708,0,0,1,3.717-3.714Z" transform="translate(-816.111 -874.753)" fill="#fff"/>
      <path id="Path_1238" data-name="Path 1238" d="M935.71,929.78a6.016,6.016,0,0,0-5.98,5.977v166.9a6.019,6.019,0,0,0,5.98,5.99h166.9a6.016,6.016,0,0,0,5.977-5.98V935.757a6.013,6.013,0,0,0-5.977-5.977Zm0,4.526h166.9a1.4,1.4,0,0,1,1.451,1.451v166.9a1.4,1.4,0,0,1-1.451,1.454H935.71a1.4,1.4,0,0,1-1.454-1.454v-166.9a1.4,1.4,0,0,1,1.454-1.451Z" transform="translate(-811.417 -869.965)" fill="#959595"/>
      <rect id="Rectangle_30" data-name="Rectangle 30" width="60.869" height="13.142" transform="translate(177.313 14.477)" fill="#3aa89a"/>
      <rect id="Rectangle_31" data-name="Rectangle 31" width="60.869" height="13.142" transform="translate(177.313 270.84)" fill="#3aa89a"/>
      <path id="Path_1239" data-name="Path 1239" d="M861.268,1548.014a4.317,4.317,0,1,1-1.263-3.058,4.324,4.324,0,0,1,1.263,3.058Z" transform="translate(-758.954 -1286.936)" fill="#c4b676"/>
      <path id="Path_1240" data-name="Path 1240" d="M919.963,825.448a2.517,2.517,0,1,1-.738-1.785A2.517,2.517,0,0,1,919.963,825.448Z" transform="translate(-801.28 -797.302)" fill="#c4b676"/>
      <path id="Path_1241" data-name="Path 1241" d="M946.326,825.45a2.523,2.523,0,1,1-2.52-2.52A2.523,2.523,0,0,1,946.326,825.45Z" transform="translate(-819.18 -797.304)" fill="#c4b676"/>
      <path id="Path_1242" data-name="Path 1242" d="M972.706,825.45a2.523,2.523,0,1,1-2.52-2.52,2.523,2.523,0,0,1,2.52,2.52Z" transform="translate(-837.099 -797.304)" fill="#c4b676"/>
      <path id="Path_1243" data-name="Path 1243" d="M999.1,825.45a2.523,2.523,0,1,1-2.52-2.52A2.523,2.523,0,0,1,999.1,825.45Z" transform="translate(-855.026 -797.304)" fill="#c4b676"/>
      <path id="Path_1244" data-name="Path 1244" d="M1025.476,825.45a2.523,2.523,0,1,1-2.52-2.52A2.523,2.523,0,0,1,1025.476,825.45Z" transform="translate(-872.945 -797.304)" fill="#c4b676"/>
      <path id="Path_1245" data-name="Path 1245" d="M1051.893,825.448a2.517,2.517,0,1,1-.738-1.785A2.517,2.517,0,0,1,1051.893,825.448Z" transform="translate(-890.898 -797.302)" fill="#c4b676"/>
      <path id="Path_1246" data-name="Path 1246" d="M933.14,846.98a2.5,2.5,0,1,1-.733-1.787A2.52,2.52,0,0,1,933.14,846.98Z" transform="translate(-810.227 -811.923)" fill="#c4b676"/>
      <path id="Path_1247" data-name="Path 1247" d="M959.516,846.98a2.517,2.517,0,1,1-.737-1.783A2.523,2.523,0,0,1,959.516,846.98Z" transform="translate(-828.139 -811.923)" fill="#c4b676"/>
      <path id="Path_1248" data-name="Path 1248" d="M985.91,846.98a2.513,2.513,0,1,1-.736-1.784A2.52,2.52,0,0,1,985.91,846.98Z" transform="translate(-846.073 -811.923)" fill="#c4b676"/>
      <path id="Path_1249" data-name="Path 1249" d="M1012.34,846.98a2.5,2.5,0,1,1-.733-1.787A2.52,2.52,0,0,1,1012.34,846.98Z" transform="translate(-864.026 -811.923)" fill="#c4b676"/>
      <path id="Path_1250" data-name="Path 1250" d="M1038.68,846.98a2.513,2.513,0,1,1-.736-1.784A2.52,2.52,0,0,1,1038.68,846.98Z" transform="translate(-881.919 -811.923)" fill="#c4b676"/>
      <path id="Path_1251" data-name="Path 1251" d="M1344.568,1125.71c-13.065,0-23.658,5.929-23.658,13.245,0,3.531,2.491,6.886,6.927,9.37a38,38,0,0,0,33.459,0c4.436-2.484,6.93-5.855,6.927-9.37C1368.223,1131.639,1357.63,1125.71,1344.568,1125.71Z" transform="translate(-1077.085 -1003.011)" fill="#ffa08a"/>
      <path id="Path_1252" data-name="Path 1252" d="M972.018,1125.71c-13.065,0-23.658,5.929-23.658,13.245,0,3.531,2.491,6.886,6.927,9.37a38,38,0,0,0,33.459,0c4.436-2.484,6.931-5.855,6.931-9.37C995.677,1131.639,985.083,1125.707,972.018,1125.71Z" transform="translate(-824.002 -1003.011)" fill="#ffa08a"/>
      <path id="Path_1253" data-name="Path 1253" d="M982.66,1044.2a24.351,24.351,0,1,1,48.7,0h-9.051a15.3,15.3,0,1,0-30.6,0Z" transform="translate(-847.304 -931.099)" fill="#1a1a1a"/>
      <path id="Path_1254" data-name="Path 1254" d="M1282.29,1044.2a24.351,24.351,0,1,1,48.7,0h-9.051a15.3,15.3,0,1,0-30.6,0Z" transform="translate(-1050.85 -931.099)" fill="#1a1a1a"/>
      <path id="Path_1255" data-name="Path 1255" d="M1022.074,1194.81a10.914,10.914,0,0,0-10.914,10.914v12.327a63.3,63.3,0,1,0,126.605,0v-12.327a10.914,10.914,0,0,0-10.914-10.914Z" transform="translate(-866.706 -1049.983)" fill="#fff"/>
      <path id="Path_1256" data-name="Path 1256" d="M1246.8,1194.8l-.023.026s10.747,20.641,0,39.7c13.412,21.186,1.6,45.262,1.6,45.262a63.319,63.319,0,0,0,49.345-61.752V1205.7a10.914,10.914,0,0,0-10.914-10.914Z" transform="translate(-1026.729 -1049.969)" fill="#b9dae9"/>
      <path id="Path_1257" data-name="Path 1257" d="M1343.62,1194.81v.026s12.317,14.166,0,29.212c14.182,13.18.963,39.143.963,39.143a63.1,63.1,0,0,0,18.911-45.121v-12.33a10.914,10.914,0,0,0-10.914-10.914Z" transform="translate(-1092.494 -1049.972)" fill="#1a1a1a"/>
      <path id="Path_1258" data-name="Path 1258" d="M1031.033,1194.81v.026s-12.32,14.166,0,29.212c-14.185,13.18-.963,39.143-.963,39.143a63.116,63.116,0,0,1-18.911-45.121v-12.33a10.914,10.914,0,0,1,10.914-10.914Z" transform="translate(-866.653 -1049.972)" fill="#1a1a1a"/>
      <path id="Path_1259" data-name="Path 1259" d="M1203.32,1187.75v4.526h53.99a8.593,8.593,0,0,1,8.667,8.667v12.33a60.991,60.991,0,0,1-61.043,61.036c-.536,0-1.075,0-1.605-.022v4.53c.533,0,1.072.019,1.605.019a65.6,65.6,0,0,0,65.566-65.562v-12.33a13.206,13.206,0,0,0-13.184-13.187Z" transform="translate(-997.215 -1045.189)" fill="#1a1a1a"/>
      <path id="Path_1260" data-name="Path 1260" d="M1017.267,1187.736a13.206,13.206,0,0,0-13.187,13.187v12.33a65.6,65.6,0,0,0,65.566,65.563c.539,0,1.075,0,1.605-.019v-4.529c-.533,0-1.069.023-1.605.023a60.991,60.991,0,0,1-61.043-61.036v-12.33a8.593,8.593,0,0,1,8.667-8.667h53.987v-4.526Z" transform="translate(-861.863 -1045.176)" fill="#1a1a1a"/>
    </g>
  </g>
</svg>
