<svg xmlns="http://www.w3.org/2000/svg" width="473.651" height="320.759" viewBox="0 0 473.651 320.759">
  <g id="figure" transform="translate(0)">
    <g id="Layer_1" data-name="Layer 1" transform="translate(0)">
      <path id="Path_1056" data-name="Path 1056" d="M1199.156,1195h-.274l-.21.031a1.216,1.216,0,0,0-.207.027l-.2.042-.186.04h-.027l-.061.027-.274.091-.191.079-.192.085-.182.1c-.061.033-.122.067-.179.1l-.174.113-.17.125c-.055.039-.106.085-.161.13l-.155.137-.146.149c-.049.049-.1.1-.143.152s-.091.107-.134.161l-.125.167c-.04.055-.079.112-.116.173s-.076.116-.109.177-.067.121-.1.185-.061.125-.088.188l-.082.192c-.024.067-.046.131-.067.194s-.045.134-.063.2-.033.134-.049.2-.027.137-.04.2-.021.137-.03.207-.021.14-.028.21,0,.137,0,.2v.353a.527.527,0,0,0,.028.207.971.971,0,0,1,.027.207c.012.067.027.14.046.207s.024.125.04.186v.03c0,.018.018.04.027.061.027.091.058.182.091.27s.049.131.076.195.055.128.085.188.061.125.1.186.067.121.1.18.076.119.115.173l.119.17c.042.055.085.109.131.161s.091.106.14.155l.146.149.155.143.161.131.164.125.173.118.176.11.186.1.188.091.192.076c.064.027.13.049.2.073l.2.058.2.055.2.036c.067,0,.137.024.207.03l.2.03h.563l.21-.027.206-.031.2-.043.186-.04h.027l.061-.027a2.881,2.881,0,0,0,.277-.094c.091-.036.128-.049.192-.076l.191-.085.182-.1.183-.1.173-.116c.058-.036.113-.079.17-.121s.106-.085.161-.131l.155-.134c.052-.049.1-.1.146-.149l.143-.149c.045-.055.091-.107.134-.161s.085-.109.125-.167l.119-.173c.036-.058.073-.116.106-.176l.1-.186c.031-.064.061-.124.088-.188s.055-.125.079-.192.049-.13.07-.194.042-.134.061-.2.036-.134.052-.2.027-.137.04-.207.021-.137.031-.2.021-.14.027-.21,0-.136,0-.207v-.286a.558.558,0,0,0,0-.067.813.813,0,0,0-.027-.21.536.536,0,0,0-.028-.207,1.891,1.891,0,0,1-.046-.2c-.018-.067-.021-.125-.04-.188v-.027a.351.351,0,0,0-.027-.061,2.794,2.794,0,0,0-.092-.27c-.024-.067-.049-.131-.076-.194s-.055-.128-.085-.189-.064-.125-.1-.186l-.1-.179-.116-.173c-.039-.058-.082-.112-.122-.167l-.131-.164-.14-.158-.146-.146c-.052-.049-.1-.1-.155-.14s-.1-.091-.158-.131-.113-.085-.167-.125-.115-.082-.176-.119l-.18-.11c-.058-.033-.118-.067-.182-.1l-.188-.091c-.061-.027-.128-.052-.192-.076s-.127-.052-.194-.073l-.2-.058c-.067-.021-.134-.036-.2-.055l-.2-.04-.21-.027-.2-.03h-.286Z" transform="translate(-943.344 -1062.823)" fill="#fff"/>
      <path id="Path_1057" data-name="Path 1057" d="M1199.156,1194.993h-.274l-.21.031a1.2,1.2,0,0,0-.207.027l-.2.042-.186.04h-.027l-.061.027-.274.091-.191.079-.192.085-.182.1c-.061.034-.122.067-.179.1l-.174.113-.17.125c-.055.04-.106.085-.161.131l-.155.137-.146.149c-.049.049-.1.1-.143.152s-.091.106-.134.161l-.125.167c-.04.054-.079.113-.116.173s-.076.115-.109.176-.067.122-.1.186-.061.125-.088.188l-.082.192c-.024.067-.046.131-.067.195s-.045.134-.063.2-.033.134-.049.2-.027.136-.04.2-.021.137-.03.207-.021.14-.028.21,0,.137,0,.2v.353a.526.526,0,0,0,.028.207.974.974,0,0,1,.027.21c.012.07.027.14.046.207s.024.122.04.182v.031c0,.019.018.04.027.061.027.091.058.183.091.271s.049.131.076.195.055.128.085.188.061.125.1.186.067.122.1.179a2.071,2.071,0,0,0,.115.173l.119.17c.042.055.085.109.131.161s.091.106.14.155l.146.149.155.143.161.131.164.125.173.119.176.109.186.1.188.091.192.076c.064.027.13.049.2.073l.2.058c.07.019.137.037.2.049a1.624,1.624,0,0,0,.2.04c.067,0,.137.025.207.031s.137.021.2.027h.563l.21-.027.206-.028.2-.045.186-.04h.027l.061-.028c.094-.027.186-.058.277-.091l.192-.079.191-.085.182-.1.183-.1c.058-.036.115-.073.173-.115s.113-.079.17-.122.106-.085.161-.128l.155-.137c.052-.049.1-.1.146-.149s.1-.1.143-.149.091-.106.134-.161.085-.109.125-.167l.119-.17c.036-.061.073-.118.106-.179l.1-.185c.031-.064.061-.125.088-.188s.055-.125.079-.189.049-.131.07-.2.042-.131.061-.2.036-.136.052-.2.027-.137.04-.207.021-.134.031-.2.021-.14.027-.21,0-.137,0-.2v-.292a.551.551,0,0,0,0-.063,1.263,1.263,0,0,0-.027-.213.9.9,0,0,0-.028-.2,1.793,1.793,0,0,1-.046-.207c-.018-.067-.021-.122-.04-.183v-.027a.223.223,0,0,0-.027-.061,2.589,2.589,0,0,0-.092-.274c-.024-.067-.049-.131-.076-.195s-.055-.128-.085-.188-.064-.125-.1-.186-.067-.118-.1-.179l-.116-.173-.122-.167c-.042-.054-.085-.109-.131-.161l-.14-.161-.146-.146c-.052-.048-.1-.094-.155-.14s-.1-.091-.158-.134l-.167-.125-.176-.118-.18-.107c-.058-.033-.118-.067-.182-.1s-.125-.064-.188-.094-.128-.052-.192-.076l-.194-.073-.2-.058c-.067-.021-.134-.037-.2-.052l-.2-.04-.21-.03-.2-.03h-.3Z" transform="translate(-943.344 -1062.816)" fill="#fff"/>
      <path id="Path_1058" data-name="Path 1058" d="M1199.156,1194.993h-.274l-.21.031a1.2,1.2,0,0,0-.207.027l-.2.042-.186.04h-.027l-.061.027-.274.091-.191.079-.192.085-.182.1c-.061.034-.122.067-.179.1l-.174.113-.17.125c-.055.04-.106.085-.161.131l-.155.137-.146.149c-.049.049-.1.1-.143.152s-.091.106-.134.161l-.125.167c-.04.054-.079.113-.116.173s-.076.115-.109.176-.067.122-.1.186-.061.125-.088.188l-.082.192c-.024.067-.046.131-.067.195s-.045.134-.063.2-.033.134-.049.2-.027.136-.04.2-.021.137-.03.207-.021.14-.028.21,0,.137,0,.2v.353a.526.526,0,0,0,.028.207.974.974,0,0,1,.027.21c.012.07.027.14.046.207s.024.122.04.182v.031c0,.019.018.04.027.061.027.091.058.183.091.271s.049.131.076.195.055.128.085.188.061.125.1.186.067.122.1.179a2.071,2.071,0,0,0,.115.173l.119.17c.042.055.085.109.131.161s.091.106.14.155l.146.149.155.143.161.131.164.125.173.119.176.109.186.1.188.091.192.076c.064.027.13.049.2.073l.2.058c.07.019.137.037.2.049a1.624,1.624,0,0,0,.2.04c.067,0,.137.025.207.031s.137.021.2.027h.563l.21-.027.206-.028.2-.045.186-.04h.027l.061-.028c.094-.027.186-.058.277-.091l.192-.079.191-.085.182-.1.183-.1c.058-.036.115-.073.173-.115s.113-.079.17-.122.106-.085.161-.128l.155-.137c.052-.049.1-.1.146-.149s.1-.1.143-.149.091-.106.134-.161.085-.109.125-.167l.119-.17c.036-.061.073-.118.106-.179l.1-.185c.031-.064.061-.125.088-.188s.055-.125.079-.189.049-.131.07-.2.042-.131.061-.2.036-.136.052-.2.027-.137.04-.207.021-.134.031-.2.021-.14.027-.21,0-.137,0-.2v-.292a.551.551,0,0,0,0-.063,1.263,1.263,0,0,0-.027-.213.9.9,0,0,0-.028-.2,1.793,1.793,0,0,1-.046-.207c-.018-.067-.021-.122-.04-.183v-.027a.223.223,0,0,0-.027-.061,2.589,2.589,0,0,0-.092-.274c-.024-.067-.049-.131-.076-.195s-.055-.128-.085-.188-.064-.125-.1-.186-.067-.118-.1-.179l-.116-.173-.122-.167c-.042-.054-.085-.109-.131-.161l-.14-.161-.146-.146c-.052-.048-.1-.094-.155-.14s-.1-.091-.158-.134l-.167-.125-.176-.118-.18-.107c-.058-.033-.118-.067-.182-.1s-.125-.064-.188-.094-.128-.052-.192-.076l-.194-.073-.2-.058c-.067-.021-.134-.037-.2-.052l-.2-.04-.21-.03-.2-.03h-.3Z" transform="translate(-943.344 -1062.816)" fill="#fff"/>
      <path id="Path_1059" data-name="Path 1059" d="M1199.156,1194.993h-.274l-.21.031a1.2,1.2,0,0,0-.207.027l-.2.042-.186.04h-.027l-.061.027-.274.091-.191.079-.192.085-.182.1c-.061.034-.122.067-.179.1l-.174.113-.17.125c-.055.04-.106.085-.161.131l-.155.137-.146.149c-.049.049-.1.1-.143.152s-.091.106-.134.161l-.125.167c-.04.054-.079.113-.116.173s-.076.115-.109.176-.067.122-.1.186-.061.125-.088.188l-.082.192c-.024.067-.046.131-.067.195s-.045.134-.063.2-.033.134-.049.2-.027.136-.04.2-.021.137-.03.207-.021.14-.028.21,0,.137,0,.2v.353a.526.526,0,0,0,.028.207.974.974,0,0,1,.027.21c.012.07.027.14.046.207s.024.122.04.182v.031c0,.019.018.04.027.061.027.091.058.183.091.271s.049.131.076.195.055.128.085.188.061.125.1.186.067.122.1.179a2.071,2.071,0,0,0,.115.173l.119.17c.042.055.085.109.131.161s.091.106.14.155l.146.149.155.143.161.131.164.125.173.119.176.109.186.1.188.091.192.076c.064.027.13.049.2.073l.2.058c.07.019.137.037.2.049a1.624,1.624,0,0,0,.2.04c.067,0,.137.025.207.031s.137.021.2.027h.563l.21-.027.206-.028.2-.045.186-.04h.027l.061-.028c.094-.027.186-.058.277-.091l.192-.079.191-.085.182-.1.183-.1c.058-.036.115-.073.173-.115s.113-.079.17-.122.106-.085.161-.128l.155-.137c.052-.049.1-.1.146-.149s.1-.1.143-.149.091-.106.134-.161.085-.109.125-.167l.119-.17c.036-.061.073-.118.106-.179l.1-.185c.031-.064.061-.125.088-.188s.055-.125.079-.189.049-.131.07-.2.042-.131.061-.2.036-.136.052-.2.027-.137.04-.207.021-.134.031-.2.021-.14.027-.21,0-.137,0-.2v-.292a.551.551,0,0,0,0-.063,1.263,1.263,0,0,0-.027-.213.9.9,0,0,0-.028-.2,1.793,1.793,0,0,1-.046-.207c-.018-.067-.021-.122-.04-.183v-.027a.223.223,0,0,0-.027-.061,2.589,2.589,0,0,0-.092-.274c-.024-.067-.049-.131-.076-.195s-.055-.128-.085-.188-.064-.125-.1-.186-.067-.118-.1-.179l-.116-.173-.122-.167c-.042-.054-.085-.109-.131-.161l-.14-.161-.146-.146c-.052-.048-.1-.094-.155-.14s-.1-.091-.158-.134l-.167-.125-.176-.118-.18-.107c-.058-.033-.118-.067-.182-.1s-.125-.064-.188-.094-.128-.052-.192-.076l-.194-.073-.2-.058c-.067-.021-.134-.037-.2-.052l-.2-.04-.21-.03-.2-.03h-.3Z" transform="translate(-943.344 -1062.816)" fill="#fff"/>
      <path id="Path_1060" data-name="Path 1060" d="M1199.156,1194.993h-.274l-.21.031a1.2,1.2,0,0,0-.207.027l-.2.042-.186.04h-.027l-.061.027-.274.091-.191.079-.192.085-.182.1c-.061.034-.122.067-.179.1l-.174.113-.17.125c-.055.04-.106.085-.161.131l-.155.137-.146.149c-.049.049-.1.1-.143.152s-.091.106-.134.161l-.125.167c-.04.054-.079.113-.116.173s-.076.115-.109.176-.067.122-.1.186-.061.125-.088.188l-.082.192c-.024.067-.046.131-.067.195s-.045.134-.063.2-.033.134-.049.2-.027.136-.04.2-.021.137-.03.207-.021.14-.028.21,0,.137,0,.2v.353a.526.526,0,0,0,.028.207.974.974,0,0,1,.027.21c.012.07.027.14.046.207s.024.122.04.182v.031c0,.019.018.04.027.061.027.091.058.183.091.271s.049.131.076.195.055.128.085.188.061.125.1.186.067.122.1.179a2.071,2.071,0,0,0,.115.173l.119.17c.042.055.085.109.131.161s.091.106.14.155l.146.149.155.143.161.131.164.125.173.119.176.109.186.1.188.091.192.076c.064.027.13.049.2.073l.2.058c.07.019.137.037.2.049a1.624,1.624,0,0,0,.2.04c.067,0,.137.025.207.031s.137.021.2.027h.563l.21-.027.206-.028.2-.045.186-.04h.027l.061-.028c.094-.027.186-.058.277-.091l.192-.079.191-.085.182-.1.183-.1c.058-.036.115-.073.173-.115s.113-.079.17-.122.106-.085.161-.128l.155-.137c.052-.049.1-.1.146-.149s.1-.1.143-.149.091-.106.134-.161.085-.109.125-.167l.119-.17c.036-.061.073-.118.106-.179l.1-.185c.031-.064.061-.125.088-.188s.055-.125.079-.189.049-.131.07-.2.042-.131.061-.2.036-.136.052-.2.027-.137.04-.207.021-.134.031-.2.021-.14.027-.21,0-.137,0-.2v-.292a.551.551,0,0,0,0-.063,1.263,1.263,0,0,0-.027-.213.9.9,0,0,0-.028-.2,1.793,1.793,0,0,1-.046-.207c-.018-.067-.021-.122-.04-.183v-.027a.223.223,0,0,0-.027-.061,2.589,2.589,0,0,0-.092-.274c-.024-.067-.049-.131-.076-.195s-.055-.128-.085-.188-.064-.125-.1-.186-.067-.118-.1-.179l-.116-.173-.122-.167c-.042-.054-.085-.109-.131-.161l-.14-.161-.146-.146c-.052-.048-.1-.094-.155-.14s-.1-.091-.158-.134l-.167-.125-.176-.118-.18-.107c-.058-.033-.118-.067-.182-.1s-.125-.064-.188-.094-.128-.052-.192-.076l-.194-.073-.2-.058c-.067-.021-.134-.037-.2-.052l-.2-.04-.21-.03-.2-.03h-.3Z" transform="translate(-943.344 -1062.816)" fill="#fff"/>
      <path id="Path_1061" data-name="Path 1061" d="M1199.156,1194.993h-.274l-.21.031a1.2,1.2,0,0,0-.207.027l-.2.042-.186.04h-.027l-.061.027-.274.091-.191.079-.192.085-.182.1c-.061.034-.122.067-.179.1l-.174.113-.17.125c-.055.04-.106.085-.161.131l-.155.137-.146.149c-.049.049-.1.1-.143.152s-.091.106-.134.161l-.125.167c-.04.054-.079.113-.116.173s-.076.115-.109.176-.067.122-.1.186-.061.125-.088.188l-.082.192c-.024.067-.046.131-.067.195s-.045.134-.063.2-.033.134-.049.2-.027.136-.04.2-.021.137-.03.207-.021.14-.028.21,0,.137,0,.2v.353a.526.526,0,0,0,.028.207.974.974,0,0,1,.027.21c.012.07.027.14.046.207s.024.122.04.182v.031c0,.019.018.04.027.061.027.091.058.183.091.271s.049.131.076.195.055.128.085.188.061.125.1.186.067.122.1.179a2.071,2.071,0,0,0,.115.173l.119.17c.042.055.085.109.131.161s.091.106.14.155l.146.149.155.143.161.131.164.125.173.119.176.109.186.1.188.091.192.076c.064.027.13.049.2.073l.2.058c.07.019.137.037.2.049a1.624,1.624,0,0,0,.2.04c.067,0,.137.025.207.031s.137.021.2.027h.563l.21-.027.206-.028.2-.045.186-.04h.027l.061-.028c.094-.027.186-.058.277-.091l.192-.079.191-.085.182-.1.183-.1c.058-.036.115-.073.173-.115s.113-.079.17-.122.106-.085.161-.128l.155-.137c.052-.049.1-.1.146-.149s.1-.1.143-.149.091-.106.134-.161.085-.109.125-.167l.119-.17c.036-.061.073-.118.106-.179l.1-.185c.031-.064.061-.125.088-.188s.055-.125.079-.189.049-.131.07-.2.042-.131.061-.2.036-.136.052-.2.027-.137.04-.207.021-.134.031-.2.021-.14.027-.21,0-.137,0-.2v-.292a.551.551,0,0,0,0-.063,1.263,1.263,0,0,0-.027-.213.9.9,0,0,0-.028-.2,1.793,1.793,0,0,1-.046-.207c-.018-.067-.021-.122-.04-.183v-.027a.223.223,0,0,0-.027-.061,2.589,2.589,0,0,0-.092-.274c-.024-.067-.049-.131-.076-.195s-.055-.128-.085-.188-.064-.125-.1-.186-.067-.118-.1-.179l-.116-.173-.122-.167c-.042-.054-.085-.109-.131-.161l-.14-.161-.146-.146c-.052-.048-.1-.094-.155-.14s-.1-.091-.158-.134l-.167-.125-.176-.118-.18-.107c-.058-.033-.118-.067-.182-.1s-.125-.064-.188-.094-.128-.052-.192-.076l-.194-.073-.2-.058c-.067-.021-.134-.037-.2-.052l-.2-.04-.21-.03-.2-.03h-.3Z" transform="translate(-943.344 -1062.816)" fill="#fff"/>
      <path id="Path_1062" data-name="Path 1062" d="M1199.156,1194.993h-.274l-.21.031a1.2,1.2,0,0,0-.207.027l-.2.042-.186.04h-.027l-.061.027-.274.091-.191.079-.192.085-.182.1c-.061.034-.122.067-.179.1l-.174.113-.17.125c-.055.04-.106.085-.161.131l-.155.137-.146.149c-.049.049-.1.1-.143.152s-.091.106-.134.161l-.125.167c-.04.054-.079.113-.116.173s-.076.115-.109.176-.067.122-.1.186-.061.125-.088.188l-.082.192c-.024.067-.046.131-.067.195s-.045.134-.063.2-.033.134-.049.2-.027.136-.04.2-.021.137-.03.207-.021.14-.028.21,0,.137,0,.2v.353a.526.526,0,0,0,.028.207.974.974,0,0,1,.027.21c.012.07.027.14.046.207s.024.122.04.182v.031c0,.019.018.04.027.061.027.091.058.183.091.271s.049.131.076.195.055.128.085.188.061.125.1.186.067.122.1.179a2.071,2.071,0,0,0,.115.173l.119.17c.042.055.085.109.131.161s.091.106.14.155l.146.149.155.143.161.131.164.125.173.119.176.109.186.1.188.091.192.076c.064.027.13.049.2.073l.2.058c.07.019.137.037.2.049a1.624,1.624,0,0,0,.2.04c.067,0,.137.025.207.031s.137.021.2.027h.563l.21-.027.206-.028.2-.045.186-.04h.027l.061-.028c.094-.027.186-.058.277-.091l.192-.079.191-.085.182-.1.183-.1c.058-.036.115-.073.173-.115s.113-.079.17-.122.106-.085.161-.128l.155-.137c.052-.049.1-.1.146-.149s.1-.1.143-.149.091-.106.134-.161.085-.109.125-.167l.119-.17c.036-.061.073-.118.106-.179l.1-.185c.031-.064.061-.125.088-.188s.055-.125.079-.189.049-.131.07-.2.042-.131.061-.2.036-.136.052-.2.027-.137.04-.207.021-.134.031-.2.021-.14.027-.21,0-.137,0-.2v-.292a.551.551,0,0,0,0-.063,1.263,1.263,0,0,0-.027-.213.9.9,0,0,0-.028-.2,1.793,1.793,0,0,1-.046-.207c-.018-.067-.021-.122-.04-.183v-.027a.223.223,0,0,0-.027-.061,2.589,2.589,0,0,0-.092-.274c-.024-.067-.049-.131-.076-.195s-.055-.128-.085-.188-.064-.125-.1-.186-.067-.118-.1-.179l-.116-.173-.122-.167c-.042-.054-.085-.109-.131-.161l-.14-.161-.146-.146c-.052-.048-.1-.094-.155-.14s-.1-.091-.158-.134l-.167-.125-.176-.118-.18-.107c-.058-.033-.118-.067-.182-.1s-.125-.064-.188-.094-.128-.052-.192-.076l-.194-.073-.2-.058c-.067-.021-.134-.037-.2-.052l-.2-.04-.21-.03-.2-.03h-.3Z" transform="translate(-943.344 -1062.816)" fill="#fff"/>
      <path id="Path_1063" data-name="Path 1063" d="M1199.156,1194.993h-.274l-.21.031a1.2,1.2,0,0,0-.207.027l-.2.042-.186.04h-.027l-.061.027-.274.091-.191.079-.192.085-.182.1c-.061.034-.122.067-.179.1l-.174.113-.17.125c-.055.04-.106.085-.161.131l-.155.137-.146.149c-.049.049-.1.1-.143.152s-.091.106-.134.161l-.125.167c-.04.054-.079.113-.116.173s-.076.115-.109.176-.067.122-.1.186-.061.125-.088.188l-.082.192c-.024.067-.046.131-.067.195s-.045.134-.063.2-.033.134-.049.2-.027.136-.04.2-.021.137-.03.207-.021.14-.028.21,0,.137,0,.2v.353a.526.526,0,0,0,.028.207.974.974,0,0,1,.027.21c.012.07.027.14.046.207s.024.122.04.182v.031c0,.019.018.04.027.061.027.091.058.183.091.271s.049.131.076.195.055.128.085.188.061.125.1.186.067.122.1.179a2.071,2.071,0,0,0,.115.173l.119.17c.042.055.085.109.131.161s.091.106.14.155l.146.149.155.143.161.131.164.125.173.119.176.109.186.1.188.091.192.076c.064.027.13.049.2.073l.2.058c.07.019.137.037.2.049a1.624,1.624,0,0,0,.2.04c.067,0,.137.025.207.031s.137.021.2.027h.563l.21-.027.206-.028.2-.045.186-.04h.027l.061-.028c.094-.027.186-.058.277-.091l.192-.079.191-.085.182-.1.183-.1c.058-.036.115-.073.173-.115s.113-.079.17-.122.106-.085.161-.128l.155-.137c.052-.049.1-.1.146-.149s.1-.1.143-.149.091-.106.134-.161.085-.109.125-.167l.119-.17c.036-.061.073-.118.106-.179l.1-.185c.031-.064.061-.125.088-.188s.055-.125.079-.189.049-.131.07-.2.042-.131.061-.2.036-.136.052-.2.027-.137.04-.207.021-.134.031-.2.021-.14.027-.21,0-.137,0-.2v-.292a.551.551,0,0,0,0-.063,1.263,1.263,0,0,0-.027-.213.9.9,0,0,0-.028-.2,1.793,1.793,0,0,1-.046-.207c-.018-.067-.021-.122-.04-.183v-.027a.223.223,0,0,0-.027-.061,2.589,2.589,0,0,0-.092-.274c-.024-.067-.049-.131-.076-.195s-.055-.128-.085-.188-.064-.125-.1-.186-.067-.118-.1-.179l-.116-.173-.122-.167c-.042-.054-.085-.109-.131-.161l-.14-.161-.146-.146c-.052-.048-.1-.094-.155-.14s-.1-.091-.158-.134l-.167-.125-.176-.118-.18-.107c-.058-.033-.118-.067-.182-.1s-.125-.064-.188-.094-.128-.052-.192-.076l-.194-.073-.2-.058c-.067-.021-.134-.037-.2-.052l-.2-.04-.21-.03-.2-.03h-.3Z" transform="translate(-943.344 -1062.816)" fill="#fff"/>
      <path id="Path_1064" data-name="Path 1064" d="M1199.156,1194.993h-.274l-.21.031a1.2,1.2,0,0,0-.207.027l-.2.042-.186.04h-.027l-.061.027-.274.091-.191.079-.192.085-.182.1c-.061.034-.122.067-.179.1l-.174.113-.17.125c-.055.04-.106.085-.161.131l-.155.137-.146.149c-.049.049-.1.1-.143.152s-.091.106-.134.161l-.125.167c-.04.054-.079.113-.116.173s-.076.115-.109.176-.067.122-.1.186-.061.125-.088.188l-.082.192c-.024.067-.046.131-.067.195s-.045.134-.063.2-.033.134-.049.2-.027.136-.04.2-.021.137-.03.207-.021.14-.028.21,0,.137,0,.2v.353a.526.526,0,0,0,.028.207.974.974,0,0,1,.027.21c.012.07.027.14.046.207s.024.122.04.182v.031c0,.019.018.04.027.061.027.091.058.183.091.271s.049.131.076.195.055.128.085.188.061.125.1.186.067.122.1.179a2.071,2.071,0,0,0,.115.173l.119.17c.042.055.085.109.131.161s.091.106.14.155l.146.149.155.143.161.131.164.125.173.119.176.109.186.1.188.091.192.076c.064.027.13.049.2.073l.2.058c.07.019.137.037.2.049a1.624,1.624,0,0,0,.2.04c.067,0,.137.025.207.031s.137.021.2.027h.563l.21-.027.206-.028.2-.045.186-.04h.027l.061-.028c.094-.027.186-.058.277-.091l.192-.079.191-.085.182-.1.183-.1c.058-.036.115-.073.173-.115s.113-.079.17-.122.106-.085.161-.128l.155-.137c.052-.049.1-.1.146-.149s.1-.1.143-.149.091-.106.134-.161.085-.109.125-.167l.119-.17c.036-.061.073-.118.106-.179l.1-.185c.031-.064.061-.125.088-.188s.055-.125.079-.189.049-.131.07-.2.042-.131.061-.2.036-.136.052-.2.027-.137.04-.207.021-.134.031-.2.021-.14.027-.21,0-.137,0-.2v-.292a.551.551,0,0,0,0-.063,1.263,1.263,0,0,0-.027-.213.9.9,0,0,0-.028-.2,1.793,1.793,0,0,1-.046-.207c-.018-.067-.021-.122-.04-.183v-.027a.223.223,0,0,0-.027-.061,2.589,2.589,0,0,0-.092-.274c-.024-.067-.049-.131-.076-.195s-.055-.128-.085-.188-.064-.125-.1-.186-.067-.118-.1-.179l-.116-.173-.122-.167c-.042-.054-.085-.109-.131-.161l-.14-.161-.146-.146c-.052-.048-.1-.094-.155-.14s-.1-.091-.158-.134l-.167-.125-.176-.118-.18-.107c-.058-.033-.118-.067-.182-.1s-.125-.064-.188-.094-.128-.052-.192-.076l-.194-.073-.2-.058c-.067-.021-.134-.037-.2-.052l-.2-.04-.21-.03-.2-.03h-.3Z" transform="translate(-943.344 -1062.816)" fill="#fff"/>
      <path id="Path_1065" data-name="Path 1065" d="M1199.156,1194.993h-.274l-.21.031a1.2,1.2,0,0,0-.207.027l-.2.042-.186.04h-.027l-.061.027-.274.091-.191.079-.192.085-.182.1c-.061.034-.122.067-.179.1l-.174.113-.17.125c-.055.04-.106.085-.161.131l-.155.137-.146.149c-.049.049-.1.1-.143.152s-.091.106-.134.161l-.125.167c-.04.054-.079.113-.116.173s-.076.115-.109.176-.067.122-.1.186-.061.125-.088.188l-.082.192c-.024.067-.046.131-.067.195s-.045.134-.063.2-.033.134-.049.2-.027.136-.04.2-.021.137-.03.207-.021.14-.028.21,0,.137,0,.2v.353a.526.526,0,0,0,.028.207.974.974,0,0,1,.027.21c.012.07.027.14.046.207s.024.122.04.182v.031c0,.019.018.04.027.061.027.091.058.183.091.271s.049.131.076.195.055.128.085.188.061.125.1.186.067.122.1.179a2.071,2.071,0,0,0,.115.173l.119.17c.042.055.085.109.131.161s.091.106.14.155l.146.149.155.143.161.131.164.125.173.119.176.109.186.1.188.091.192.076c.064.027.13.049.2.073l.2.058c.07.019.137.037.2.049a1.624,1.624,0,0,0,.2.04c.067,0,.137.025.207.031s.137.021.2.027h.563l.21-.027.206-.028.2-.045.186-.04h.027l.061-.028c.094-.027.186-.058.277-.091l.192-.079.191-.085.182-.1.183-.1c.058-.036.115-.073.173-.115s.113-.079.17-.122.106-.085.161-.128l.155-.137c.052-.049.1-.1.146-.149s.1-.1.143-.149.091-.106.134-.161.085-.109.125-.167l.119-.17c.036-.061.073-.118.106-.179l.1-.185c.031-.064.061-.125.088-.188s.055-.125.079-.189.049-.131.07-.2.042-.131.061-.2.036-.136.052-.2.027-.137.04-.207.021-.134.031-.2.021-.14.027-.21,0-.137,0-.2v-.292a.551.551,0,0,0,0-.063,1.263,1.263,0,0,0-.027-.213.9.9,0,0,0-.028-.2,1.793,1.793,0,0,1-.046-.207c-.018-.067-.021-.122-.04-.183v-.027a.223.223,0,0,0-.027-.061,2.589,2.589,0,0,0-.092-.274c-.024-.067-.049-.131-.076-.195s-.055-.128-.085-.188-.064-.125-.1-.186-.067-.118-.1-.179l-.116-.173-.122-.167c-.042-.054-.085-.109-.131-.161l-.14-.161-.146-.146c-.052-.048-.1-.094-.155-.14s-.1-.091-.158-.134l-.167-.125-.176-.118-.18-.107c-.058-.033-.118-.067-.182-.1s-.125-.064-.188-.094-.128-.052-.192-.076l-.194-.073-.2-.058c-.067-.021-.134-.037-.2-.052l-.2-.04-.21-.03-.2-.03h-.3Z" transform="translate(-943.344 -1062.816)" fill="#fff"/>
      <path id="Path_1066" data-name="Path 1066" d="M564.639,1015.418a79.93,79.93,0,0,0-37.491,10.193c-29.633,16.487-49.056,48.071-65.947,74.512-13.319,20.847-26.659,34.211-37.394,38.1a19.969,19.969,0,0,1-15.2-.082c-5.25-2.064-11.319-6.612-17.831-14.69l-7.068-8.759-6.245,9.355c-11.7,17.515-13.261,38.817-5.129,55.45s27.112,27.69,51.075,23.713c7.9-1.307,12.881-1.31,13.3-1.14.207.085-.033-.328.447.678a24.7,24.7,0,0,1,1.52,7.6c.541,6.8,3.058,13.091,8,17.226s11.7,5.381,18.1,4.3c12.8-2.128,25.994-11.772,39.623-28.669,4.435-5.5,7.649-6.634,7.479-6.634-.082,0-.192-.252.717.581a22.417,22.417,0,0,1,4.1,6.129c4.256,8.588,10.507,14.842,18.177,17.441s15.839,1.362,23.367-1.891c15.055-6.506,29.426-20.843,42.921-38.981,26.988-36.269,49.831-87.758,48.156-127.426l-.167-4.013-3.262-2.347C614.835,1023.724,587.789,1014.883,564.639,1015.418Zm.885,15.994c18.095-.511,39.784,6.582,67.282,25.7-.389,32.369-20.856,80.565-44.9,112.875-12.522,16.827-26.164,29.331-36.218,33.676-5.025,2.171-8.689,2.365-11.513,1.408s-5.743-3.238-8.68-9.148a36.022,36.022,0,0,0-7.734-10.944,18.042,18.042,0,0,0-11.8-4.922c-8.786-.04-14.778,5.776-20.421,12.769-12.118,15.028-23.613,21.765-29.49,22.747-2.934.49-4.013-.033-4.776-.672s-1.824-2.128-2.128-5.865c-.416-5.211-1.216-9.506-3.071-13.377a18.233,18.233,0,0,0-9.105-8.856c-7.692-3.146-14.386-1.167-22.248.134-18.262,3.022-28.3-3.952-33.548-14.681-3.977-8.132-4.53-18.943-.839-29.3a51.819,51.819,0,0,0,16.228,10.586,37.842,37.842,0,0,0,26.863.234c17.189-6.22,31.527-22.555,45.7-44.736,16.925-26.492,35.777-55.459,60.055-68.969a65.195,65.195,0,0,1,30.344-8.643Z" transform="translate(-367.25 -937.821)" fill="#1a1a1a"/>
      <path id="Path_1067" data-name="Path 1067" d="M585.66,1041.656c-47.162.207-74.989,44.386-98.5,81.172-27.492,43.031-55.352,59.4-83.83,24.066-20.29,30.387-4.5,73.423,37.741,66.434,15.757-2.608,23.355-3.952,24.838,14.62,1.684,21.05,25.315,20.248,51.075-11.677,10.081-12.5,18.417-13.921,26.121,1.581,28.836,58,120.01-74.879,116.97-146.84-29.356-21.114-53.732-29.465-74.4-29.374Z" transform="translate(-386.246 -956.085)" fill="#c21532"/>
      <path id="Path_1068" data-name="Path 1068" d="M711.081,1116.889c-22.546,40.179-45.025,116.286-96.151,129.846,2.386,2.344,3.806,6.509,4.363,13.483,1.684,21.05,25.315,20.247,51.075-11.677,10.081-12.5,18.417-13.921,26.121,1.581,28.836,58,120.011-74.879,116.97-146.84,0,0-67.188-42.2-102.362,13.6Z" transform="translate(-539.631 -988.344)" fill="#8d1330"/>
      <path id="Path_1069" data-name="Path 1069" d="M518.239,1142.648c28.79-42.167,51.224-108.23,102.286-99.365a82.559,82.559,0,0,0-16.21-1.584c-47.162.207-74.989,44.386-98.5,81.173-27.492,43.031-55.352,59.4-83.833,24.066-6.822,40.185,42.59,74.308,96.258-4.3Z" transform="translate(-404.901 -956.128)" fill="#f31931"/>
      <path id="Path_1070" data-name="Path 1070" d="M579.215,1035.138a74.195,74.195,0,0,0-34.81,9.616c-27.626,15.371-46.837,45.974-63.74,72.432-13.635,21.348-27.362,35.825-40.507,40.586a26.664,26.664,0,0,1-19.582-.137c-6.6-2.587-13.422-7.926-20.39-16.569l-1.766-2.192-1.56,2.338c-10.534,15.776-11.768,34.868-4.718,49.287s22.68,23.944,44.514,20.333c7.883-1.3,13.508-2.046,16.651-.76a6.685,6.685,0,0,1,3.694,3.742c.994,2.085,1.739,5.262,2.1,9.765.453,5.648,2.432,10.145,5.8,12.966s8,3.788,13.106,2.934c10.2-1.706,22.759-10.251,35.819-26.449,4.892-6.062,9.145-8.953,12.334-8.941a6.993,6.993,0,0,1,4.864,2.207,27.771,27.771,0,0,1,5.472,7.938c3.77,7.6,8.765,12.349,14.617,14.331s12.331,1.14,18.919-1.709c13.179-5.7,27.276-19.345,40.407-36.99,26.261-35.291,48.5-86.569,46.94-123.467l-.043-1-.815-.587c-30.344-21.825-55.76-30.21-77.3-29.675Zm.222,4c20.266-.529,44.335,7.421,73.809,28.441,1.04,35.02-20.591,85.511-46.128,119.828-12.887,17.329-26.8,30.508-38.732,35.664-5.965,2.578-11.316,3.159-15.958,1.59s-8.816-5.344-12.24-12.258a30.612,30.612,0,0,0-6.384-9.151,11.45,11.45,0,0,0-7.643-3.287c-5.424-.027-10.376,4.041-15.566,10.477-12.687,15.73-24.817,23.549-33.29,24.966-4.235.708-7.439-.079-9.771-2.028s-3.952-5.247-4.332-10.127c-.383-4.785-1.149-8.409-2.487-11.215a11.186,11.186,0,0,0-5.858-5.776c-4.965-2.031-11.018-.793-18.892.511-20.406,3.374-33.794-5.126-40.13-18.071-6-12.261-5.39-28.708,2.976-42.827,6.661,7.765,13.377,12.933,20.238,15.621a31.136,31.136,0,0,0,22.5.176c14.766-5.344,28.73-20.567,42.581-42.258,16.912-26.474,35.98-56.423,62.269-71.049a70.848,70.848,0,0,1,33.022-9.227Z" transform="translate(-381.494 -951.543)" fill="#1a1a1a"/>
      <path id="Path_1071" data-name="Path 1071" d="M606.539,1037.48a50.232,50.232,0,0,0-25.255,6.928c-10.09,5.81-18.746,14.769-26.638,25.233-15.784,20.938-28.6,48.035-42.848,68.9-26.589,38.945-51.652,49.327-68.708,45.84s-27.082-20.844-23.823-40.03l-4.071-.69c-3.554,21,7.695,40.817,27.079,44.77s45.855-7.9,72.934-47.554c14.538-21.281,27.337-48.323,42.736-68.744,7.7-10.209,16.021-18.743,25.4-24.142a46.015,46.015,0,0,1,32.092-5.609l.708-4.068a54.7,54.7,0,0,0-9.607-.833Z" transform="translate(-400.167 -953.191)" fill="#1a1a1a"/>
      <path id="Path_1072" data-name="Path 1072" d="M1063.429,1566.115c-15.115,19.7-43.17,42.669-51.287,36.449s6.819-39.27,21.938-58.979,26.811-16.983,32.812-12.376,11.656,15.2-3.463,34.9Z" transform="translate(-814.491 -1294.512)" fill="#3aa89a"/>
      <path id="Path_1073" data-name="Path 1073" d="M1058.184,1515.37a20.977,20.977,0,0,0-17.226-3.876c-7.175,1.557-14.806,6.755-22.829,17.207a160.209,160.209,0,0,0-20.369,35.768,67.224,67.224,0,0,0-4.712,16.688c-.584,5.037-.283,10.394,4.1,13.76s9.634,2.271,14.35.4a67.229,67.229,0,0,0,14.9-8.871,160.281,160.281,0,0,0,29.277-28.936c8.02-10.452,11.063-19.153,10.71-26.5a20.977,20.977,0,0,0-8.209-15.635Zm-6.284,8.208a9.951,9.951,0,0,1,4.174,7.941c.195,4.041-1.492,10.47-8.591,19.722a152.5,152.5,0,0,1-27.27,26.957,59.749,59.749,0,0,1-12.514,7.533,10.234,10.234,0,0,1-4.2.912,10.622,10.622,0,0,1-.195-4.3,59.681,59.681,0,0,1,4.041-14.037,152.435,152.435,0,0,1,18.98-33.32c7.1-9.251,12.872-12.547,16.824-13.4a9.958,9.958,0,0,1,8.753,1.979Z" transform="translate(-802.64 -1282.767)" fill="#1a1a1a"/>
      <path id="Path_1074" data-name="Path 1074" d="M1394.8,1555.456c-9.5,22.959-30.666,52.394-40.1,48.5s-3.581-39.7,5.922-62.627,21.506-23.343,28.5-20.448,15.2,11.662,5.685,34.606Z" transform="translate(-1051.162 -1288.758)" fill="#3aa89a"/>
      <path id="Path_1075" data-name="Path 1075" d="M1379.263,1504.323a20.959,20.959,0,0,0-17.633.714c-6.527,3.344-12.553,10.358-17.6,22.528a160.329,160.329,0,0,0-10.422,39.826,67.123,67.123,0,0,0-.231,17.329c.741,5.007,2.417,10.112,7.524,12.227s9.893-.3,13.963-3.323a67.029,67.029,0,0,0,12.1-12.428,160.5,160.5,0,0,0,20.789-35.527c5.041-12.161,5.725-21.379,3.484-28.371a20.955,20.955,0,0,0-11.969-12.982Zm-3.952,9.54a9.9,9.9,0,0,1,6.081,6.591c1.216,3.855,1.271,10.5-3.192,21.281a152.453,152.453,0,0,1-19.369,33.1,60.073,60.073,0,0,1-10.133,10.519,2.813,2.813,0,1,1-5.123-2.122,59.616,59.616,0,0,1,.274-14.593,152.091,152.091,0,0,1,9.707-37.09c4.463-10.771,9.188-15.45,12.784-17.3a9.951,9.951,0,0,1,8.966-.352Z" transform="translate(-1039.339 -1276.988)" fill="#1a1a1a"/>
      <path id="Path_1076" data-name="Path 1076" d="M745.253,1156.532c-19.7,15.119-52.756,30.043-58.979,21.938s16.748-36.178,36.452-51.288,30.3-9.467,34.9-3.463,7.324,17.694-12.376,32.813Z" transform="translate(-588.562 -1008.893)" fill="#3aa89a"/>
      <path id="Path_1077" data-name="Path 1077" d="M749.749,1108.736a20.95,20.95,0,0,0-15.636-8.208c-7.333-.353-16.049,2.69-26.5,10.71a160.182,160.182,0,0,0-28.936,29.277,67.735,67.735,0,0,0-8.871,14.9c-1.879,4.712-2.961,9.966.4,14.35s8.719,4.688,13.757,4.1a67.236,67.236,0,0,0,16.69-4.712,160.3,160.3,0,0,0,35.765-20.369c10.455-8.02,15.651-15.654,17.207-22.829a20.977,20.977,0,0,0-3.876-17.226Zm-8.19,6.284a9.96,9.96,0,0,1,1.976,8.753c-.857,3.952-4.153,9.729-13.4,16.827a152.253,152.253,0,0,1-33.32,18.977,58.8,58.8,0,0,1-14.037,4.04,10.772,10.772,0,0,1-4.3-.191,11,11,0,0,1,.912-4.2,59.68,59.68,0,0,1,7.536-12.51,152.417,152.417,0,0,1,26.957-27.273c9.248-7.1,15.681-8.786,19.722-8.591a9.95,9.95,0,0,1,7.941,4.177Z" transform="translate(-576.588 -997.053)" fill="#1a1a1a"/>
      <path id="Path_1078" data-name="Path 1078" d="M1641.664,1148.005c24.625-3.241,60.709.362,62.041,10.492s-32.576,22.95-57.2,26.191-30.97-6.953-31.958-14.453,2.5-18.989,27.127-22.23Z" transform="translate(-1235.245 -1029.311)" fill="#3aa89a"/>
      <path id="Path_1079" data-name="Path 1079" d="M1597.578,1159.093a20.978,20.978,0,0,0,9.425,14.921c6.174,3.973,15.246,5.7,28.31,3.976a159.928,159.928,0,0,0,39.7-10.887,67.178,67.178,0,0,0,15.134-8.47c3.977-3.153,7.545-7.147,6.825-12.629s-5.208-8.418-9.862-10.431a66.84,66.84,0,0,0-16.809-4.256,160.1,160.1,0,0,0-41.161-.24c-13.073,1.718-21.382,5.728-26.316,11.164A20.977,20.977,0,0,0,1597.578,1159.093Zm10.236-1.347a9.951,9.951,0,0,1,2.663-8.567c2.718-2.991,8.458-6.351,20.019-7.871a152.553,152.553,0,0,1,38.346.222,59.627,59.627,0,0,1,14.176,3.521,10.817,10.817,0,0,1,3.624,2.317,10.718,10.718,0,0,1-2.9,3.177,59.922,59.922,0,0,1-12.769,7.068,152.491,152.491,0,0,1-36.983,10.139c-11.553,1.521-17.974-.231-21.373-2.432a9.981,9.981,0,0,1-4.791-7.6Z" transform="translate(-1223.409 -1017.491)" fill="#1a1a1a"/>
      <path id="Path_1080" data-name="Path 1080" d="M874.546,760.23a42.508,42.508,0,0,0-42.417,42.417V990.5a42.505,42.505,0,0,0,42.417,42.413H1062.4a42.5,42.5,0,0,0,42.417-42.413V802.646A42.506,42.506,0,0,0,1062.4,760.23Zm0,16.523H1062.4a25.659,25.659,0,0,1,25.9,25.893V990.5a25.659,25.659,0,0,1-25.9,25.893H874.546A25.658,25.658,0,0,1,848.653,990.5V802.646a25.658,25.658,0,0,1,25.893-25.893Z" transform="translate(-690.798 -760.23)" fill="#1a1a1a"/>
      <path id="Path_1081" data-name="Path 1081" d="M893.466,787.41h187.846a34.08,34.08,0,0,1,34.156,34.153v187.852a34.08,34.08,0,0,1-34.156,34.156H893.466a34.08,34.08,0,0,1-34.156-34.153V821.563a34.08,34.08,0,0,1,34.156-34.153Z" transform="translate(-709.715 -779.147)" fill="#3aa89a"/>
      <path id="Path_1082" data-name="Path 1082" d="M888.737,780.62a36.178,36.178,0,0,0-36.217,36.217v187.852a36.178,36.178,0,0,0,36.217,36.22h187.849a36.178,36.178,0,0,0,36.224-36.22V816.837a36.178,36.178,0,0,0-36.224-36.217Zm0,4.128h187.849a31.974,31.974,0,0,1,32.089,32.089v187.852a31.974,31.974,0,0,1-32.089,32.089H888.737a31.974,31.974,0,0,1-32.089-32.089V816.837a31.974,31.974,0,0,1,32.089-32.089Z" transform="translate(-704.99 -774.421)" fill="#1a1a1a"/>
      <path id="Path_1083" data-name="Path 1083" d="M919.624,823.43h185.681a24.24,24.24,0,0,1,24.291,24.294v185.669a24.239,24.239,0,0,1-24.291,24.3H919.624A24.242,24.242,0,0,1,895.33,1033.4V847.724a24.242,24.242,0,0,1,24.294-24.294Z" transform="translate(-734.785 -804.216)" fill="#326e79"/>
      <path id="Path_1084" data-name="Path 1084" d="M962.915,901.226a9.029,9.029,0,0,0-9.051,9.048v49.691H950.52a5.068,5.068,0,0,0-5.08,5.08v59.283a5.071,5.071,0,0,0,5.08,5.083h3.344V1079.1a9.029,9.029,0,0,0,9.051,9.05h168.836a9.032,9.032,0,0,0,9.053-9.05v-49.677h3.344a5.074,5.074,0,0,0,5.083-5.083V965.06a5.071,5.071,0,0,0-5.083-5.08H1140.8V910.274a9.032,9.032,0,0,0-9.053-9.054Z" transform="translate(-769.66 -858.357)" fill="#b4afa9"/>
      <path id="Path_1085" data-name="Path 1085" d="M982.193,901.236h168.839a9.032,9.032,0,0,1,9.051,9.044v168.839a9.033,9.033,0,0,1-9.051,9.051H982.193a9.032,9.032,0,0,1-9.054-9.051V910.28a9.032,9.032,0,0,1,9.054-9.051Z" transform="translate(-788.939 -858.364)" fill="#b4afa9"/>
      <path id="Path_1086" data-name="Path 1086" d="M958.175,894.436a11.139,11.139,0,0,0-11.118,11.112v47.627h-1.28a7.175,7.175,0,0,0-7.147,7.144V1019.6a7.178,7.178,0,0,0,7.147,7.147h1.28v47.627a11.139,11.139,0,0,0,11.118,11.118h168.839a11.139,11.139,0,0,0,11.115-11.118v-47.612h1.28a7.178,7.178,0,0,0,7.147-7.148V960.335a7.178,7.178,0,0,0-7.147-7.144h-1.28V905.548a11.139,11.139,0,0,0-11.115-11.118Zm0,4.131h168.839a6.929,6.929,0,0,1,6.992,6.992v51.756h5.408a2.967,2.967,0,0,1,3.016,3.016v59.283a2.964,2.964,0,0,1-3.016,3.016h-5.408v51.759a6.926,6.926,0,0,1-6.992,6.992H958.175a6.926,6.926,0,0,1-6.992-6.992v-51.756h-5.411a2.961,2.961,0,0,1-3.016-3.016V960.335a2.964,2.964,0,0,1,3.016-3.016h5.411V905.548a6.925,6.925,0,0,1,6.992-6.992Z" transform="translate(-764.921 -853.631)" fill="#8b8b8b"/>
      <path id="Path_1087" data-name="Path 1087" d="M1022.233,947h152.358a3.384,3.384,0,0,1,3.393,3.393v152.355a3.383,3.383,0,0,1-3.393,3.393H1022.233a3.384,3.384,0,0,1-3.393-3.393V950.384a3.384,3.384,0,0,1,3.393-3.384Z" transform="translate(-820.746 -890.219)" fill="#d7d4d1"/>
      <path id="Path_1088" data-name="Path 1088" d="M1511,947a3.384,3.384,0,0,1,3.393,3.393v152.355a3.384,3.384,0,0,1-3.393,3.393h6.147a3.384,3.384,0,0,0,3.393-3.393V950.384a3.384,3.384,0,0,0-3.408-3.384Z" transform="translate(-1163.281 -890.219)" fill="#c1bcb7"/>
      <path id="Path_1089" data-name="Path 1089" d="M1178,1241.56,1018.86,1284.2v23.549a3.387,3.387,0,0,0,3.393,3.393h152.358a3.387,3.387,0,0,0,3.393-3.393Z" transform="translate(-820.76 -1095.228)" fill="#c1bcb7"/>
      <path id="Path_1090" data-name="Path 1090" d="M1028.386,947a3.383,3.383,0,0,0-3.393,3.393v152.355a3.383,3.383,0,0,0,3.393,3.393h-6.153a3.384,3.384,0,0,1-3.393-3.393V950.384a3.384,3.384,0,0,1,3.393-3.384Z" transform="translate(-820.746 -890.219)" fill="#fff"/>
      <path id="Path_1091" data-name="Path 1091" d="M1017.507,940.142a5.494,5.494,0,0,0-5.457,5.472v152.355a5.494,5.494,0,0,0,5.457,5.472h152.358a5.494,5.494,0,0,0,5.457-5.472V945.6a5.493,5.493,0,0,0-5.457-5.472Zm0,4.132h152.358a1.283,1.283,0,0,1,1.328,1.328v152.355a1.283,1.283,0,0,1-1.328,1.329H1017.507a1.28,1.28,0,0,1-1.325-1.329V945.6a1.279,1.279,0,0,1,1.325-1.328Z" transform="translate(-816.02 -885.437)" fill="#959595"/>
      <rect id="Rectangle_21" data-name="Rectangle 21" width="55.565" height="11.996" transform="translate(249.893 13.216)" fill="#3aa89a"/>
      <rect id="Rectangle_22" data-name="Rectangle 22" width="55.565" height="11.996" transform="translate(249.893 247.47)" fill="#3aa89a"/>
      <path id="Path_1092" data-name="Path 1092" d="M945.614,1535.836a3.952,3.952,0,1,1-1.155-2.791A3.952,3.952,0,0,1,945.614,1535.836Z" transform="translate(-764.28 -1297.289)" fill="#c4b676"/>
      <path id="Path_1093" data-name="Path 1093" d="M1002.386,839.482a2.3,2.3,0,1,1-.672-1.626A2.3,2.3,0,0,1,1002.386,839.482Z" transform="translate(-806.095 -813.787)" fill="#c4b676"/>
      <path id="Path_1094" data-name="Path 1094" d="M1027.816,839.482a2.3,2.3,0,1,1-.672-1.626A2.3,2.3,0,0,1,1027.816,839.482Z" transform="translate(-823.793 -813.787)" fill="#c4b676"/>
      <path id="Path_1095" data-name="Path 1095" d="M1053.228,839.481a2.3,2.3,0,1,1-.675-1.626A2.3,2.3,0,0,1,1053.228,839.481Z" transform="translate(-841.471 -813.786)" fill="#c4b676"/>
      <path id="Path_1096" data-name="Path 1096" d="M1078.686,839.482a2.3,2.3,0,1,1-.672-1.626A2.3,2.3,0,0,1,1078.686,839.482Z" transform="translate(-859.198 -813.787)" fill="#c4b676"/>
      <path id="Path_1097" data-name="Path 1097" d="M1104.116,839.482a2.3,2.3,0,1,1-.672-1.626A2.3,2.3,0,0,1,1104.116,839.482Z" transform="translate(-876.897 -813.787)" fill="#c4b676"/>
      <path id="Path_1098" data-name="Path 1098" d="M1129.546,839.482a2.3,2.3,0,1,1-.672-1.627A2.3,2.3,0,0,1,1129.546,839.482Z" transform="translate(-894.596 -813.787)" fill="#c4b676"/>
      <path id="Path_1099" data-name="Path 1099" d="M1015.078,860.231a2.3,2.3,0,1,1-.675-1.627A2.3,2.3,0,0,1,1015.078,860.231Z" transform="translate(-814.92 -828.227)" fill="#c4b676"/>
      <path id="Path_1100" data-name="Path 1100" d="M1040.508,860.231a2.3,2.3,0,1,1-.675-1.627A2.3,2.3,0,0,1,1040.508,860.231Z" transform="translate(-832.619 -828.227)" fill="#c4b676"/>
      <path id="Path_1101" data-name="Path 1101" d="M1065.948,860.231a2.3,2.3,0,1,1-.675-1.626A2.3,2.3,0,0,1,1065.948,860.231Z" transform="translate(-850.324 -828.227)" fill="#c4b676"/>
      <path id="Path_1102" data-name="Path 1102" d="M1091.378,860.231a2.3,2.3,0,1,1-.675-1.626A2.3,2.3,0,0,1,1091.378,860.231Z" transform="translate(-868.023 -828.227)" fill="#c4b676"/>
      <path id="Path_1103" data-name="Path 1103" d="M1116.808,860.231a2.3,2.3,0,1,1-.675-1.627A2.3,2.3,0,0,1,1116.808,860.231Z" transform="translate(-885.722 -828.227)" fill="#c4b676"/>
      <path id="Path_1104" data-name="Path 1104" d="M1286.19,1179.44a20.162,20.162,0,1,0,40.325,0h-4.131a16.031,16.031,0,1,1-32.062,0Z" transform="translate(-1006.817 -1051.993)" fill="#1a1a1a"/>
      <path id="Path_1105" data-name="Path 1105" d="M1159.391,1013.64a21.233,21.233,0,0,1,21.281,21.281v10.665a21.281,21.281,0,1,1-42.562,0v-10.665a21.233,21.233,0,0,1,21.281-21.281Z" transform="translate(-903.755 -936.599)" fill="#1a1a1a"/>
      <path id="Path_1106" data-name="Path 1106" d="M1217.405,1048.1a6.868,6.868,0,1,1-6.871-6.868A6.868,6.868,0,0,1,1217.405,1048.1Z" transform="translate(-949.384 -955.801)" fill="#fff"/>
      <path id="Path_1107" data-name="Path 1107" d="M1448.191,1099.739a21.232,21.232,0,0,1-21.281-21.281V1060.88h42.563v17.578a21.233,21.233,0,0,1-21.281,21.281Z" transform="translate(-1104.755 -969.478)" fill="#1a1a1a"/>
      <path id="Path_1108" data-name="Path 1108" d="M1517,1084.558a6.868,6.868,0,1,1-6.871-6.868A6.868,6.868,0,0,1,1517,1084.558Z" transform="translate(-1157.894 -981.177)" fill="#fff"/>
    </g>
  </g>
</svg>
